<svg version="1.1" viewBox="0.0 0.0 600.0 371.0" fill="none" stroke="none" stroke-linecap="square" stroke-miterlimit="10" width="600" height="371" xmlns:xlink="http://www.w3.org/1999/xlink" xmlns="http://www.w3.org/2000/svg"><path fill="#ffffff" d="M0 0L600.0 0L600.0 371.0L0 371.0L0 0Z" fill-rule="nonzero"/><path stroke="#333333" stroke-width="1.0" stroke-linecap="butt" d="M98.5 300.5L581.5 300.5" fill-rule="nonzero"/><path stroke="#cccccc" stroke-width="1.0" stroke-linecap="butt" d="M98.5 208.5L581.5 208.5" fill-rule="nonzero"/><path stroke="#cccccc" stroke-width="1.0" stroke-linecap="butt" d="M98.5 117.5L581.5 117.5" fill-rule="nonzero"/><path stroke="#cccccc" stroke-width="1.0" stroke-linecap="butt" d="M98.5 25.5L581.5 25.5" fill-rule="nonzero"/><clipPath id="id_0"><path d="M98.55 25.55L581.45 25.55L581.45 300.45L98.55 300.45L98.55 25.55Z" clip-rule="nonzero"/></clipPath><path stroke="#000000" stroke-width="2.0" stroke-linecap="butt" stroke-opacity="0.0" clip-path="url(#id_0)" d="M304.0 300.0L170.0 300.0L170.0 171.0C170.0 169.89543 170.89543 169.0 172.0 169.0L302.0 169.0C303.10458 169.0 304.0 169.89543 304.0 171.0Z" fill-rule="nonzero"/><path fill="#4285f4" clip-path="url(#id_0)" d="M304.0 300.0L170.0 300.0L170.0 171.0C170.0 169.89543 170.89543 169.0 172.0 169.0L302.0 169.0C303.10458 169.0 304.0 169.89543 304.0 171.0Z" fill-rule="nonzero"/><path stroke="#000000" stroke-width="2.0" stroke-linecap="butt" stroke-opacity="0.0" clip-path="url(#id_0)" d="M510.0 300.0L376.0 300.0L376.0 51.0C376.0 49.89543 376.89542 49.0 378.0 49.0L508.0 49.0C509.10458 49.0 510.0 49.89543 510.0 51.0Z" fill-rule="nonzero"/><path fill="#4285f4" clip-path="url(#id_0)" d="M510.0 300.0L376.0 300.0L376.0 51.0C376.0 49.89543 376.89542 49.0 378.0 49.0L508.0 49.0C509.10458 49.0 510.0 49.89543 510.0 51.0Z" fill-rule="nonzero"/><path fill="#000000" d="M281.5625 346.4344L282.6875 346.73126Q282.32812 348.1219 281.40625 348.85626Q280.48438 349.59064 279.14062 349.59064Q277.75 349.59064 276.875 349.02814Q276.0 348.46564 275.54688 347.40314Q275.09375 346.325 275.09375 345.09064Q275.09375 343.7469 275.60938 342.7469Q276.125 341.7469 277.0625 341.23126Q278.01562 340.71564 279.15625 340.71564Q280.4375 340.71564 281.3125 341.3719Q282.20312 342.02814 282.54688 343.21564L281.42188 343.48126Q281.125 342.54376 280.54688 342.1219Q279.98438 341.6844 279.125 341.6844Q278.14062 341.6844 277.46875 342.16876Q276.8125 342.6375 276.53125 343.4344Q276.26562 344.23126 276.26562 345.09064Q276.26562 346.1844 276.57812 346.9969Q276.90625 347.8094 277.57812 348.21564Q278.25 348.6219 279.04688 348.6219Q280.0 348.6219 280.65625 348.075Q281.32812 347.52814 281.5625 346.4344ZM288.375 349.45L288.375 348.52814Q287.64062 349.59064 286.39062 349.59064Q285.84375 349.59064 285.35938 349.3875Q284.89062 349.16876 284.65625 348.85626Q284.42188 348.52814 284.32812 348.0594Q284.26562 347.7625 284.26562 347.075L284.26562 343.23126L285.32812 343.23126L285.32812 346.6844Q285.32812 347.4969 285.39062 347.79376Q285.48438 348.2 285.79688 348.45Q286.125 348.6844 286.60938 348.6844Q287.07812 348.6844 287.48438 348.45Q287.90625 348.2 288.07812 347.77814Q288.26562 347.35626 288.26562 346.5594L288.26562 343.23126L289.3125 343.23126L289.3125 349.45L288.375 349.45ZM291.28125 349.45L291.28125 343.23126L292.23438 343.23126L292.23438 344.16876Q292.59375 343.5125 292.89062 343.3094Q293.20312 343.09064 293.57812 343.09064Q294.10938 343.09064 294.65625 343.41876L294.29688 344.40314Q293.90625 344.16876 293.53125 344.16876Q293.17188 344.16876 292.89062 344.3875Q292.625 344.59064 292.51562 344.96564Q292.32812 345.52814 292.32812 346.1844L292.32812 349.45L291.28125 349.45ZM295.28125 349.45L295.28125 343.23126L296.23438 343.23126L296.23438 344.16876Q296.59375 343.5125 296.89062 343.3094Q297.20312 343.09064 297.57812 343.09064Q298.10938 343.09064 298.65625 343.41876L298.29688 344.40314Q297.90625 344.16876 297.53125 344.16876Q297.17188 344.16876 296.89062 344.3875Q296.625 344.59064 296.51562 344.96564Q296.32812 345.52814 296.32812 346.1844L296.32812 349.45L295.28125 349.45ZM303.54688 347.45L304.64062 347.575Q304.39062 348.52814 303.6875 349.0594Q302.98438 349.59064 301.90625 349.59064Q300.54688 349.59064 299.73438 348.7469Q298.9375 347.90314 298.9375 346.3875Q298.9375 344.825 299.75 343.96564Q300.5625 343.09064 301.84375 343.09064Q303.09375 343.09064 303.875 343.9344Q304.67188 344.77814 304.67188 346.325Q304.67188 346.41876 304.67188 346.60626L300.03125 346.60626Q300.09375 347.6375 300.60938 348.1844Q301.125 348.71564 301.90625 348.71564Q302.48438 348.71564 302.89062 348.41876Q303.3125 348.10626 303.54688 347.45ZM300.09375 345.7469L303.5625 345.7469Q303.5 344.95 303.17188 344.5594Q302.65625 343.95 301.85938 343.95Q301.125 343.95 300.625 344.4344Q300.14062 344.91876 300.09375 345.7469ZM306.29688 349.45L306.29688 343.23126L307.23438 343.23126L307.23438 344.10626Q307.92188 343.09064 309.21875 343.09064Q309.78125 343.09064 310.25 343.29376Q310.73438 343.4969 310.96875 343.825Q311.20312 344.15314 311.29688 344.59064Q311.34375 344.8875 311.34375 345.6219L311.34375 349.45L310.29688 349.45L310.29688 345.66876Q310.29688 345.0125 310.17188 344.7Q310.04688 344.3875 309.73438 344.2Q309.42188 343.9969 309.0 343.9969Q308.32812 343.9969 307.82812 344.4344Q307.34375 344.85626 307.34375 346.04376L307.34375 349.45L306.29688 349.45ZM315.59375 348.5125L315.75 349.4344Q315.29688 349.52814 314.95312 349.52814Q314.375 349.52814 314.0625 349.35626Q313.75 349.16876 313.60938 348.8719Q313.48438 348.575 313.48438 347.6219L313.48438 344.04376L312.71875 344.04376L312.71875 343.23126L313.48438 343.23126L313.48438 341.6844L314.53125 341.0594L314.53125 343.23126L315.59375 343.23126L315.59375 344.04376L314.53125 344.04376L314.53125 347.6844Q314.53125 348.1375 314.57812 348.2625Q314.64062 348.3875 314.76562 348.46564Q314.89062 348.54376 315.125 348.54376Q315.3125 348.54376 315.59375 348.5125ZM319.04688 346.6844L320.10938 346.59064Q320.1875 347.2469 320.46875 347.65314Q320.75 348.0594 321.32812 348.325Q321.92188 348.575 322.65625 348.575Q323.29688 348.575 323.79688 348.3875Q324.29688 348.1844 324.53125 347.85626Q324.78125 347.5125 324.78125 347.1219Q324.78125 346.71564 324.54688 346.41876Q324.3125 346.10626 323.78125 345.90314Q323.42188 345.7625 322.23438 345.48126Q321.0625 345.2 320.59375 344.95Q319.96875 344.6219 319.67188 344.15314Q319.375 343.66876 319.375 343.075Q319.375 342.4344 319.73438 341.8719Q320.10938 341.29376 320.8125 341.0125Q321.53125 340.71564 322.39062 340.71564Q323.34375 340.71564 324.07812 341.02814Q324.8125 341.325 325.20312 341.9344Q325.59375 342.52814 325.625 343.27814L324.53125 343.35626Q324.4375 342.54376 323.92188 342.1375Q323.42188 341.71564 322.4375 341.71564Q321.40625 341.71564 320.9375 342.09064Q320.46875 342.46564 320.46875 342.9969Q320.46875 343.46564 320.79688 343.7625Q321.125 344.0594 322.5 344.3719Q323.89062 344.6844 324.40625 344.91876Q325.15625 345.27814 325.51562 345.8094Q325.875 346.325 325.875 347.02814Q325.875 347.71564 325.48438 348.325Q325.09375 348.91876 324.35938 349.2625Q323.625 349.59064 322.70312 349.59064Q321.53125 349.59064 320.73438 349.2625Q319.95312 348.91876 319.5 348.23126Q319.0625 347.54376 319.04688 346.6844ZM327.29688 349.45L327.29688 343.23126L328.23438 343.23126L328.23438 344.10626Q328.53125 343.6375 329.01562 343.3719Q329.5 343.09064 330.125 343.09064Q330.8125 343.09064 331.25 343.3719Q331.70312 343.65314 331.875 344.16876Q332.625 343.09064 333.79688 343.09064Q334.73438 343.09064 335.21875 343.60626Q335.71875 344.10626 335.71875 345.1844L335.71875 349.45L334.67188 349.45L334.67188 345.52814Q334.67188 344.90314 334.5625 344.6219Q334.46875 344.34064 334.20312 344.16876Q333.9375 343.9969 333.5625 343.9969Q332.90625 343.9969 332.46875 344.4344Q332.04688 344.8719 332.04688 345.84064L332.04688 349.45L330.98438 349.45L330.98438 345.40314Q330.98438 344.7 330.71875 344.35626Q330.46875 343.9969 329.89062 343.9969Q329.4375 343.9969 329.0625 344.23126Q328.6875 344.46564 328.51562 344.91876Q328.34375 345.3719 328.34375 346.21564L328.34375 349.45L327.29688 349.45ZM337.90625 346.34064Q337.90625 344.60626 338.85938 343.77814Q339.65625 343.09064 340.8125 343.09064Q342.09375 343.09064 342.90625 343.9344Q343.73438 344.7625 343.73438 346.2469Q343.73438 347.45 343.375 348.1375Q343.01562 348.825 342.3125 349.21564Q341.625 349.59064 340.8125 349.59064Q339.51562 349.59064 338.70312 348.7625Q337.90625 347.91876 337.90625 346.34064ZM338.98438 346.34064Q338.98438 347.52814 339.5 348.1219Q340.03125 348.71564 340.8125 348.71564Q341.60938 348.71564 342.125 348.1219Q342.64062 347.52814 342.64062 346.3094Q342.64062 345.15314 342.10938 344.5594Q341.59375 343.96564 340.8125 343.96564Q340.03125 343.96564 339.5 344.5594Q338.98438 345.1375 338.98438 346.34064ZM345.29688 349.45L345.29688 340.85626L346.35938 340.85626L346.35938 345.7625L348.84375 343.23126L350.21875 343.23126L347.82812 345.52814L350.45312 349.45L349.15625 349.45L347.09375 346.2625L346.35938 346.98126L346.35938 349.45L345.29688 349.45ZM351.29688 342.075L351.29688 340.85626L352.35938 340.85626L352.35938 342.075L351.29688 342.075ZM351.29688 349.45L351.29688 343.23126L352.35938 343.23126L352.35938 349.45L351.29688 349.45ZM354.29688 349.45L354.29688 343.23126L355.23438 343.23126L355.23438 344.10626Q355.92188 343.09064 357.21875 343.09064Q357.78125 343.09064 358.25 343.29376Q358.73438 343.4969 358.96875 343.825Q359.20312 344.15314 359.29688 344.59064Q359.34375 344.8875 359.34375 345.6219L359.34375 349.45L358.29688 349.45L358.29688 345.66876Q358.29688 345.0125 358.17188 344.7Q358.04688 344.3875 357.73438 344.2Q357.42188 343.9969 357.0 343.9969Q356.32812 343.9969 355.82812 344.4344Q355.34375 344.85626 355.34375 346.04376L355.34375 349.45L354.29688 349.45ZM361.09375 349.96564L362.125 350.1219Q362.1875 350.59064 362.48438 350.8094Q362.875 351.10626 363.54688 351.10626Q364.28125 351.10626 364.67188 350.8094Q365.07812 350.5125 365.21875 349.9969Q365.3125 349.66876 365.29688 348.6375Q364.60938 349.45 363.57812 349.45Q362.29688 349.45 361.59375 348.52814Q360.89062 347.59064 360.89062 346.3094Q360.89062 345.41876 361.20312 344.66876Q361.53125 343.90314 362.14062 343.4969Q362.75 343.09064 363.57812 343.09064Q364.6875 343.09064 365.40625 343.98126L365.40625 343.23126L366.375 343.23126L366.375 348.60626Q366.375 350.0594 366.07812 350.66876Q365.78125 351.27814 365.14062 351.6219Q364.5 351.98126 363.5625 351.98126Q362.45312 351.98126 361.76562 351.48126Q361.07812 350.98126 361.09375 349.96564ZM361.96875 346.23126Q361.96875 347.45 362.45312 348.0125Q362.9375 348.575 363.67188 348.575Q364.40625 348.575 364.89062 348.0125Q365.39062 347.45 365.39062 346.2625Q365.39062 345.1219 364.875 344.54376Q364.375 343.96564 363.65625 343.96564Q362.95312 343.96564 362.45312 344.54376Q361.96875 345.10626 361.96875 346.23126ZM371.04688 346.6844L372.10938 346.59064Q372.1875 347.2469 372.46875 347.65314Q372.75 348.0594 373.32812 348.325Q373.92188 348.575 374.65625 348.575Q375.29688 348.575 375.79688 348.3875Q376.29688 348.1844 376.53125 347.85626Q376.78125 347.5125 376.78125 347.1219Q376.78125 346.71564 376.54688 346.41876Q376.3125 346.10626 375.78125 345.90314Q375.42188 345.7625 374.23438 345.48126Q373.0625 345.2 372.59375 344.95Q371.96875 344.6219 371.67188 344.15314Q371.375 343.66876 371.375 343.075Q371.375 342.4344 371.73438 341.8719Q372.10938 341.29376 372.8125 341.0125Q373.53125 340.71564 374.39062 340.71564Q375.34375 340.71564 376.07812 341.02814Q376.8125 341.325 377.20312 341.9344Q377.59375 342.52814 377.625 343.27814L376.53125 343.35626Q376.4375 342.54376 375.92188 342.1375Q375.42188 341.71564 374.4375 341.71564Q373.40625 341.71564 372.9375 342.09064Q372.46875 342.46564 372.46875 342.9969Q372.46875 343.46564 372.79688 343.7625Q373.125 344.0594 374.5 344.3719Q375.89062 344.6844 376.40625 344.91876Q377.15625 345.27814 377.51562 345.8094Q377.875 346.325 377.875 347.02814Q377.875 347.71564 377.48438 348.325Q377.09375 348.91876 376.35938 349.2625Q375.625 349.59064 374.70312 349.59064Q373.53125 349.59064 372.73438 349.2625Q371.95312 348.91876 371.5 348.23126Q371.0625 347.54376 371.04688 346.6844ZM381.59375 348.5125L381.75 349.4344Q381.29688 349.52814 380.95312 349.52814Q380.375 349.52814 380.0625 349.35626Q379.75 349.16876 379.60938 348.8719Q379.48438 348.575 379.48438 347.6219L379.48438 344.04376L378.71875 344.04376L378.71875 343.23126L379.48438 343.23126L379.48438 341.6844L380.53125 341.0594L380.53125 343.23126L381.59375 343.23126L381.59375 344.04376L380.53125 344.04376L380.53125 347.6844Q380.53125 348.1375 380.57812 348.2625Q380.64062 348.3875 380.76562 348.46564Q380.89062 348.54376 381.125 348.54376Q381.3125 348.54376 381.59375 348.5125ZM386.35938 348.6844Q385.76562 349.1844 385.21875 349.3875Q384.6875 349.59064 384.0625 349.59064Q383.03125 349.59064 382.48438 349.09064Q381.9375 348.59064 381.9375 347.8094Q381.9375 347.35626 382.14062 346.98126Q382.34375 346.59064 382.6875 346.3719Q383.03125 346.1375 383.45312 346.02814Q383.75 345.9344 384.39062 345.85626Q385.65625 345.71564 386.26562 345.4969Q386.26562 345.27814 386.26562 345.23126Q386.26562 344.575 385.96875 344.3094Q385.5625 343.96564 384.76562 343.96564Q384.03125 343.96564 383.67188 344.23126Q383.3125 344.48126 383.14062 345.1375L382.10938 344.9969Q382.25 344.34064 382.57812 343.9344Q382.90625 343.52814 383.51562 343.3094Q384.125 343.09064 384.92188 343.09064Q385.71875 343.09064 386.21875 343.27814Q386.71875 343.46564 386.95312 343.7469Q387.1875 344.02814 387.28125 344.46564Q387.32812 344.73126 387.32812 345.4344L387.32812 346.84064Q387.32812 348.3094 387.39062 348.7Q387.46875 349.09064 387.67188 349.45L386.5625 349.45Q386.40625 349.1219 386.35938 348.6844ZM386.26562 346.325Q385.6875 346.5594 384.54688 346.73126Q383.89062 346.825 383.625 346.95Q383.35938 347.0594 383.20312 347.27814Q383.0625 347.4969 383.0625 347.77814Q383.0625 348.2 383.375 348.48126Q383.70312 348.7625 384.3125 348.7625Q384.92188 348.7625 385.39062 348.4969Q385.875 348.23126 386.09375 347.7625Q386.26562 347.40314 386.26562 346.71564L386.26562 346.325ZM391.59375 348.5125L391.75 349.4344Q391.29688 349.52814 390.95312 349.52814Q390.375 349.52814 390.0625 349.35626Q389.75 349.16876 389.60938 348.8719Q389.48438 348.575 389.48438 347.6219L389.48438 344.04376L388.71875 344.04376L388.71875 343.23126L389.48438 343.23126L389.48438 341.6844L390.53125 341.0594L390.53125 343.23126L391.59375 343.23126L391.59375 344.04376L390.53125 344.04376L390.53125 347.6844Q390.53125 348.1375 390.57812 348.2625Q390.64062 348.3875 390.76562 348.46564Q390.89062 348.54376 391.125 348.54376Q391.3125 348.54376 391.59375 348.5125ZM396.375 349.45L396.375 348.52814Q395.64062 349.59064 394.39062 349.59064Q393.84375 349.59064 393.35938 349.3875Q392.89062 349.16876 392.65625 348.85626Q392.42188 348.52814 392.32812 348.0594Q392.26562 347.7625 392.26562 347.075L392.26562 343.23126L393.32812 343.23126L393.32812 346.6844Q393.32812 347.4969 393.39062 347.79376Q393.48438 348.2 393.79688 348.45Q394.125 348.6844 394.60938 348.6844Q395.07812 348.6844 395.48438 348.45Q395.90625 348.2 396.07812 347.77814Q396.26562 347.35626 396.26562 346.5594L396.26562 343.23126L397.3125 343.23126L397.3125 349.45L396.375 349.45ZM398.875 347.59064L399.90625 347.4344Q400.0 348.0594 400.39062 348.3875Q400.79688 348.71564 401.53125 348.71564Q402.25 348.71564 402.59375 348.4344Q402.95312 348.1375 402.95312 347.73126Q402.95312 347.3719 402.64062 347.16876Q402.42188 347.02814 401.5625 346.8094Q400.40625 346.5125 399.95312 346.3094Q399.51562 346.09064 399.28125 345.71564Q399.04688 345.34064 399.04688 344.8719Q399.04688 344.46564 399.23438 344.10626Q399.42188 343.7469 399.75 343.5125Q400.0 343.34064 400.42188 343.21564Q400.84375 343.09064 401.34375 343.09064Q402.0625 343.09064 402.60938 343.3094Q403.17188 343.5125 403.4375 343.8719Q403.70312 344.23126 403.79688 344.825L402.76562 344.96564Q402.70312 344.4969 402.35938 344.23126Q402.03125 343.95 401.40625 343.95Q400.6875 343.95 400.375 344.2Q400.0625 344.4344 400.0625 344.7625Q400.0625 344.96564 400.1875 345.1219Q400.32812 345.29376 400.59375 345.40314Q400.75 345.46564 401.53125 345.66876Q402.65625 345.98126 403.09375 346.16876Q403.53125 346.35626 403.78125 346.71564Q404.03125 347.075 404.03125 347.6219Q404.03125 348.15314 403.71875 348.6219Q403.42188 349.075 402.84375 349.34064Q402.26562 349.59064 401.53125 349.59064Q400.3125 349.59064 399.67188 349.09064Q399.04688 348.575 398.875 347.59064Z" fill-rule="nonzero"/><path fill="#000000" d="M29.550013 276.07812L20.956263 276.07812L20.956263 272.82812Q20.956263 271.98438 21.034388 271.53125Q21.143763 270.89062 21.440638 270.46875Q21.737513 270.03125 22.268763 269.78125Q22.800013 269.51562 23.440638 269.51562Q24.534388 269.51562 25.300013 270.21875Q26.050013 270.90625 26.050013 272.73438L26.050013 274.9375L29.550013 274.9375L29.550013 276.07812ZM25.050013 274.9375L25.050013 272.71875Q25.050013 271.60938 24.643763 271.15625Q24.221888 270.6875 23.471888 270.6875Q22.940638 270.6875 22.565638 270.96875Q22.175013 271.23438 22.050013 271.67188Q21.971888 271.96875 21.971888 272.73438L21.971888 274.9375L25.050013 274.9375ZM27.550013 263.95312L27.675013 262.85938Q28.628138 263.10938 29.159388 263.8125Q29.690638 264.51562 29.690638 265.59375Q29.690638 266.95312 28.846888 267.76562Q28.003138 268.5625 26.487513 268.5625Q24.925013 268.5625 24.065638 267.75Q23.190638 266.9375 23.190638 265.65625Q23.190638 264.40625 24.034388 263.625Q24.878138 262.82812 26.425013 262.82812Q26.518763 262.82812 26.706263 262.82812L26.706263 267.46875Q27.737513 267.40625 28.284388 266.89062Q28.815638 266.375 28.815638 265.59375Q28.815638 265.01562 28.518763 264.60938Q28.206263 264.1875 27.550013 263.95312ZM25.846888 267.40625L25.846888 263.9375Q25.050013 264.0 24.659388 264.32812Q24.050013 264.84375 24.050013 265.64062Q24.050013 266.375 24.534388 266.875Q25.018763 267.35938 25.846888 267.40625ZM29.550013 261.21875L23.331263 261.21875L23.331263 260.26562L24.268763 260.26562Q23.612513 259.90625 23.409388 259.60938Q23.190638 259.29688 23.190638 258.92188Q23.190638 258.39062 23.518763 257.84375L24.503138 258.20312Q24.268763 258.59375 24.268763 258.96875Q24.268763 259.32812 24.487513 259.60938Q24.690638 259.875 25.065638 259.98438Q25.628138 260.17188 26.284388 260.17188L29.550013 260.17188L29.550013 261.21875ZM27.268763 253.14062L27.409388 252.10938Q28.471888 252.28125 29.081263 252.98438Q29.690638 253.6875 29.690638 254.70312Q29.690638 255.98438 28.862513 256.76562Q28.018763 257.53125 26.456263 257.53125Q25.456263 257.53125 24.706263 257.20312Q23.940638 256.85938 23.565638 256.1875Q23.190638 255.5 23.190638 254.6875Q23.190638 253.6875 23.706263 253.04688Q24.206263 252.39062 25.159388 252.20312L25.315638 253.23438Q24.690638 253.375 24.378138 253.75Q24.050013 254.125 24.050013 254.65625Q24.050013 255.45312 24.628138 255.95312Q25.190638 256.45312 26.425013 256.45312Q27.690638 256.45312 28.253138 255.96875Q28.815638 255.48438 28.815638 254.71875Q28.815638 254.09375 28.440638 253.6875Q28.065638 253.26562 27.268763 253.14062ZM27.550013 246.95312L27.675013 245.85938Q28.628138 246.10938 29.159388 246.8125Q29.690638 247.51562 29.690638 248.59375Q29.690638 249.95312 28.846888 250.76562Q28.003138 251.5625 26.487513 251.5625Q24.925013 251.5625 24.065638 250.75Q23.190638 249.9375 23.190638 248.65625Q23.190638 247.40625 24.034388 246.625Q24.878138 245.82812 26.425013 245.82812Q26.518763 245.82812 26.706263 245.82812L26.706263 250.46875Q27.737513 250.40625 28.284388 249.89062Q28.815638 249.375 28.815638 248.59375Q28.815638 248.01562 28.518763 247.60938Q28.206263 247.1875 27.550013 246.95312ZM25.846888 250.40625L25.846888 246.9375Q25.050013 247.0 24.659388 247.32812Q24.050013 247.84375 24.050013 248.64062Q24.050013 249.375 24.534388 249.875Q25.018763 250.35938 25.846888 250.40625ZM29.550013 244.20312L23.331263 244.20312L23.331263 243.26562L24.206263 243.26562Q23.190638 242.57812 23.190638 241.28125Q23.190638 240.71875 23.393763 240.25Q23.596888 239.76562 23.925013 239.53125Q24.253138 239.29688 24.690638 239.20312Q24.987513 239.15625 25.721888 239.15625L29.550013 239.15625L29.550013 240.20312L25.768763 240.20312Q25.112513 240.20312 24.800013 240.32812Q24.487513 240.45312 24.300013 240.76562Q24.096888 241.07812 24.096888 241.5Q24.096888 242.17188 24.534388 242.67188Q24.956263 243.15625 26.143763 243.15625L29.550013 243.15625L29.550013 244.20312ZM28.612513 234.90625L29.534388 234.75Q29.628138 235.20312 29.628138 235.54688Q29.628138 236.125 29.456263 236.4375Q29.268763 236.75 28.971888 236.89062Q28.675013 237.01562 27.721888 237.01562L24.143763 237.01562L24.143763 237.78125L23.331263 237.78125L23.331263 237.01562L21.784388 237.01562L21.159388 235.96875L23.331263 235.96875L23.331263 234.90625L24.143763 234.90625L24.143763 235.96875L27.784388 235.96875Q28.237513 235.96875 28.362513 235.92188Q28.487513 235.85938 28.565638 235.73438Q28.643763 235.60938 28.643763 235.375Q28.643763 235.1875 28.612513 234.90625ZM28.784388 230.14062Q29.284388 230.73438 29.487513 231.28125Q29.690638 231.8125 29.690638 232.4375Q29.690638 233.46875 29.190638 234.01562Q28.690638 234.5625 27.909388 234.5625Q27.456263 234.5625 27.081263 234.35938Q26.690638 234.15625 26.471888 233.8125Q26.237513 233.46875 26.128138 233.04688Q26.034388 232.75 25.956263 232.10938Q25.815638 230.84375 25.596888 230.23438Q25.378138 230.23438 25.331263 230.23438Q24.675013 230.23438 24.409388 230.53125Q24.065638 230.9375 24.065638 231.73438Q24.065638 232.46875 24.331263 232.82812Q24.581263 233.1875 25.237513 233.35938L25.096888 234.39062Q24.440638 234.25 24.034388 233.92188Q23.628138 233.59375 23.409388 232.98438Q23.190638 232.375 23.190638 231.57812Q23.190638 230.78125 23.378138 230.28125Q23.565638 229.78125 23.846888 229.54688Q24.128138 229.3125 24.565638 229.21875Q24.831263 229.17188 25.534388 229.17188L26.940638 229.17188Q28.409388 229.17188 28.800013 229.10938Q29.190638 229.03125 29.550013 228.82812L29.550013 229.9375Q29.221888 230.09375 28.784388 230.14062ZM26.425013 230.23438Q26.659388 230.8125 26.831263 231.95312Q26.925013 232.60938 27.050013 232.875Q27.159388 233.14062 27.378138 233.29688Q27.596888 233.4375 27.878138 233.4375Q28.300013 233.4375 28.581263 233.125Q28.862513 232.79688 28.862513 232.1875Q28.862513 231.57812 28.596888 231.10938Q28.331263 230.625 27.862513 230.40625Q27.503138 230.23438 26.815638 230.23438L26.425013 230.23438ZM30.065638 227.40625L30.221888 226.375Q30.690638 226.3125 30.909388 226.01562Q31.206263 225.625 31.206263 224.95312Q31.206263 224.21875 30.909388 223.82812Q30.612513 223.42188 30.096888 223.28125Q29.768763 223.1875 28.737513 223.20312Q29.550013 223.89062 29.550013 224.92188Q29.550013 226.20312 28.628138 226.90625Q27.690638 227.60938 26.409388 227.60938Q25.518763 227.60938 24.768763 227.29688Q24.003138 226.96875 23.596888 226.35938Q23.190638 225.75 23.190638 224.92188Q23.190638 223.8125 24.081263 223.09375L23.331263 223.09375L23.331263 222.125L28.706263 222.125Q30.159388 222.125 30.768763 222.42188Q31.378138 222.71875 31.721888 223.35938Q32.08126 224.0 32.08126 224.9375Q32.08126 226.04688 31.581263 226.73438Q31.081263 227.42188 30.065638 227.40625ZM26.331263 226.53125Q27.550013 226.53125 28.112513 226.04688Q28.675013 225.5625 28.675013 224.82812Q28.675013 224.09375 28.112513 223.60938Q27.550013 223.10938 26.362513 223.10938Q25.221888 223.10938 24.643763 223.625Q24.065638 224.125 24.065638 224.84375Q24.065638 225.54688 24.643763 226.04688Q25.206263 226.53125 26.331263 226.53125ZM27.550013 215.95312L27.675013 214.85938Q28.628138 215.10938 29.159388 215.8125Q29.690638 216.51562 29.690638 217.59375Q29.690638 218.95312 28.846888 219.76562Q28.003138 220.5625 26.487513 220.5625Q24.925013 220.5625 24.065638 219.75Q23.190638 218.9375 23.190638 217.65625Q23.190638 216.40625 24.034388 215.625Q24.878138 214.82812 26.425013 214.82812Q26.518763 214.82812 26.706263 214.82812L26.706263 219.46875Q27.737513 219.40625 28.284388 218.89062Q28.815638 218.375 28.815638 217.59375Q28.815638 217.01562 28.518763 216.60938Q28.206263 216.1875 27.550013 215.95312ZM25.846888 219.40625L25.846888 215.9375Q25.050013 216.0 24.659388 216.32812Q24.050013 216.84375 24.050013 217.64062Q24.050013 218.375 24.534388 218.875Q25.018763 219.35938 25.846888 219.40625ZM26.440638 210.59375Q24.706263 210.59375 23.878138 209.64062Q23.190638 208.84375 23.190638 207.6875Q23.190638 206.40625 24.034388 205.59375Q24.862513 204.76562 26.346888 204.76562Q27.550013 204.76562 28.237513 205.125Q28.925013 205.48438 29.315638 206.1875Q29.690638 206.875 29.690638 207.6875Q29.690638 208.98438 28.862513 209.79688Q28.018763 210.59375 26.440638 210.59375ZM26.440638 209.51562Q27.628138 209.51562 28.221888 209.0Q28.815638 208.46875 28.815638 207.6875Q28.815638 206.89062 28.221888 206.375Q27.628138 205.85938 26.409388 205.85938Q25.253138 205.85938 24.659388 206.39062Q24.065638 206.90625 24.065638 207.6875Q24.065638 208.46875 24.659388 209.0Q25.237513 209.51562 26.440638 209.51562ZM29.550013 202.95312L24.143763 202.95312L24.143763 203.89062L23.331263 203.89062L23.331263 202.95312L22.659388 202.95312Q22.034388 202.95312 21.737513 202.84375Q21.315638 202.6875 21.065638 202.3125Q20.815638 201.92188 20.815638 201.23438Q20.815638 200.78125 20.925013 200.25L21.831263 200.40625Q21.784388 200.73438 21.784388 201.03125Q21.784388 201.51562 21.987513 201.71875Q22.190638 201.90625 22.753138 201.90625L23.331263 201.90625L23.331263 200.6875L24.143763 200.6875L24.143763 201.90625L29.550013 201.90625L29.550013 202.95312ZM29.550013 197.0625L20.956263 197.0625L20.956263 193.25Q20.956263 192.09375 21.190638 191.5Q21.425013 190.90625 22.018763 190.54688Q22.596888 190.1875 23.300013 190.1875Q24.221888 190.1875 24.846888 190.78125Q25.471888 191.375 25.643763 192.60938Q25.862513 192.15625 26.065638 191.92188Q26.518763 191.42188 27.206263 190.98438L29.550013 189.48438L29.550013 190.92188L27.768763 192.04688Q26.987513 192.54688 26.581263 192.875Q26.175013 193.1875 26.018763 193.45312Q25.846888 193.70312 25.768763 193.96875Q25.737513 194.15625 25.737513 194.59375L25.737513 195.92188L29.550013 195.92188L29.550013 197.0625ZM24.753138 195.92188L24.753138 193.46875Q24.753138 192.70312 24.596888 192.26562Q24.425013 191.8125 24.081263 191.59375Q23.721888 191.35938 23.300013 191.35938Q22.690638 191.35938 22.300013 191.8125Q21.909388 192.25 21.909388 193.20312L21.909388 195.92188L24.753138 195.92188ZM27.550013 183.95312L27.675013 182.85938Q28.628138 183.10938 29.159388 183.8125Q29.690638 184.51562 29.690638 185.59375Q29.690638 186.95312 28.846888 187.76562Q28.003138 188.5625 26.487513 188.5625Q24.925013 188.5625 24.065638 187.75Q23.190638 186.9375 23.190638 185.65625Q23.190638 184.40625 24.034388 183.625Q24.878138 182.82812 26.425013 182.82812Q26.518763 182.82812 26.706263 182.82812L26.706263 187.46875Q27.737513 187.40625 28.284388 186.89062Q28.815638 186.375 28.815638 185.59375Q28.815638 185.01562 28.518763 184.60938Q28.206263 184.1875 27.550013 183.95312ZM25.846888 187.40625L25.846888 183.9375Q25.050013 184.0 24.659388 184.32812Q24.050013 184.84375 24.050013 185.64062Q24.050013 186.375 24.534388 186.875Q25.018763 187.35938 25.846888 187.40625ZM27.690638 181.625L27.534388 180.59375Q28.159388 180.5 28.487513 180.10938Q28.815638 179.70312 28.815638 178.96875Q28.815638 178.25 28.534388 177.90625Q28.237513 177.54688 27.831263 177.54688Q27.471888 177.54688 27.268763 177.85938Q27.128138 178.07812 26.909388 178.9375Q26.612513 180.09375 26.409388 180.54688Q26.190638 180.98438 25.815638 181.21875Q25.440638 181.45312 24.971888 181.45312Q24.565638 181.45312 24.206263 181.26562Q23.846888 181.07812 23.612513 180.75Q23.440638 180.5 23.315638 180.07812Q23.190638 179.65625 23.190638 179.15625Q23.190638 178.4375 23.409388 177.89062Q23.612513 177.32812 23.971888 177.0625Q24.331263 176.79688 24.925013 176.70312L25.065638 177.73438Q24.596888 177.79688 24.331263 178.14062Q24.050013 178.46875 24.050013 179.09375Q24.050013 179.8125 24.300013 180.125Q24.534388 180.4375 24.862513 180.4375Q25.065638 180.4375 25.221888 180.3125Q25.393763 180.17188 25.503138 179.90625Q25.565638 179.75 25.768763 178.96875Q26.081263 177.84375 26.268763 177.40625Q26.456263 176.96875 26.815638 176.71875Q27.175013 176.46875 27.721888 176.46875Q28.253138 176.46875 28.721888 176.78125Q29.175013 177.07812 29.440638 177.65625Q29.690638 178.23438 29.690638 178.96875Q29.690638 180.1875 29.190638 180.82812Q28.675013 181.45312 27.690638 181.625ZM31.940638 174.20312L23.331263 174.20312L23.331263 173.25L24.128138 173.25Q23.659388 172.90625 23.425013 172.48438Q23.190638 172.04688 23.190638 171.4375Q23.190638 170.64062 23.596888 170.03125Q24.003138 169.42188 24.753138 169.125Q25.503138 168.8125 26.393763 168.8125Q27.346888 168.8125 28.112513 169.15625Q28.878138 169.48438 29.284388 170.14062Q29.690638 170.79688 29.690638 171.51562Q29.690638 172.04688 29.471888 172.46875Q29.237513 172.89062 28.909388 173.15625L31.940638 173.15625L31.940638 174.20312ZM26.471888 173.25Q27.675013 173.25 28.253138 172.76562Q28.815638 172.28125 28.815638 171.59375Q28.815638 170.89062 28.221888 170.39062Q27.628138 169.89062 26.378138 169.89062Q25.190638 169.89062 24.612513 170.375Q24.018763 170.85938 24.018763 171.54688Q24.018763 172.21875 24.643763 172.73438Q25.268763 173.25 26.471888 173.25ZM26.440638 167.59375Q24.706263 167.59375 23.878138 166.64062Q23.190638 165.84375 23.190638 164.6875Q23.190638 163.40625 24.034388 162.59375Q24.862513 161.76562 26.346888 161.76562Q27.550013 161.76562 28.237513 162.125Q28.925013 162.48438 29.315638 163.1875Q29.690638 163.875 29.690638 164.6875Q29.690638 165.98438 28.862513 166.79688Q28.018763 167.59375 26.440638 167.59375ZM26.440638 166.51562Q27.628138 166.51562 28.221888 166.0Q28.815638 165.46875 28.815638 164.6875Q28.815638 163.89062 28.221888 163.375Q27.628138 162.85938 26.409388 162.85938Q25.253138 162.85938 24.659388 163.39062Q24.065638 163.90625 24.065638 164.6875Q24.065638 165.46875 24.659388 166.0Q25.237513 166.51562 26.440638 166.51562ZM29.550013 160.20312L23.331263 160.20312L23.331263 159.26562L24.206263 159.26562Q23.190638 158.57812 23.190638 157.28125Q23.190638 156.71875 23.393763 156.25Q23.596888 155.76562 23.925013 155.53125Q24.253138 155.29688 24.690638 155.20312Q24.987513 155.15625 25.721888 155.15625L29.550013 155.15625L29.550013 156.20312L25.768763 156.20312Q25.112513 156.20312 24.800013 156.32812Q24.487513 156.45312 24.300013 156.76562Q24.096888 157.07812 24.096888 157.5Q24.096888 158.17188 24.534388 158.67188Q24.956263 159.15625 26.143763 159.15625L29.550013 159.15625L29.550013 160.20312ZM29.550013 149.17188L28.768763 149.17188Q29.690638 149.76562 29.690638 150.90625Q29.690638 151.65625 29.284388 152.28125Q28.862513 152.90625 28.128138 153.25Q27.393763 153.59375 26.440638 153.59375Q25.518763 153.59375 24.753138 153.28125Q23.987513 152.96875 23.596888 152.34375Q23.190638 151.71875 23.190638 150.95312Q23.190638 150.39062 23.425013 149.95312Q23.659388 149.51562 24.034388 149.23438L20.956263 149.23438L20.956263 148.1875L29.550013 148.1875L29.550013 149.17188ZM26.440638 152.5Q27.643763 152.5 28.237513 152.0Q28.815638 151.5 28.815638 150.8125Q28.815638 150.125 28.253138 149.64062Q27.690638 149.15625 26.534388 149.15625Q25.253138 149.15625 24.659388 149.65625Q24.065638 150.14062 24.065638 150.85938Q24.065638 151.5625 24.643763 152.03125Q25.206263 152.5 26.440638 152.5ZM27.550013 141.95312L27.675013 140.85938Q28.628138 141.10938 29.159388 141.8125Q29.690638 142.51562 29.690638 143.59375Q29.690638 144.95312 28.846888 145.76562Q28.003138 146.5625 26.487513 146.5625Q24.925013 146.5625 24.065638 145.75Q23.190638 144.9375 23.190638 143.65625Q23.190638 142.40625 24.034388 141.625Q24.878138 140.82812 26.425013 140.82812Q26.518763 140.82812 26.706263 140.82812L26.706263 145.46875Q27.737513 145.40625 28.284388 144.89062Q28.815638 144.375 28.815638 143.59375Q28.815638 143.01562 28.518763 142.60938Q28.206263 142.1875 27.550013 141.95312ZM25.846888 145.40625L25.846888 141.9375Q25.050013 142.0 24.659388 142.32812Q24.050013 142.84375 24.050013 143.64062Q24.050013 144.375 24.534388 144.875Q25.018763 145.35938 25.846888 145.40625ZM29.550013 139.20312L23.331263 139.20312L23.331263 138.26562L24.206263 138.26562Q23.190638 137.57812 23.190638 136.28125Q23.190638 135.71875 23.393763 135.25Q23.596888 134.76562 23.925013 134.53125Q24.253138 134.29688 24.690638 134.20312Q24.987513 134.15625 25.721888 134.15625L29.550013 134.15625L29.550013 135.20312L25.768763 135.20312Q25.112513 135.20312 24.800013 135.32812Q24.487513 135.45312 24.300013 135.76562Q24.096888 136.07812 24.096888 136.5Q24.096888 137.17188 24.534388 137.67188Q24.956263 138.15625 26.143763 138.15625L29.550013 138.15625L29.550013 139.20312ZM28.612513 129.90625L29.534388 129.75Q29.628138 130.20312 29.628138 130.54688Q29.628138 131.125 29.456263 131.4375Q29.268763 131.75 28.971888 131.89062Q28.675013 132.01562 27.721888 132.01562L24.143763 132.01562L24.143763 132.78125L23.331263 132.78125L23.331263 132.01562L21.784388 132.01562L21.159388 130.96875L23.331263 130.96875L23.331263 129.90625L24.143763 129.90625L24.143763 130.96875L27.784388 130.96875Q28.237513 130.96875 28.362513 130.92188Q28.487513 130.85938 28.565638 130.73438Q28.643763 130.60938 28.643763 130.375Q28.643763 130.1875 28.612513 129.90625ZM27.690638 129.625L27.534388 128.59375Q28.159388 128.5 28.487513 128.10938Q28.815638 127.703125 28.815638 126.96875Q28.815638 126.25 28.534388 125.90625Q28.237513 125.546875 27.831263 125.546875Q27.471888 125.546875 27.268763 125.859375Q27.128138 126.078125 26.909388 126.9375Q26.612513 128.09375 26.409388 128.54688Q26.190638 128.98438 25.815638 129.21875Q25.440638 129.45312 24.971888 129.45312Q24.565638 129.45312 24.206263 129.26562Q23.846888 129.07812 23.612513 128.75Q23.440638 128.5 23.315638 128.07812Q23.190638 127.65625 23.190638 127.15625Q23.190638 126.4375 23.409388 125.890625Q23.612513 125.328125 23.971888 125.0625Q24.331263 124.796875 24.925013 124.703125L25.065638 125.734375Q24.596888 125.796875 24.331263 126.140625Q24.050013 126.46875 24.050013 127.09375Q24.050013 127.8125 24.300013 128.125Q24.534388 128.4375 24.862513 128.4375Q25.065638 128.4375 25.221888 128.3125Q25.393763 128.17188 25.503138 127.90625Q25.565638 127.75 25.768763 126.96875Q26.081263 125.84375 26.268763 125.40625Q26.456263 124.96875 26.815638 124.71875Q27.175013 124.46875 27.721888 124.46875Q28.253138 124.46875 28.721888 124.78125Q29.175013 125.078125 29.440638 125.65625Q29.690638 126.234375 29.690638 126.96875Q29.690638 128.1875 29.190638 128.82812Q28.675013 129.45312 27.690638 129.625ZM29.550013 118.0625L23.331263 119.96875L23.331263 118.875L26.925013 117.890625L28.253138 117.515625Q28.159388 117.484375 26.971888 117.1875L23.331263 116.203125L23.331263 115.125L26.940638 114.1875L28.128138 113.875L26.925013 113.515625L23.331263 112.453125L23.331263 111.421875L29.550013 113.375L29.550013 114.46875L25.815638 115.453125L24.768763 115.703125L29.550013 116.953125L29.550013 118.0625ZM22.175013 110.203125L20.956263 110.203125L20.956263 109.140625L22.175013 109.140625L22.175013 110.203125ZM29.550013 110.203125L23.331263 110.203125L23.331263 109.140625L29.550013 109.140625L29.550013 110.203125ZM28.612513 104.90625L29.534388 104.75Q29.628138 105.203125 29.628138 105.546875Q29.628138 106.125 29.456263 106.4375Q29.268763 106.75 28.971888 106.890625Q28.675013 107.015625 27.721888 107.015625L24.143763 107.015625L24.143763 107.78125L23.331263 107.78125L23.331263 107.015625L21.784388 107.015625L21.159388 105.96875L23.331263 105.96875L23.331263 104.90625L24.143763 104.90625L24.143763 105.96875L27.784388 105.96875Q28.237513 105.96875 28.362513 105.921875Q28.487513 105.859375 28.565638 105.734375Q28.643763 105.609375 28.643763 105.375Q28.643763 105.1875 28.612513 104.90625ZM29.550013 104.203125L20.956263 104.203125L20.956263 103.15625L24.034388 103.15625Q23.190638 102.421875 23.190638 101.296875Q23.190638 100.59375 23.471888 100.09375Q23.737513 99.578125 24.221888 99.359375Q24.690638 99.140625 25.612513 99.140625L29.550013 99.140625L29.550013 100.1875L25.612513 100.1875Q24.815638 100.1875 24.456263 100.53125Q24.096888 100.875 24.096888 101.5Q24.096888 101.96875 24.346888 102.390625Q24.581263 102.796875 25.003138 102.984375Q25.409388 103.15625 26.143763 103.15625L29.550013 103.15625L29.550013 104.203125ZM29.550013 94.015625L20.956263 94.015625L20.956263 88.21875L21.971888 88.21875L21.971888 92.875L24.628138 92.875L24.628138 88.84375L25.643763 88.84375L25.643763 92.875L29.550013 92.875L29.550013 94.015625ZM29.550013 87.078125L20.956263 87.078125L20.956263 83.828125Q20.956263 82.984375 21.034388 82.53125Q21.143763 81.890625 21.440638 81.46875Q21.737513 81.03125 22.268763 80.78125Q22.800013 80.515625 23.440638 80.515625Q24.534388 80.515625 25.300013 81.21875Q26.050013 81.90625 26.050013 83.734375L26.050013 85.9375L29.550013 85.9375L29.550013 87.078125ZM25.050013 85.9375L25.050013 83.71875Q25.050013 82.609375 24.643763 82.15625Q24.221888 81.6875 23.471888 81.6875Q22.940638 81.6875 22.565638 81.96875Q22.175013 82.234375 22.050013 82.671875Q21.971888 82.96875 21.971888 83.734375L21.971888 85.9375L25.050013 85.9375ZM29.550013 79.109375L20.956263 79.109375L20.956263 77.390625L27.034388 75.359375Q27.893763 75.078125 28.315638 74.953125Q27.846888 74.8125 26.940638 74.5L20.956263 72.4375L20.956263 70.90625L29.550013 70.90625L29.550013 72.0L22.362513 72.0L29.550013 74.5L29.550013 75.53125L22.237513 78.015625L29.550013 78.015625L29.550013 79.109375ZM29.550013 70.03125L20.956263 70.03125L20.956263 68.90625L24.487513 68.90625L24.487513 64.4375L20.956263 64.4375L20.956263 63.296875L29.550013 63.296875L29.550013 64.4375L25.503138 64.4375L25.503138 68.90625L29.550013 68.90625L29.550013 70.03125Z" fill-rule="nonzero"/><path fill="#000000" d="M58.05 300.21564Q58.05 298.6844 58.3625 297.7625Q58.675 296.825 59.284374 296.325Q59.909374 295.825 60.846874 295.825Q61.534374 295.825 62.05 296.10626Q62.58125 296.3875 62.925 296.91876Q63.26875 297.4344 63.45625 298.1844Q63.64375 298.9344 63.64375 300.21564Q63.64375 301.73126 63.33125 302.65314Q63.034374 303.575 62.409374 304.09064Q61.8 304.59064 60.846874 304.59064Q59.6125 304.59064 58.89375 303.7Q58.05 302.6375 58.05 300.21564ZM59.128124 300.21564Q59.128124 302.325 59.628124 303.02814Q60.128124 303.73126 60.846874 303.73126Q61.58125 303.73126 62.065624 303.02814Q62.565624 302.325 62.565624 300.21564Q62.565624 298.09064 62.065624 297.40314Q61.58125 296.7 60.83125 296.7Q60.1125 296.7 59.675 297.3094Q59.128124 298.09064 59.128124 300.21564ZM65.64375 304.45L65.64375 303.2469L66.84688 303.2469L66.84688 304.45L65.64375 304.45ZM68.05 300.21564Q68.05 298.6844 68.3625 297.7625Q68.675 296.825 69.28438 296.325Q69.90938 295.825 70.84688 295.825Q71.53438 295.825 72.05 296.10626Q72.58125 296.3875 72.925 296.91876Q73.26875 297.4344 73.45625 298.1844Q73.64375 298.9344 73.64375 300.21564Q73.64375 301.73126 73.33125 302.65314Q73.03438 303.575 72.40938 304.09064Q71.8 304.59064 70.84688 304.59064Q69.6125 304.59064 68.89375 303.7Q68.05 302.6375 68.05 300.21564ZM69.12813 300.21564Q69.12813 302.325 69.62813 303.02814Q70.12813 303.73126 70.84688 303.73126Q71.58125 303.73126 72.06563 303.02814Q72.56563 302.325 72.56563 300.21564Q72.56563 298.09064 72.06563 297.40314Q71.58125 296.7 70.83125 296.7Q70.1125 296.7 69.675 297.3094Q69.12813 298.09064 69.12813 300.21564ZM75.05 300.21564Q75.05 298.6844 75.3625 297.7625Q75.675 296.825 76.28438 296.325Q76.90938 295.825 77.84688 295.825Q78.53438 295.825 79.05 296.10626Q79.58125 296.3875 79.925 296.91876Q80.26875 297.4344 80.45625 298.1844Q80.64375 298.9344 80.64375 300.21564Q80.64375 301.73126 80.33125 302.65314Q80.03438 303.575 79.40938 304.09064Q78.8 304.59064 77.84688 304.59064Q76.6125 304.59064 75.89375 303.7Q75.05 302.6375 75.05 300.21564ZM76.12813 300.21564Q76.12813 302.325 76.62813 303.02814Q77.12813 303.73126 77.84688 303.73126Q78.58125 303.73126 79.06563 303.02814Q79.56563 302.325 79.56563 300.21564Q79.56563 298.09064 79.06563 297.40314Q78.58125 296.7 77.83125 296.7Q77.1125 296.7 76.675 297.3094Q76.12813 298.09064 76.12813 300.21564ZM82.25313 297.91876Q82.25313 296.9969 82.70625 296.35626Q83.175 295.71564 84.05 295.71564Q84.8625 295.71564 85.39375 296.29376Q85.925 296.8719 85.925 297.98126Q85.925 299.075 85.37813 299.66876Q84.84688 300.2469 84.06563 300.2469Q83.28438 300.2469 82.76875 299.66876Q82.25313 299.09064 82.25313 297.91876ZM84.08125 296.4344Q83.69063 296.4344 83.425 296.77814Q83.175 297.1219 83.175 298.02814Q83.175 298.85626 83.425 299.2Q83.69063 299.52814 84.08125 299.52814Q84.4875 299.52814 84.7375 299.1844Q85.00313 298.84064 85.00313 297.95Q85.00313 297.10626 84.7375 296.77814Q84.47188 296.4344 84.08125 296.4344ZM84.08125 304.7625L88.78438 295.71564L89.64375 295.71564L84.95625 304.7625L84.08125 304.7625ZM87.8 302.4344Q87.8 301.5125 88.25313 300.8719Q88.72188 300.23126 89.6125 300.23126Q90.425 300.23126 90.95625 300.8094Q91.4875 301.3719 91.4875 302.4969Q91.4875 303.59064 90.94063 304.1844Q90.40938 304.7625 89.6125 304.7625Q88.84688 304.7625 88.31563 304.1844Q87.8 303.60626 87.8 302.4344ZM89.64375 300.95Q89.2375 300.95 88.97188 301.29376Q88.72188 301.6375 88.72188 302.54376Q88.72188 303.35626 88.9875 303.7Q89.25313 304.04376 89.64375 304.04376Q90.03438 304.04376 90.3 303.7Q90.56563 303.35626 90.56563 302.45Q90.56563 301.6219 90.3 301.29376Q90.03438 300.95 89.64375 300.95Z" fill-rule="nonzero"/><path fill="#000000" d="M55.01875 212.81667L53.971874 212.81667L53.971874 206.09792Q53.58125 206.45729 52.95625 206.83229Q52.346874 207.19167 51.8625 207.36354L51.8625 206.34792Q52.7375 205.92604 53.39375 205.34792Q54.065624 204.75417 54.346874 204.19167L55.01875 204.19167L55.01875 212.81667ZM58.05 208.58229Q58.05 207.05104 58.3625 206.12917Q58.675 205.19167 59.284374 204.69167Q59.909374 204.19167 60.846874 204.19167Q61.534374 204.19167 62.05 204.47292Q62.58125 204.75417 62.925 205.28542Q63.26875 205.80104 63.45625 206.55104Q63.64375 207.30104 63.64375 208.58229Q63.64375 210.09792 63.33125 211.01979Q63.034374 211.94167 62.409374 212.45729Q61.8 212.95729 60.846874 212.95729Q59.6125 212.95729 58.89375 212.06667Q58.05 211.00417 58.05 208.58229ZM59.128124 208.58229Q59.128124 210.69167 59.628124 211.39479Q60.128124 212.09792 60.846874 212.09792Q61.58125 212.09792 62.065624 211.39479Q62.565624 210.69167 62.565624 208.58229Q62.565624 206.45729 62.065624 205.76979Q61.58125 205.06667 60.83125 205.06667Q60.1125 205.06667 59.675 205.67604Q59.128124 206.45729 59.128124 208.58229ZM65.64375 212.81667L65.64375 211.61354L66.84688 211.61354L66.84688 212.81667L65.64375 212.81667ZM68.05 208.58229Q68.05 207.05104 68.3625 206.12917Q68.675 205.19167 69.28438 204.69167Q69.90938 204.19167 70.84688 204.19167Q71.53438 204.19167 72.05 204.47292Q72.58125 204.75417 72.925 205.28542Q73.26875 205.80104 73.45625 206.55104Q73.64375 207.30104 73.64375 208.58229Q73.64375 210.09792 73.33125 211.01979Q73.03438 211.94167 72.40938 212.45729Q71.8 212.95729 70.84688 212.95729Q69.6125 212.95729 68.89375 212.06667Q68.05 211.00417 68.05 208.58229ZM69.12813 208.58229Q69.12813 210.69167 69.62813 211.39479Q70.12813 212.09792 70.84688 212.09792Q71.58125 212.09792 72.06563 211.39479Q72.56563 210.69167 72.56563 208.58229Q72.56563 206.45729 72.06563 205.76979Q71.58125 205.06667 70.83125 205.06667Q70.1125 205.06667 69.675 205.67604Q69.12813 206.45729 69.12813 208.58229ZM75.05 208.58229Q75.05 207.05104 75.3625 206.12917Q75.675 205.19167 76.28438 204.69167Q76.90938 204.19167 77.84688 204.19167Q78.53438 204.19167 79.05 204.47292Q79.58125 204.75417 79.925 205.28542Q80.26875 205.80104 80.45625 206.55104Q80.64375 207.30104 80.64375 208.58229Q80.64375 210.09792 80.33125 211.01979Q80.03438 211.94167 79.40938 212.45729Q78.8 212.95729 77.84688 212.95729Q76.6125 212.95729 75.89375 212.06667Q75.05 211.00417 75.05 208.58229ZM76.12813 208.58229Q76.12813 210.69167 76.62813 211.39479Q77.12813 212.09792 77.84688 212.09792Q78.58125 212.09792 79.06563 211.39479Q79.56563 210.69167 79.56563 208.58229Q79.56563 206.45729 79.06563 205.76979Q78.58125 205.06667 77.83125 205.06667Q77.1125 205.06667 76.675 205.67604Q76.12813 206.45729 76.12813 208.58229ZM82.25313 206.28542Q82.25313 205.36354 82.70625 204.72292Q83.175 204.08229 84.05 204.08229Q84.8625 204.08229 85.39375 204.66042Q85.925 205.23854 85.925 206.34792Q85.925 207.44167 85.37813 208.03542Q84.84688 208.61354 84.06563 208.61354Q83.28438 208.61354 82.76875 208.03542Q82.25313 207.45729 82.25313 206.28542ZM84.08125 204.80104Q83.69063 204.80104 83.425 205.14479Q83.175 205.48854 83.175 206.39479Q83.175 207.22292 83.425 207.56667Q83.69063 207.89479 84.08125 207.89479Q84.4875 207.89479 84.7375 207.55104Q85.00313 207.20729 85.00313 206.31667Q85.00313 205.47292 84.7375 205.14479Q84.47188 204.80104 84.08125 204.80104ZM84.08125 213.12917L88.78438 204.08229L89.64375 204.08229L84.95625 213.12917L84.08125 213.12917ZM87.8 210.80104Q87.8 209.87917 88.25313 209.23854Q88.72188 208.59792 89.6125 208.59792Q90.425 208.59792 90.95625 209.17604Q91.4875 209.73854 91.4875 210.86354Q91.4875 211.95729 90.94063 212.55104Q90.40938 213.12917 89.6125 213.12917Q88.84688 213.12917 88.31563 212.55104Q87.8 211.97292 87.8 210.80104ZM89.64375 209.31667Q89.2375 209.31667 88.97188 209.66042Q88.72188 210.00417 88.72188 210.91042Q88.72188 211.72292 88.9875 212.06667Q89.25313 212.41042 89.64375 212.41042Q90.03438 212.41042 90.3 212.06667Q90.56563 211.72292 90.56563 210.81667Q90.56563 209.98854 90.3 209.66042Q90.03438 209.31667 89.64375 209.31667Z" fill-rule="nonzero"/><path fill="#000000" d="M56.596874 120.16771L56.596874 121.183334L50.909374 121.183334Q50.909374 120.808334 51.034374 120.44896Q51.253124 119.870834 51.721874 119.308334Q52.20625 118.745834 53.1125 118.01146Q54.51875 116.85521 55.003124 116.183334Q55.503124 115.51146 55.503124 114.91771Q55.503124 114.29271 55.05 113.870834Q54.596874 113.433334 53.878124 113.433334Q53.1125 113.433334 52.659374 113.88646Q52.20625 114.339584 52.190624 115.152084L51.1125 115.04271Q51.221874 113.82396 51.940624 113.19896Q52.675 112.558334 53.909374 112.558334Q55.14375 112.558334 55.8625 113.245834Q56.58125 113.933334 56.58125 114.94896Q56.58125 115.464584 56.3625 115.964584Q56.159374 116.44896 55.659374 117.01146Q55.175 117.558334 54.05 118.51146Q53.096874 119.308334 52.815624 119.60521Q52.55 119.88646 52.378124 120.16771L56.596874 120.16771ZM58.05 116.94896Q58.05 115.41771 58.3625 114.495834Q58.675 113.558334 59.284374 113.058334Q59.909374 112.558334 60.846874 112.558334Q61.534374 112.558334 62.05 112.839584Q62.58125 113.120834 62.925 113.652084Q63.26875 114.16771 63.45625 114.91771Q63.64375 115.66771 63.64375 116.94896Q63.64375 118.464584 63.33125 119.38646Q63.034374 120.308334 62.409374 120.82396Q61.8 121.32396 60.846874 121.32396Q59.6125 121.32396 58.89375 120.433334Q58.05 119.370834 58.05 116.94896ZM59.128124 116.94896Q59.128124 119.058334 59.628124 119.76146Q60.128124 120.464584 60.846874 120.464584Q61.58125 120.464584 62.065624 119.76146Q62.565624 119.058334 62.565624 116.94896Q62.565624 114.82396 62.065624 114.13646Q61.58125 113.433334 60.83125 113.433334Q60.1125 113.433334 59.675 114.04271Q59.128124 114.82396 59.128124 116.94896ZM65.64375 121.183334L65.64375 119.98021L66.84688 119.98021L66.84688 121.183334L65.64375 121.183334ZM68.05 116.94896Q68.05 115.41771 68.3625 114.495834Q68.675 113.558334 69.28438 113.058334Q69.90938 112.558334 70.84688 112.558334Q71.53438 112.558334 72.05 112.839584Q72.58125 113.120834 72.925 113.652084Q73.26875 114.16771 73.45625 114.91771Q73.64375 115.66771 73.64375 116.94896Q73.64375 118.464584 73.33125 119.38646Q73.03438 120.308334 72.40938 120.82396Q71.8 121.32396 70.84688 121.32396Q69.6125 121.32396 68.89375 120.433334Q68.05 119.370834 68.05 116.94896ZM69.12813 116.94896Q69.12813 119.058334 69.62813 119.76146Q70.12813 120.464584 70.84688 120.464584Q71.58125 120.464584 72.06563 119.76146Q72.56563 119.058334 72.56563 116.94896Q72.56563 114.82396 72.06563 114.13646Q71.58125 113.433334 70.83125 113.433334Q70.1125 113.433334 69.675 114.04271Q69.12813 114.82396 69.12813 116.94896ZM75.05 116.94896Q75.05 115.41771 75.3625 114.495834Q75.675 113.558334 76.28438 113.058334Q76.90938 112.558334 77.84688 112.558334Q78.53438 112.558334 79.05 112.839584Q79.58125 113.120834 79.925 113.652084Q80.26875 114.16771 80.45625 114.91771Q80.64375 115.66771 80.64375 116.94896Q80.64375 118.464584 80.33125 119.38646Q80.03438 120.308334 79.40938 120.82396Q78.8 121.32396 77.84688 121.32396Q76.6125 121.32396 75.89375 120.433334Q75.05 119.370834 75.05 116.94896ZM76.12813 116.94896Q76.12813 119.058334 76.62813 119.76146Q77.12813 120.464584 77.84688 120.464584Q78.58125 120.464584 79.06563 119.76146Q79.56563 119.058334 79.56563 116.94896Q79.56563 114.82396 79.06563 114.13646Q78.58125 113.433334 77.83125 113.433334Q77.1125 113.433334 76.675 114.04271Q76.12813 114.82396 76.12813 116.94896ZM82.25313 114.652084Q82.25313 113.73021 82.70625 113.089584Q83.175 112.44896 84.05 112.44896Q84.8625 112.44896 85.39375 113.027084Q85.925 113.60521 85.925 114.714584Q85.925 115.808334 85.37813 116.402084Q84.84688 116.98021 84.06563 116.98021Q83.28438 116.98021 82.76875 116.402084Q82.25313 115.82396 82.25313 114.652084ZM84.08125 113.16771Q83.69063 113.16771 83.425 113.51146Q83.175 113.85521 83.175 114.76146Q83.175 115.589584 83.425 115.933334Q83.69063 116.26146 84.08125 116.26146Q84.4875 116.26146 84.7375 115.91771Q85.00313 115.57396 85.00313 114.683334Q85.00313 113.839584 84.7375 113.51146Q84.47188 113.16771 84.08125 113.16771ZM84.08125 121.495834L88.78438 112.44896L89.64375 112.44896L84.95625 121.495834L84.08125 121.495834ZM87.8 119.16771Q87.8 118.245834 88.25313 117.60521Q88.72188 116.964584 89.6125 116.964584Q90.425 116.964584 90.95625 117.54271Q91.4875 118.10521 91.4875 119.23021Q91.4875 120.32396 90.94063 120.91771Q90.40938 121.495834 89.6125 121.495834Q88.84688 121.495834 88.31563 120.91771Q87.8 120.339584 87.8 119.16771ZM89.64375 117.683334Q89.2375 117.683334 88.97188 118.027084Q88.72188 118.370834 88.72188 119.277084Q88.72188 120.089584 88.9875 120.433334Q89.25313 120.777084 89.64375 120.777084Q90.03438 120.777084 90.3 120.433334Q90.56563 120.089584 90.56563 119.183334Q90.56563 118.35521 90.3 118.027084Q90.03438 117.683334 89.64375 117.683334Z" fill-rule="nonzero"/><path fill="#000000" d="M51.05 27.284374L52.1125 27.14375Q52.284374 28.034374 52.721874 28.440624Q53.159374 28.83125 53.784374 28.83125Q54.534374 28.83125 55.05 28.315624Q55.565624 27.8 55.565624 27.034374Q55.565624 26.315624 55.08125 25.846874Q54.6125 25.3625 53.878124 25.3625Q53.58125 25.3625 53.128124 25.4875L53.253124 24.55Q53.3625 24.565624 53.425 24.565624Q54.096874 24.565624 54.628124 24.221874Q55.175 23.8625 55.175 23.128124Q55.175 22.55 54.784374 22.175Q54.39375 21.784374 53.76875 21.784374Q53.159374 21.784374 52.7375 22.175Q52.33125 22.565624 52.221874 23.33125L51.159374 23.14375Q51.346874 22.096874 52.034374 21.51875Q52.721874 20.925 53.7375 20.925Q54.440624 20.925 55.034374 21.2375Q55.628124 21.534374 55.940624 22.05Q56.253124 22.565624 56.253124 23.159374Q56.253124 23.70625 55.95625 24.175Q55.659374 24.628124 55.08125 24.89375Q55.83125 25.065624 56.253124 25.628124Q56.675 26.175 56.675 27.01875Q56.675 28.14375 55.846874 28.925Q55.034374 29.70625 53.784374 29.70625Q52.659374 29.70625 51.909374 29.034374Q51.159374 28.346874 51.05 27.284374ZM58.05 25.315624Q58.05 23.784374 58.3625 22.8625Q58.675 21.925 59.284374 21.425Q59.909374 20.925 60.846874 20.925Q61.534374 20.925 62.05 21.20625Q62.58125 21.4875 62.925 22.01875Q63.26875 22.534374 63.45625 23.284374Q63.64375 24.034374 63.64375 25.315624Q63.64375 26.83125 63.33125 27.753124Q63.034374 28.675 62.409374 29.190624Q61.8 29.690624 60.846874 29.690624Q59.6125 29.690624 58.89375 28.8Q58.05 27.7375 58.05 25.315624ZM59.128124 25.315624Q59.128124 27.425 59.628124 28.128124Q60.128124 28.83125 60.846874 28.83125Q61.58125 28.83125 62.065624 28.128124Q62.565624 27.425 62.565624 25.315624Q62.565624 23.190624 62.065624 22.503124Q61.58125 21.8 60.83125 21.8Q60.1125 21.8 59.675 22.409374Q59.128124 23.190624 59.128124 25.315624ZM65.64375 29.55L65.64375 28.346874L66.84688 28.346874L66.84688 29.55L65.64375 29.55ZM68.05 25.315624Q68.05 23.784374 68.3625 22.8625Q68.675 21.925 69.28438 21.425Q69.90938 20.925 70.84688 20.925Q71.53438 20.925 72.05 21.20625Q72.58125 21.4875 72.925 22.01875Q73.26875 22.534374 73.45625 23.284374Q73.64375 24.034374 73.64375 25.315624Q73.64375 26.83125 73.33125 27.753124Q73.03438 28.675 72.40938 29.190624Q71.8 29.690624 70.84688 29.690624Q69.6125 29.690624 68.89375 28.8Q68.05 27.7375 68.05 25.315624ZM69.12813 25.315624Q69.12813 27.425 69.62813 28.128124Q70.12813 28.83125 70.84688 28.83125Q71.58125 28.83125 72.06563 28.128124Q72.56563 27.425 72.56563 25.315624Q72.56563 23.190624 72.06563 22.503124Q71.58125 21.8 70.83125 21.8Q70.1125 21.8 69.675 22.409374Q69.12813 23.190624 69.12813 25.315624ZM75.05 25.315624Q75.05 23.784374 75.3625 22.8625Q75.675 21.925 76.28438 21.425Q76.90938 20.925 77.84688 20.925Q78.53438 20.925 79.05 21.20625Q79.58125 21.4875 79.925 22.01875Q80.26875 22.534374 80.45625 23.284374Q80.64375 24.034374 80.64375 25.315624Q80.64375 26.83125 80.33125 27.753124Q80.03438 28.675 79.40938 29.190624Q78.8 29.690624 77.84688 29.690624Q76.6125 29.690624 75.89375 28.8Q75.05 27.7375 75.05 25.315624ZM76.12813 25.315624Q76.12813 27.425 76.62813 28.128124Q77.12813 28.83125 77.84688 28.83125Q78.58125 28.83125 79.06563 28.128124Q79.56563 27.425 79.56563 25.315624Q79.56563 23.190624 79.06563 22.503124Q78.58125 21.8 77.83125 21.8Q77.1125 21.8 76.675 22.409374Q76.12813 23.190624 76.12813 25.315624ZM82.25313 23.01875Q82.25313 22.096874 82.70625 21.45625Q83.175 20.815624 84.05 20.815624Q84.8625 20.815624 85.39375 21.39375Q85.925 21.971874 85.925 23.08125Q85.925 24.175 85.37813 24.76875Q84.84688 25.346874 84.06563 25.346874Q83.28438 25.346874 82.76875 24.76875Q82.25313 24.190624 82.25313 23.01875ZM84.08125 21.534374Q83.69063 21.534374 83.425 21.878124Q83.175 22.221874 83.175 23.128124Q83.175 23.95625 83.425 24.3Q83.69063 24.628124 84.08125 24.628124Q84.4875 24.628124 84.7375 24.284374Q85.00313 23.940624 85.00313 23.05Q85.00313 22.20625 84.7375 21.878124Q84.47188 21.534374 84.08125 21.534374ZM84.08125 29.8625L88.78438 20.815624L89.64375 20.815624L84.95625 29.8625L84.08125 29.8625ZM87.8 27.534374Q87.8 26.6125 88.25313 25.971874Q88.72188 25.33125 89.6125 25.33125Q90.425 25.33125 90.95625 25.909374Q91.4875 26.471874 91.4875 27.596874Q91.4875 28.690624 90.94063 29.284374Q90.40938 29.8625 89.6125 29.8625Q88.84688 29.8625 88.31563 29.284374Q87.8 28.70625 87.8 27.534374ZM89.64375 26.05Q89.2375 26.05 88.97188 26.39375Q88.72188 26.7375 88.72188 27.64375Q88.72188 28.45625 88.9875 28.8Q89.25313 29.14375 89.64375 29.14375Q90.03438 29.14375 90.3 28.8Q90.56563 28.45625 90.56563 27.55Q90.56563 26.721874 90.3 26.39375Q90.03438 26.05 89.64375 26.05Z" fill-rule="nonzero"/><path fill="#000000" d="M203.6772 317.45L203.6772 308.85626L204.83345 308.85626L209.34908 315.60626L209.34908 308.85626L210.44283 308.85626L210.44283 317.45L209.27095 317.45L204.75533 310.7L204.75533 317.45L203.6772 317.45ZM212.16158 314.34064Q212.16158 312.60626 213.1147 311.77814Q213.91158 311.09064 215.06783 311.09064Q216.34908 311.09064 217.16158 311.9344Q217.9897 312.7625 217.9897 314.2469Q217.9897 315.45 217.63033 316.1375Q217.27095 316.825 216.56783 317.21564Q215.88033 317.59064 215.06783 317.59064Q213.77095 317.59064 212.95845 316.7625Q212.16158 315.91876 212.16158 314.34064ZM213.2397 314.34064Q213.2397 315.52814 213.75533 316.1219Q214.28658 316.71564 215.06783 316.71564Q215.8647 316.71564 216.38033 316.1219Q216.89595 315.52814 216.89595 314.3094Q216.89595 313.15314 216.3647 312.5594Q215.84908 311.96564 215.06783 311.96564Q214.28658 311.96564 213.75533 312.5594Q213.2397 313.1375 213.2397 314.34064ZM219.5522 317.45L219.5522 311.23126L220.4897 311.23126L220.4897 312.10626Q221.1772 311.09064 222.47408 311.09064Q223.03658 311.09064 223.50533 311.29376Q223.9897 311.4969 224.22408 311.825Q224.45845 312.15314 224.5522 312.59064Q224.59908 312.8875 224.59908 313.6219L224.59908 317.45L223.5522 317.45L223.5522 313.66876Q223.5522 313.0125 223.4272 312.7Q223.3022 312.3875 222.9897 312.2Q222.6772 311.9969 222.25533 311.9969Q221.58345 311.9969 221.08345 312.4344Q220.59908 312.85626 220.59908 314.04376L220.59908 317.45L219.5522 317.45ZM226.13033 314.8719L226.13033 313.8094L229.38033 313.8094L229.38033 314.8719L226.13033 314.8719ZM230.13033 315.59064L231.16158 315.4344Q231.25533 316.0594 231.64595 316.3875Q232.0522 316.71564 232.78658 316.71564Q233.50533 316.71564 233.84908 316.4344Q234.20845 316.1375 234.20845 315.73126Q234.20845 315.3719 233.89595 315.16876Q233.6772 315.02814 232.81783 314.8094Q231.66158 314.5125 231.20845 314.3094Q230.77095 314.09064 230.53658 313.71564Q230.3022 313.34064 230.3022 312.8719Q230.3022 312.46564 230.4897 312.10626Q230.6772 311.7469 231.00533 311.5125Q231.25533 311.34064 231.6772 311.21564Q232.09908 311.09064 232.59908 311.09064Q233.31783 311.09064 233.8647 311.3094Q234.4272 311.5125 234.69283 311.8719Q234.95845 312.23126 235.0522 312.825L234.02095 312.96564Q233.95845 312.4969 233.6147 312.23126Q233.28658 311.95 232.66158 311.95Q231.94283 311.95 231.63033 312.2Q231.31783 312.4344 231.31783 312.7625Q231.31783 312.96564 231.44283 313.1219Q231.58345 313.29376 231.84908 313.40314Q232.00533 313.46564 232.78658 313.66876Q233.91158 313.98126 234.34908 314.16876Q234.78658 314.35626 235.03658 314.71564Q235.28658 315.075 235.28658 315.6219Q235.28658 316.15314 234.97408 316.6219Q234.6772 317.075 234.09908 317.34064Q233.52095 317.59064 232.78658 317.59064Q231.56783 317.59064 230.9272 317.09064Q230.3022 316.575 230.13033 315.59064ZM237.5522 317.45L237.5522 311.23126L238.4897 311.23126L238.4897 312.10626Q238.78658 311.6375 239.27095 311.3719Q239.75533 311.09064 240.38033 311.09064Q241.06783 311.09064 241.50533 311.3719Q241.95845 311.65314 242.13033 312.16876Q242.88033 311.09064 244.0522 311.09064Q244.9897 311.09064 245.47408 311.60626Q245.97408 312.10626 245.97408 313.1844L245.97408 317.45L244.9272 317.45L244.9272 313.52814Q244.9272 312.90314 244.81783 312.6219Q244.72408 312.34064 244.45845 312.16876Q244.19283 311.9969 243.81783 311.9969Q243.16158 311.9969 242.72408 312.4344Q242.3022 312.8719 242.3022 313.84064L242.3022 317.45L241.2397 317.45L241.2397 313.40314Q241.2397 312.7 240.97408 312.35626Q240.72408 311.9969 240.14595 311.9969Q239.69283 311.9969 239.31783 312.23126Q238.94283 312.46564 238.77095 312.91876Q238.59908 313.3719 238.59908 314.21564L238.59908 317.45L237.5522 317.45ZM248.16158 314.34064Q248.16158 312.60626 249.1147 311.77814Q249.91158 311.09064 251.06783 311.09064Q252.34908 311.09064 253.16158 311.9344Q253.9897 312.7625 253.9897 314.2469Q253.9897 315.45 253.63033 316.1375Q253.27095 316.825 252.56783 317.21564Q251.88033 317.59064 251.06783 317.59064Q249.77095 317.59064 248.95845 316.7625Q248.16158 315.91876 248.16158 314.34064ZM249.2397 314.34064Q249.2397 315.52814 249.75533 316.1219Q250.28658 316.71564 251.06783 316.71564Q251.8647 316.71564 252.38033 316.1219Q252.89595 315.52814 252.89595 314.3094Q252.89595 313.15314 252.3647 312.5594Q251.84908 311.96564 251.06783 311.96564Q250.28658 311.96564 249.75533 312.5594Q249.2397 313.1375 249.2397 314.34064ZM255.5522 317.45L255.5522 308.85626L256.6147 308.85626L256.6147 313.7625L259.09906 311.23126L260.47406 311.23126L258.08344 313.52814L260.70844 317.45L259.41156 317.45L257.34906 314.2625L256.6147 314.98126L256.6147 317.45L255.5522 317.45ZM265.8022 315.45L266.89594 315.575Q266.64594 316.52814 265.9428 317.0594Q265.2397 317.59064 264.16156 317.59064Q262.8022 317.59064 261.9897 316.7469Q261.1928 315.90314 261.1928 314.3875Q261.1928 312.825 262.0053 311.96564Q262.8178 311.09064 264.09906 311.09064Q265.34906 311.09064 266.1303 311.9344Q266.9272 312.77814 266.9272 314.325Q266.9272 314.41876 266.9272 314.60626L262.28656 314.60626Q262.34906 315.6375 262.8647 316.1844Q263.3803 316.71564 264.16156 316.71564Q264.7397 316.71564 265.14594 316.41876Q265.5678 316.10626 265.8022 315.45ZM262.34906 313.7469L265.8178 313.7469Q265.7553 312.95 265.4272 312.5594Q264.91156 311.95 264.1147 311.95Q263.3803 311.95 262.8803 312.4344Q262.39594 312.91876 262.34906 313.7469ZM268.53656 317.45L268.53656 311.23126L269.4897 311.23126L269.4897 312.16876Q269.84906 311.5125 270.14594 311.3094Q270.45844 311.09064 270.83344 311.09064Q271.3647 311.09064 271.91156 311.41876L271.5522 312.40314Q271.16156 312.16876 270.78656 312.16876Q270.4272 312.16876 270.14594 312.3875Q269.8803 312.59064 269.77094 312.96564Q269.58344 313.52814 269.58344 314.1844L269.58344 317.45L268.53656 317.45Z" fill-rule="nonzero"/><path fill="#000000" d="M421.79156 314.6844L422.85406 314.59064Q422.9322 315.2469 423.21344 315.65314Q423.4947 316.0594 424.0728 316.325Q424.66656 316.575 425.40094 316.575Q426.04156 316.575 426.54156 316.3875Q427.04156 316.1844 427.27594 315.85626Q427.52594 315.5125 427.52594 315.1219Q427.52594 314.71564 427.29156 314.41876Q427.0572 314.10626 426.52594 313.90314Q426.16656 313.7625 424.97906 313.48126Q423.8072 313.2 423.33844 312.95Q422.71344 312.6219 422.41656 312.15314Q422.1197 311.66876 422.1197 311.075Q422.1197 310.4344 422.47906 309.8719Q422.85406 309.29376 423.5572 309.0125Q424.27594 308.71564 425.1353 308.71564Q426.08844 308.71564 426.8228 309.02814Q427.5572 309.325 427.9478 309.9344Q428.33844 310.52814 428.3697 311.27814L427.27594 311.35626Q427.1822 310.54376 426.66656 310.1375Q426.16656 309.71564 425.1822 309.71564Q424.15094 309.71564 423.6822 310.09064Q423.21344 310.46564 423.21344 310.9969Q423.21344 311.46564 423.54156 311.7625Q423.8697 312.0594 425.2447 312.3719Q426.6353 312.6844 427.15094 312.91876Q427.90094 313.27814 428.2603 313.8094Q428.6197 314.325 428.6197 315.02814Q428.6197 315.71564 428.22906 316.325Q427.83844 316.91876 427.10406 317.2625Q426.3697 317.59064 425.4478 317.59064Q424.27594 317.59064 423.47906 317.2625Q422.6978 316.91876 422.2447 316.23126Q421.8072 315.54376 421.79156 314.6844ZM430.04156 317.45L430.04156 311.23126L430.97906 311.23126L430.97906 312.10626Q431.27594 311.6375 431.7603 311.3719Q432.2447 311.09064 432.8697 311.09064Q433.5572 311.09064 433.9947 311.3719Q434.4478 311.65314 434.6197 312.16876Q435.3697 311.09064 436.54156 311.09064Q437.47906 311.09064 437.96344 311.60626Q438.46344 312.10626 438.46344 313.1844L438.46344 317.45L437.41656 317.45L437.41656 313.52814Q437.41656 312.90314 437.3072 312.6219Q437.21344 312.34064 436.9478 312.16876Q436.6822 311.9969 436.3072 311.9969Q435.65094 311.9969 435.21344 312.4344Q434.79156 312.8719 434.79156 313.84064L434.79156 317.45L433.72906 317.45L433.72906 313.40314Q433.72906 312.7 433.46344 312.35626Q433.21344 311.9969 432.6353 311.9969Q432.1822 311.9969 431.8072 312.23126Q431.4322 312.46564 431.2603 312.91876Q431.08844 313.3719 431.08844 314.21564L431.08844 317.45L430.04156 317.45ZM440.65094 314.34064Q440.65094 312.60626 441.60406 311.77814Q442.40094 311.09064 443.5572 311.09064Q444.83844 311.09064 445.65094 311.9344Q446.47906 312.7625 446.47906 314.2469Q446.47906 315.45 446.1197 316.1375Q445.7603 316.825 445.0572 317.21564Q444.3697 317.59064 443.5572 317.59064Q442.2603 317.59064 441.4478 316.7625Q440.65094 315.91876 440.65094 314.34064ZM441.72906 314.34064Q441.72906 315.52814 442.2447 316.1219Q442.77594 316.71564 443.5572 316.71564Q444.35406 316.71564 444.8697 316.1219Q445.3853 315.52814 445.3853 314.3094Q445.3853 313.15314 444.85406 312.5594Q444.33844 311.96564 443.5572 311.96564Q442.77594 311.96564 442.2447 312.5594Q441.72906 313.1375 441.72906 314.34064ZM448.04156 317.45L448.04156 308.85626L449.10406 308.85626L449.10406 313.7625L451.58844 311.23126L452.96344 311.23126L450.5728 313.52814L453.1978 317.45L451.90094 317.45L449.83844 314.2625L449.10406 314.98126L449.10406 317.45L448.04156 317.45ZM458.29156 315.45L459.3853 315.575Q459.1353 316.52814 458.4322 317.0594Q457.72906 317.59064 456.65094 317.59064Q455.29156 317.59064 454.47906 316.7469Q453.6822 315.90314 453.6822 314.3875Q453.6822 312.825 454.4947 311.96564Q455.3072 311.09064 456.58844 311.09064Q457.83844 311.09064 458.6197 311.9344Q459.41656 312.77814 459.41656 314.325Q459.41656 314.41876 459.41656 314.60626L454.77594 314.60626Q454.83844 315.6375 455.35406 316.1844Q455.8697 316.71564 456.65094 316.71564Q457.22906 316.71564 457.6353 316.41876Q458.0572 316.10626 458.29156 315.45ZM454.83844 313.7469L458.3072 313.7469Q458.2447 312.95 457.91656 312.5594Q457.40094 311.95 456.60406 311.95Q455.8697 311.95 455.3697 312.4344Q454.8853 312.91876 454.83844 313.7469ZM461.02594 317.45L461.02594 311.23126L461.97906 311.23126L461.97906 312.16876Q462.33844 311.5125 462.6353 311.3094Q462.9478 311.09064 463.3228 311.09064Q463.85406 311.09064 464.40094 311.41876L464.04156 312.40314Q463.65094 312.16876 463.27594 312.16876Q462.91656 312.16876 462.6353 312.3875Q462.3697 312.59064 462.2603 312.96564Q462.0728 313.52814 462.0728 314.1844L462.0728 317.45L461.02594 317.45Z" fill-rule="nonzero"/></svg>