<svg version="1.1" viewBox="0.0 0.0 600.0 371.0" fill="none" stroke="none" stroke-linecap="square" stroke-miterlimit="10" width="600" height="371" xmlns:xlink="http://www.w3.org/1999/xlink" xmlns="http://www.w3.org/2000/svg"><path fill="#ffffff" d="M0 0L600.0 0L600.0 371.0L0 371.0L0 0Z" fill-rule="nonzero"/><path stroke="#cccccc" stroke-width="1.0" stroke-linecap="butt" d="M77.5 300.5L581.5 300.5" fill-rule="nonzero"/><path stroke="#333333" stroke-width="1.0" stroke-linecap="butt" d="M77.5 240.5L581.5 240.5" fill-rule="nonzero"/><path stroke="#cccccc" stroke-width="1.0" stroke-linecap="butt" d="M77.5 181.5L581.5 181.5" fill-rule="nonzero"/><path stroke="#cccccc" stroke-width="1.0" stroke-linecap="butt" d="M77.5 121.5L581.5 121.5" fill-rule="nonzero"/><path stroke="#cccccc" stroke-width="1.0" stroke-linecap="butt" d="M77.5 61.5L581.5 61.5" fill-rule="nonzero"/><clipPath id="id_0"><path d="M77.55 61.916668L581.45 61.916668L581.45 300.45L77.55 300.45L77.55 61.916668Z" clip-rule="nonzero"/></clipPath><path stroke="#000000" stroke-width="2.0" stroke-linecap="butt" stroke-opacity="0.0" clip-path="url(#id_0)" d="M119.0 241.0L92.0 241.0L92.0 245.0C92.0 246.10457 92.89543 247.0 94.0 247.0L117.0 247.0C118.10457 247.0 119.0 246.10457 119.0 245.0Z" fill-rule="nonzero"/><path fill="#4285f4" clip-path="url(#id_0)" d="M119.0 241.0L92.0 241.0L92.0 245.0C92.0 246.10457 92.89543 247.0 94.0 247.0L117.0 247.0C118.10457 247.0 119.0 246.10457 119.0 245.0Z" fill-rule="nonzero"/><path stroke="#000000" stroke-width="2.0" stroke-linecap="butt" stroke-opacity="0.0" clip-path="url(#id_0)" d="M160.0 241.0L133.0 241.0L133.0 240.0C133.0 239.44771 133.44771 239.0 134.0 239.0L159.0 239.0C159.55229 239.0 160.0 239.44771 160.0 240.0Z" fill-rule="nonzero"/><path fill="#4285f4" clip-path="url(#id_0)" d="M160.0 241.0L133.0 241.0L133.0 240.0C133.0 239.44771 133.44771 239.0 134.0 239.0L159.0 239.0C159.55229 239.0 160.0 239.44771 160.0 240.0Z" fill-rule="nonzero"/><path stroke="#000000" stroke-width="2.0" stroke-linecap="butt" stroke-opacity="0.0" clip-path="url(#id_0)" d="M201.0 241.0L174.0 241.0L174.0 99.0C174.0 97.89543 174.89543 97.0 176.0 97.0L199.0 97.0C200.10457 97.0 201.0 97.89543 201.0 99.0Z" fill-rule="nonzero"/><path fill="#4285f4" clip-path="url(#id_0)" d="M201.0 241.0L174.0 241.0L174.0 99.0C174.0 97.89543 174.89543 97.0 176.0 97.0L199.0 97.0C200.10457 97.0 201.0 97.89543 201.0 99.0Z" fill-rule="nonzero"/><path stroke="#000000" stroke-width="2.0" stroke-linecap="butt" stroke-opacity="0.0" clip-path="url(#id_0)" d="M241.0 241.0L214.0 241.0L214.0 68.0C214.0 66.89543 214.89543 66.0 216.0 66.0L239.0 66.0C240.10457 66.0 241.0 66.89543 241.0 68.0Z" fill-rule="nonzero"/><path fill="#4285f4" clip-path="url(#id_0)" d="M241.0 241.0L214.0 241.0L214.0 68.0C214.0 66.89543 214.89543 66.0 216.0 66.0L239.0 66.0C240.10457 66.0 241.0 66.89543 241.0 68.0Z" fill-rule="nonzero"/><path stroke="#000000" stroke-width="2.0" stroke-linecap="butt" stroke-opacity="0.0" clip-path="url(#id_0)" d="M282.0 241.0L255.0 241.0L255.0 238.0C255.0 236.89543 255.89543 236.0 257.0 236.0L280.0 236.0C281.10458 236.0 282.0 236.89543 282.0 238.0Z" fill-rule="nonzero"/><path fill="#4285f4" clip-path="url(#id_0)" d="M282.0 241.0L255.0 241.0L255.0 238.0C255.0 236.89543 255.89543 236.0 257.0 236.0L280.0 236.0C281.10458 236.0 282.0 236.89543 282.0 238.0Z" fill-rule="nonzero"/><path stroke="#000000" stroke-width="2.0" stroke-linecap="butt" stroke-opacity="0.0" clip-path="url(#id_0)" d="M323.0 241.0L296.0 241.0L296.0 230.0C296.0 228.89543 296.89542 228.0 298.0 228.0L321.0 228.0C322.10458 228.0 323.0 228.89543 323.0 230.0Z" fill-rule="nonzero"/><path fill="#4285f4" clip-path="url(#id_0)" d="M323.0 241.0L296.0 241.0L296.0 230.0C296.0 228.89543 296.89542 228.0 298.0 228.0L321.0 228.0C322.10458 228.0 323.0 228.89543 323.0 230.0Z" fill-rule="nonzero"/><path stroke="#000000" stroke-width="2.0" stroke-linecap="butt" stroke-opacity="0.0" clip-path="url(#id_0)" d="M364.0 241.0L337.0 241.0L337.0 135.0C337.0 133.89543 337.89542 133.0 339.0 133.0L362.0 133.0C363.10458 133.0 364.0 133.89543 364.0 135.0Z" fill-rule="nonzero"/><path fill="#4285f4" clip-path="url(#id_0)" d="M364.0 241.0L337.0 241.0L337.0 135.0C337.0 133.89543 337.89542 133.0 339.0 133.0L362.0 133.0C363.10458 133.0 364.0 133.89543 364.0 135.0Z" fill-rule="nonzero"/><path stroke="#000000" stroke-width="2.0" stroke-linecap="butt" stroke-opacity="0.0" clip-path="url(#id_0)" d="M405.0 241.0L378.0 241.0L378.0 132.0C378.0 130.89543 378.89542 130.0 380.0 130.0L403.0 130.0C404.10458 130.0 405.0 130.89543 405.0 132.0Z" fill-rule="nonzero"/><path fill="#4285f4" clip-path="url(#id_0)" d="M405.0 241.0L378.0 241.0L378.0 132.0C378.0 130.89543 378.89542 130.0 380.0 130.0L403.0 130.0C404.10458 130.0 405.0 130.89543 405.0 132.0Z" fill-rule="nonzero"/><path stroke="#000000" stroke-width="2.0" stroke-linecap="butt" stroke-opacity="0.0" clip-path="url(#id_0)" d="M446.0 241.0L419.0 241.0L419.0 231.0C419.0 229.89543 419.89542 229.0 421.0 229.0L444.0 229.0C445.10458 229.0 446.0 229.89543 446.0 231.0Z" fill-rule="nonzero"/><path fill="#4285f4" clip-path="url(#id_0)" d="M446.0 241.0L419.0 241.0L419.0 231.0C419.0 229.89543 419.89542 229.0 421.0 229.0L444.0 229.0C445.10458 229.0 446.0 229.89543 446.0 231.0Z" fill-rule="nonzero"/><path stroke="#000000" stroke-width="2.0" stroke-linecap="butt" stroke-opacity="0.0" clip-path="url(#id_0)" d="M486.0 241.0L459.0 241.0L459.0 239.5C459.0 238.67157 459.67157 238.0 460.5 238.0L484.5 238.0C485.32843 238.0 486.0 238.67157 486.0 239.5Z" fill-rule="nonzero"/><path fill="#4285f4" clip-path="url(#id_0)" d="M486.0 241.0L459.0 241.0L459.0 239.5C459.0 238.67157 459.67157 238.0 460.5 238.0L484.5 238.0C485.32843 238.0 486.0 238.67157 486.0 239.5Z" fill-rule="nonzero"/><path stroke="#000000" stroke-width="2.0" stroke-linecap="butt" stroke-opacity="0.0" clip-path="url(#id_0)" d="M527.0 241.0L500.0 241.0L500.0 246.0C500.0 247.10457 500.89542 248.0 502.0 248.0L525.0 248.0C526.10455 248.0 527.0 247.10457 527.0 246.0Z" fill-rule="nonzero"/><path fill="#4285f4" clip-path="url(#id_0)" d="M527.0 241.0L500.0 241.0L500.0 246.0C500.0 247.10457 500.89542 248.0 502.0 248.0L525.0 248.0C526.10455 248.0 527.0 247.10457 527.0 246.0Z" fill-rule="nonzero"/><path stroke="#000000" stroke-width="2.0" stroke-linecap="butt" stroke-opacity="0.0" clip-path="url(#id_0)" d="M568.0 241.0L541.0 241.0L541.0 240.5C541.0 240.22386 541.2239 240.0 541.5 240.0L567.5 240.0C567.7761 240.0 568.0 240.22386 568.0 240.5Z" fill-rule="nonzero"/><path fill="#4285f4" clip-path="url(#id_0)" d="M568.0 241.0L541.0 241.0L541.0 240.5C541.0 240.22386 541.2239 240.0 541.5 240.0L567.5 240.0C567.7761 240.0 568.0 240.22386 568.0 240.5Z" fill-rule="nonzero"/><path fill="#000000" d="M305.04688 346.6844L306.10938 346.59064Q306.1875 347.2469 306.46875 347.65314Q306.75 348.0594 307.32812 348.325Q307.92188 348.575 308.65625 348.575Q309.29688 348.575 309.79688 348.3875Q310.29688 348.1844 310.53125 347.85626Q310.78125 347.5125 310.78125 347.1219Q310.78125 346.71564 310.54688 346.41876Q310.3125 346.10626 309.78125 345.90314Q309.42188 345.7625 308.23438 345.48126Q307.0625 345.2 306.59375 344.95Q305.96875 344.6219 305.67188 344.15314Q305.375 343.66876 305.375 343.075Q305.375 342.4344 305.73438 341.8719Q306.10938 341.29376 306.8125 341.0125Q307.53125 340.71564 308.39062 340.71564Q309.34375 340.71564 310.07812 341.02814Q310.8125 341.325 311.20312 341.9344Q311.59375 342.52814 311.625 343.27814L310.53125 343.35626Q310.4375 342.54376 309.92188 342.1375Q309.42188 341.71564 308.4375 341.71564Q307.40625 341.71564 306.9375 342.09064Q306.46875 342.46564 306.46875 342.9969Q306.46875 343.46564 306.79688 343.7625Q307.125 344.0594 308.5 344.3719Q309.89062 344.6844 310.40625 344.91876Q311.15625 345.27814 311.51562 345.8094Q311.875 346.325 311.875 347.02814Q311.875 347.71564 311.48438 348.325Q311.09375 348.91876 310.35938 349.2625Q309.625 349.59064 308.70312 349.59064Q307.53125 349.59064 306.73438 349.2625Q305.95312 348.91876 305.5 348.23126Q305.0625 347.54376 305.04688 346.6844ZM317.35938 348.6844Q316.76562 349.1844 316.21875 349.3875Q315.6875 349.59064 315.0625 349.59064Q314.03125 349.59064 313.48438 349.09064Q312.9375 348.59064 312.9375 347.8094Q312.9375 347.35626 313.14062 346.98126Q313.34375 346.59064 313.6875 346.3719Q314.03125 346.1375 314.45312 346.02814Q314.75 345.9344 315.39062 345.85626Q316.65625 345.71564 317.26562 345.4969Q317.26562 345.27814 317.26562 345.23126Q317.26562 344.575 316.96875 344.3094Q316.5625 343.96564 315.76562 343.96564Q315.03125 343.96564 314.67188 344.23126Q314.3125 344.48126 314.14062 345.1375L313.10938 344.9969Q313.25 344.34064 313.57812 343.9344Q313.90625 343.52814 314.51562 343.3094Q315.125 343.09064 315.92188 343.09064Q316.71875 343.09064 317.21875 343.27814Q317.71875 343.46564 317.95312 343.7469Q318.1875 344.02814 318.28125 344.46564Q318.32812 344.73126 318.32812 345.4344L318.32812 346.84064Q318.32812 348.3094 318.39062 348.7Q318.46875 349.09064 318.67188 349.45L317.5625 349.45Q317.40625 349.1219 317.35938 348.6844ZM317.26562 346.325Q316.6875 346.5594 315.54688 346.73126Q314.89062 346.825 314.625 346.95Q314.35938 347.0594 314.20312 347.27814Q314.0625 347.4969 314.0625 347.77814Q314.0625 348.2 314.375 348.48126Q314.70312 348.7625 315.3125 348.7625Q315.92188 348.7625 316.39062 348.4969Q316.875 348.23126 317.09375 347.7625Q317.26562 347.40314 317.26562 346.71564L317.26562 346.325ZM320.29688 349.45L320.29688 343.23126L321.23438 343.23126L321.23438 344.10626Q321.53125 343.6375 322.01562 343.3719Q322.5 343.09064 323.125 343.09064Q323.8125 343.09064 324.25 343.3719Q324.70312 343.65314 324.875 344.16876Q325.625 343.09064 326.79688 343.09064Q327.73438 343.09064 328.21875 343.60626Q328.71875 344.10626 328.71875 345.1844L328.71875 349.45L327.67188 349.45L327.67188 345.52814Q327.67188 344.90314 327.5625 344.6219Q327.46875 344.34064 327.20312 344.16876Q326.9375 343.9969 326.5625 343.9969Q325.90625 343.9969 325.46875 344.4344Q325.04688 344.8719 325.04688 345.84064L325.04688 349.45L323.98438 349.45L323.98438 345.40314Q323.98438 344.7 323.71875 344.35626Q323.46875 343.9969 322.89062 343.9969Q322.4375 343.9969 322.0625 344.23126Q321.6875 344.46564 321.51562 344.91876Q321.34375 345.3719 321.34375 346.21564L321.34375 349.45L320.29688 349.45ZM331.29688 351.84064L331.29688 343.23126L332.25 343.23126L332.25 344.02814Q332.59375 343.5594 333.01562 343.325Q333.45312 343.09064 334.0625 343.09064Q334.85938 343.09064 335.46875 343.4969Q336.07812 343.90314 336.375 344.65314Q336.6875 345.40314 336.6875 346.29376Q336.6875 347.2469 336.34375 348.0125Q336.01562 348.77814 335.35938 349.1844Q334.70312 349.59064 333.98438 349.59064Q333.45312 349.59064 333.03125 349.3719Q332.60938 349.1375 332.34375 348.8094L332.34375 351.84064L331.29688 351.84064ZM332.25 346.3719Q332.25 347.575 332.73438 348.15314Q333.21875 348.71564 333.90625 348.71564Q334.60938 348.71564 335.10938 348.1219Q335.60938 347.52814 335.60938 346.27814Q335.60938 345.09064 335.125 344.5125Q334.64062 343.91876 333.95312 343.91876Q333.28125 343.91876 332.76562 344.54376Q332.25 345.16876 332.25 346.3719ZM338.26562 349.45L338.26562 340.85626L339.32812 340.85626L339.32812 349.45L338.26562 349.45ZM345.54688 347.45L346.64062 347.575Q346.39062 348.52814 345.6875 349.0594Q344.98438 349.59064 343.90625 349.59064Q342.54688 349.59064 341.73438 348.7469Q340.9375 347.90314 340.9375 346.3875Q340.9375 344.825 341.75 343.96564Q342.5625 343.09064 343.84375 343.09064Q345.09375 343.09064 345.875 343.9344Q346.67188 344.77814 346.67188 346.325Q346.67188 346.41876 346.67188 346.60626L342.03125 346.60626Q342.09375 347.6375 342.60938 348.1844Q343.125 348.71564 343.90625 348.71564Q344.48438 348.71564 344.89062 348.41876Q345.3125 348.10626 345.54688 347.45ZM342.09375 345.7469L345.5625 345.7469Q345.5 344.95 345.17188 344.5594Q344.65625 343.95 343.85938 343.95Q343.125 343.95 342.625 344.4344Q342.14062 344.91876 342.09375 345.7469ZM347.875 347.59064L348.90625 347.4344Q349.0 348.0594 349.39062 348.3875Q349.79688 348.71564 350.53125 348.71564Q351.25 348.71564 351.59375 348.4344Q351.95312 348.1375 351.95312 347.73126Q351.95312 347.3719 351.64062 347.16876Q351.42188 347.02814 350.5625 346.8094Q349.40625 346.5125 348.95312 346.3094Q348.51562 346.09064 348.28125 345.71564Q348.04688 345.34064 348.04688 344.8719Q348.04688 344.46564 348.23438 344.10626Q348.42188 343.7469 348.75 343.5125Q349.0 343.34064 349.42188 343.21564Q349.84375 343.09064 350.34375 343.09064Q351.0625 343.09064 351.60938 343.3094Q352.17188 343.5125 352.4375 343.8719Q352.70312 344.23126 352.79688 344.825L351.76562 344.96564Q351.70312 344.4969 351.35938 344.23126Q351.03125 343.95 350.40625 343.95Q349.6875 343.95 349.375 344.2Q349.0625 344.4344 349.0625 344.7625Q349.0625 344.96564 349.1875 345.1219Q349.32812 345.29376 349.59375 345.40314Q349.75 345.46564 350.53125 345.66876Q351.65625 345.98126 352.09375 346.16876Q352.53125 346.35626 352.78125 346.71564Q353.03125 347.075 353.03125 347.6219Q353.03125 348.15314 352.71875 348.6219Q352.42188 349.075 351.84375 349.34064Q351.26562 349.59064 350.53125 349.59064Q349.3125 349.59064 348.67188 349.09064Q348.04688 348.575 347.875 347.59064Z" fill-rule="nonzero"/><path fill="#000000" d="M23.018763 215.98021Q22.096888 215.98021 21.456263 215.52708Q20.815638 215.05833 20.815638 214.18333Q20.815638 213.37083 21.393763 212.83958Q21.971888 212.30833 23.081263 212.30833Q24.175013 212.30833 24.768763 212.85521Q25.346888 213.38646 25.346888 214.16771Q25.346888 214.94896 24.768763 215.46458Q24.190638 215.98021 23.018763 215.98021ZM21.534388 214.15208Q21.534388 214.54271 21.878138 214.80833Q22.221888 215.05833 23.128138 215.05833Q23.956263 215.05833 24.300013 214.80833Q24.628138 214.54271 24.628138 214.15208Q24.628138 213.74583 24.284388 213.49583Q23.940638 213.23021 23.050013 213.23021Q22.206263 213.23021 21.878138 213.49583Q21.534388 213.76146 21.534388 214.15208ZM29.862513 214.15208L20.815638 209.44896L20.815638 208.58958L29.862513 213.27708L29.862513 214.15208ZM27.534388 210.43333Q26.612513 210.43333 25.971888 209.98021Q25.331263 209.51146 25.331263 208.62083Q25.331263 207.80833 25.909388 207.27708Q26.471888 206.74583 27.596888 206.74583Q28.690638 206.74583 29.284388 207.29271Q29.862513 207.82396 29.862513 208.62083Q29.862513 209.38646 29.284388 209.91771Q28.706263 210.43333 27.534388 210.43333ZM26.050013 208.58958Q26.050013 208.99583 26.393763 209.26146Q26.737513 209.51146 27.643763 209.51146Q28.456263 209.51146 28.800013 209.24583Q29.143763 208.98021 29.143763 208.58958Q29.143763 208.19896 28.800013 207.93333Q28.456263 207.66771 27.550013 207.66771Q26.721888 207.66771 26.393763 207.93333Q26.050013 208.19896 26.050013 208.58958ZM26.534388 195.62083L26.831263 194.49583Q28.221888 194.85521 28.956263 195.77708Q29.690638 196.69896 29.690638 198.04271Q29.690638 199.43333 29.128138 200.30833Q28.565638 201.18333 27.503138 201.63646Q26.425013 202.08958 25.190638 202.08958Q23.846888 202.08958 22.846888 201.57396Q21.846888 201.05833 21.331263 200.12083Q20.815638 199.16771 20.815638 198.02708Q20.815638 196.74583 21.471888 195.87083Q22.128138 194.98021 23.315638 194.63646L23.581263 195.76146Q22.643763 196.05833 22.221888 196.63646Q21.784388 197.19896 21.784388 198.05833Q21.784388 199.04271 22.268763 199.71458Q22.737513 200.37083 23.534388 200.65208Q24.331263 200.91771 25.190638 200.91771Q26.284388 200.91771 27.096888 200.60521Q27.909388 200.27708 28.315638 199.60521Q28.721888 198.93333 28.721888 198.13646Q28.721888 197.18333 28.175013 196.52708Q27.628138 195.85521 26.534388 195.62083ZM29.550013 192.88646L20.956263 192.88646L20.956263 191.83958L24.034388 191.83958Q23.190638 191.10521 23.190638 189.98021Q23.190638 189.27708 23.471888 188.77708Q23.737513 188.26146 24.221888 188.04271Q24.690638 187.82396 25.612513 187.82396L29.550013 187.82396L29.550013 188.87083L25.612513 188.87083Q24.815638 188.87083 24.456263 189.21458Q24.096888 189.55833 24.096888 190.18333Q24.096888 190.65208 24.346888 191.07396Q24.581263 191.48021 25.003138 191.66771Q25.409388 191.83958 26.143763 191.83958L29.550013 191.83958L29.550013 192.88646ZM28.784388 181.82396Q29.284388 182.41771 29.487513 182.96458Q29.690638 183.49583 29.690638 184.12083Q29.690638 185.15208 29.190638 185.69896Q28.690638 186.24583 27.909388 186.24583Q27.456263 186.24583 27.081263 186.04271Q26.690638 185.83958 26.471888 185.49583Q26.237513 185.15208 26.128138 184.73021Q26.034388 184.43333 25.956263 183.79271Q25.815638 182.52708 25.596888 181.91771Q25.378138 181.91771 25.331263 181.91771Q24.675013 181.91771 24.409388 182.21458Q24.065638 182.62083 24.065638 183.41771Q24.065638 184.15208 24.331263 184.51146Q24.581263 184.87083 25.237513 185.04271L25.096888 186.07396Q24.440638 185.93333 24.034388 185.60521Q23.628138 185.27708 23.409388 184.66771Q23.190638 184.05833 23.190638 183.26146Q23.190638 182.46458 23.378138 181.96458Q23.565638 181.46458 23.846888 181.23021Q24.128138 180.99583 24.565638 180.90208Q24.831263 180.85521 25.534388 180.85521L26.940638 180.85521Q28.409388 180.85521 28.800013 180.79271Q29.190638 180.71458 29.550013 180.51146L29.550013 181.62083Q29.221888 181.77708 28.784388 181.82396ZM26.425013 181.91771Q26.659388 182.49583 26.831263 183.63646Q26.925013 184.29271 27.050013 184.55833Q27.159388 184.82396 27.378138 184.98021Q27.596888 185.12083 27.878138 185.12083Q28.300013 185.12083 28.581263 184.80833Q28.862513 184.48021 28.862513 183.87083Q28.862513 183.26146 28.596888 182.79271Q28.331263 182.30833 27.862513 182.08958Q27.503138 181.91771 26.815638 181.91771L26.425013 181.91771ZM29.550013 178.88646L23.331263 178.88646L23.331263 177.94896L24.206263 177.94896Q23.190638 177.26146 23.190638 175.96458Q23.190638 175.40208 23.393763 174.93333Q23.596888 174.44896 23.925013 174.21458Q24.253138 173.98021 24.690638 173.88646Q24.987513 173.83958 25.721888 173.83958L29.550013 173.83958L29.550013 174.88646L25.768763 174.88646Q25.112513 174.88646 24.800013 175.01146Q24.487513 175.13646 24.300013 175.44896Q24.096888 175.76146 24.096888 176.18333Q24.096888 176.85521 24.534388 177.35521Q24.956263 177.83958 26.143763 177.83958L29.550013 177.83958L29.550013 178.88646ZM30.065638 172.08958L30.221888 171.05833Q30.690638 170.99583 30.909388 170.69896Q31.206263 170.30833 31.206263 169.63646Q31.206263 168.90208 30.909388 168.51146Q30.612513 168.10521 30.096888 167.96458Q29.768763 167.87083 28.737513 167.88646Q29.550013 168.57396 29.550013 169.60521Q29.550013 170.88646 28.628138 171.58958Q27.690638 172.29271 26.409388 172.29271Q25.518763 172.29271 24.768763 171.98021Q24.003138 171.65208 23.596888 171.04271Q23.190638 170.43333 23.190638 169.60521Q23.190638 168.49583 24.081263 167.77708L23.331263 167.77708L23.331263 166.80833L28.706263 166.80833Q30.159388 166.80833 30.768763 167.10521Q31.378138 167.40208 31.721888 168.04271Q32.08126 168.68333 32.08126 169.62083Q32.08126 170.73021 31.581263 171.41771Q31.081263 172.10521 30.065638 172.08958ZM26.331263 171.21458Q27.550013 171.21458 28.112513 170.73021Q28.675013 170.24583 28.675013 169.51146Q28.675013 168.77708 28.112513 168.29271Q27.550013 167.79271 26.362513 167.79271Q25.221888 167.79271 24.643763 168.30833Q24.065638 168.80833 24.065638 169.52708Q24.065638 170.23021 24.643763 170.73021Q25.206263 171.21458 26.331263 171.21458ZM27.550013 160.63646L27.675013 159.54271Q28.628138 159.79271 29.159388 160.49583Q29.690638 161.19896 29.690638 162.27708Q29.690638 163.63646 28.846888 164.44896Q28.003138 165.24583 26.487513 165.24583Q24.925013 165.24583 24.065638 164.43333Q23.190638 163.62083 23.190638 162.33958Q23.190638 161.08958 24.034388 160.30833Q24.878138 159.51146 26.425013 159.51146Q26.518763 159.51146 26.706263 159.51146L26.706263 164.15208Q27.737513 164.08958 28.284388 163.57396Q28.815638 163.05833 28.815638 162.27708Q28.815638 161.69896 28.518763 161.29271Q28.206263 160.87083 27.550013 160.63646ZM25.846888 164.08958L25.846888 160.62083Q25.050013 160.68333 24.659388 161.01146Q24.050013 161.52708 24.050013 162.32396Q24.050013 163.05833 24.534388 163.55833Q25.018763 164.04271 25.846888 164.08958Z" fill-rule="nonzero"/><path fill="#000000" d="M60.925 301.8719L60.925 300.8094L64.175 300.8094L64.175 301.8719L60.925 301.8719ZM65.05 302.2L66.15938 302.10626Q66.28438 302.91876 66.72188 303.325Q67.175 303.73126 67.81563 303.73126Q68.56563 303.73126 69.09688 303.15314Q69.62813 302.575 69.62813 301.6375Q69.62813 300.73126 69.1125 300.21564Q68.6125 299.6844 67.78438 299.6844Q67.28438 299.6844 66.8625 299.91876Q66.45625 300.15314 66.22188 300.5125L65.2375 300.3875L66.06563 295.98126L70.34688 295.98126L70.34688 296.98126L66.90938 296.98126L66.45625 299.29376Q67.22188 298.7469 68.06563 298.7469Q69.19063 298.7469 69.95625 299.52814Q70.7375 300.3094 70.7375 301.54376Q70.7375 302.7 70.06563 303.5594Q69.2375 304.59064 67.81563 304.59064Q66.64375 304.59064 65.89375 303.9344Q65.15938 303.27814 65.05 302.2Z" fill-rule="nonzero"/><path fill="#000000" d="M65.05 240.58229Q65.05 239.05104 65.3625 238.12917Q65.675 237.19167 66.28438 236.69167Q66.90938 236.19167 67.84688 236.19167Q68.53438 236.19167 69.05 236.47292Q69.58125 236.75417 69.925 237.28542Q70.26875 237.80104 70.45625 238.55104Q70.64375 239.30104 70.64375 240.58229Q70.64375 242.09792 70.33125 243.01979Q70.03438 243.94167 69.40938 244.45729Q68.8 244.95729 67.84688 244.95729Q66.6125 244.95729 65.89375 244.06667Q65.05 243.00417 65.05 240.58229ZM66.12813 240.58229Q66.12813 242.69167 66.62813 243.39479Q67.12813 244.09792 67.84688 244.09792Q68.58125 244.09792 69.06563 243.39479Q69.56563 242.69167 69.56563 240.58229Q69.56563 238.45729 69.06563 237.76979Q68.58125 237.06667 67.83125 237.06667Q67.1125 237.06667 66.675 237.67604Q66.12813 238.45729 66.12813 240.58229Z" fill-rule="nonzero"/><path fill="#000000" d="M65.05 182.93333L66.15938 182.83958Q66.28438 183.65208 66.72188 184.05833Q67.175 184.46458 67.81563 184.46458Q68.56563 184.46458 69.09688 183.88646Q69.62813 183.30833 69.62813 182.37083Q69.62813 181.46458 69.1125 180.94896Q68.6125 180.41771 67.78438 180.41771Q67.28438 180.41771 66.8625 180.65208Q66.45625 180.88646 66.22188 181.24583L65.2375 181.12083L66.06563 176.71458L70.34688 176.71458L70.34688 177.71458L66.90938 177.71458L66.45625 180.02708Q67.22188 179.48021 68.06563 179.48021Q69.19063 179.48021 69.95625 180.26146Q70.7375 181.04271 70.7375 182.27708Q70.7375 183.43333 70.06563 184.29271Q69.2375 185.32396 67.81563 185.32396Q66.64375 185.32396 65.89375 184.66771Q65.15938 184.01146 65.05 182.93333Z" fill-rule="nonzero"/><path fill="#000000" d="M62.01875 125.55L60.971874 125.55L60.971874 118.83125Q60.58125 119.19063 59.95625 119.56563Q59.346874 119.925 58.8625 120.09688L58.8625 119.08125Q59.7375 118.65938 60.39375 118.08125Q61.065624 117.4875 61.346874 116.925L62.01875 116.925L62.01875 125.55ZM65.05 121.31563Q65.05 119.78438 65.3625 118.8625Q65.675 117.925 66.28438 117.425Q66.90938 116.925 67.84688 116.925Q68.53438 116.925 69.05 117.20625Q69.58125 117.4875 69.925 118.01875Q70.26875 118.53438 70.45625 119.28438Q70.64375 120.03438 70.64375 121.31563Q70.64375 122.83125 70.33125 123.75313Q70.03438 124.675 69.40938 125.19063Q68.8 125.69063 67.84688 125.69063Q66.6125 125.69063 65.89375 124.8Q65.05 123.7375 65.05 121.31563ZM66.12813 121.31563Q66.12813 123.425 66.62813 124.12813Q67.12813 124.83125 67.84688 124.83125Q68.58125 124.83125 69.06563 124.12813Q69.56563 123.425 69.56563 121.31563Q69.56563 119.19063 69.06563 118.50313Q68.58125 117.8 67.83125 117.8Q67.1125 117.8 66.675 118.40938Q66.12813 119.19063 66.12813 121.31563Z" fill-rule="nonzero"/><path fill="#000000" d="M62.01875 65.916664L60.971874 65.916664L60.971874 59.197914Q60.58125 59.55729 59.95625 59.93229Q59.346874 60.291664 58.8625 60.46354L58.8625 59.447914Q59.7375 59.02604 60.39375 58.447914Q61.065624 57.854164 61.346874 57.291664L62.01875 57.291664L62.01875 65.916664ZM65.05 63.666664L66.15938 63.572914Q66.28438 64.385414 66.72188 64.791664Q67.175 65.197914 67.81563 65.197914Q68.56563 65.197914 69.09688 64.61979Q69.62813 64.041664 69.62813 63.104164Q69.62813 62.197914 69.1125 61.68229Q68.6125 61.15104 67.78438 61.15104Q67.28438 61.15104 66.8625 61.385414Q66.45625 61.61979 66.22188 61.979164L65.2375 61.854164L66.06563 57.447914L70.34688 57.447914L70.34688 58.447914L66.90938 58.447914L66.45625 60.760414Q67.22188 60.21354 68.06563 60.21354Q69.19063 60.21354 69.95625 60.99479Q70.7375 61.77604 70.7375 63.010414Q70.7375 64.166664 70.06563 65.02604Q69.2375 66.05729 67.81563 66.05729Q66.64375 66.05729 65.89375 65.40104Q65.15938 64.74479 65.05 63.666664Z" fill-rule="nonzero"/><path fill="#000000" d="M91.653595 309.98126L91.653595 308.96564L97.216095 308.96564L97.216095 309.79376Q96.403595 310.66876 95.591095 312.1219Q94.79422 313.5594 94.35672 315.09064Q94.028595 316.16876 93.95047 317.45L92.85672 317.45Q92.872345 316.4344 93.247345 314.9969Q93.63797 313.5594 94.341095 312.23126Q95.059845 310.90314 95.872345 309.98126L91.653595 309.98126ZM99.184845 317.45L99.184845 316.2469L100.38797 316.2469L100.38797 317.45L99.184845 317.45ZM101.591095 315.2L102.70047 315.10626Q102.82547 315.91876 103.26297 316.325Q103.716095 316.73126 104.35672 316.73126Q105.10672 316.73126 105.63797 316.15314Q106.16922 315.575 106.16922 314.6375Q106.16922 313.73126 105.653595 313.21564Q105.153595 312.6844 104.32547 312.6844Q103.82547 312.6844 103.403595 312.91876Q102.997345 313.15314 102.76297 313.5125L101.778595 313.3875L102.60672 308.98126L106.88797 308.98126L106.88797 309.98126L103.45047 309.98126L102.997345 312.29376Q103.76297 311.7469 104.60672 311.7469Q105.73172 311.7469 106.497345 312.52814Q107.278595 313.3094 107.278595 314.54376Q107.278595 315.7 106.60672 316.5594Q105.778595 317.59064 104.35672 317.59064Q103.184845 317.59064 102.434845 316.9344Q101.70047 316.27814 101.591095 315.2ZM108.466095 314.8719L108.466095 313.8094L111.716095 313.8094L111.716095 314.8719L108.466095 314.8719ZM116.559845 317.45L115.51297 317.45L115.51297 310.73126Q115.122345 311.09064 114.497345 311.46564Q113.88797 311.825 113.403595 311.9969L113.403595 310.98126Q114.278595 310.5594 114.934845 309.98126Q115.60672 309.3875 115.88797 308.825L116.559845 308.825L116.559845 317.45Z" fill-rule="nonzero"/><path fill="#000000" d="M132.45522 309.98126L132.45522 308.96564L138.01772 308.96564L138.01772 309.79376Q137.20522 310.66876 136.39272 312.1219Q135.59584 313.5594 135.15834 315.09064Q134.83022 316.16876 134.75209 317.45L133.65834 317.45Q133.67397 316.4344 134.04897 314.9969Q134.43959 313.5594 135.14272 312.23126Q135.86147 310.90314 136.67397 309.98126L132.45522 309.98126ZM139.98647 317.45L139.98647 316.2469L141.18959 316.2469L141.18959 317.45L139.98647 317.45ZM142.39272 315.2L143.50209 315.10626Q143.62709 315.91876 144.06459 316.325Q144.51772 316.73126 145.15834 316.73126Q145.90834 316.73126 146.43959 316.15314Q146.97084 315.575 146.97084 314.6375Q146.97084 313.73126 146.45522 313.21564Q145.95522 312.6844 145.12709 312.6844Q144.62709 312.6844 144.20522 312.91876Q143.79897 313.15314 143.56459 313.5125L142.58022 313.3875L143.40834 308.98126L147.68959 308.98126L147.68959 309.98126L144.25209 309.98126L143.79897 312.29376Q144.56459 311.7469 145.40834 311.7469Q146.53334 311.7469 147.29897 312.52814Q148.08022 313.3094 148.08022 314.54376Q148.08022 315.7 147.40834 316.5594Q146.58022 317.59064 145.15834 317.59064Q143.98647 317.59064 143.23647 316.9344Q142.50209 316.27814 142.39272 315.2ZM149.26772 314.8719L149.26772 313.8094L152.51772 313.8094L152.51772 314.8719L149.26772 314.8719ZM158.93959 316.4344L158.93959 317.45L153.25209 317.45Q153.25209 317.075 153.37709 316.71564Q153.59584 316.1375 154.06459 315.575Q154.54897 315.0125 155.45522 314.27814Q156.86147 313.1219 157.34584 312.45Q157.84584 311.77814 157.84584 311.1844Q157.84584 310.5594 157.39272 310.1375Q156.93959 309.7 156.22084 309.7Q155.45522 309.7 155.00209 310.15314Q154.54897 310.60626 154.53334 311.41876L153.45522 311.3094Q153.56459 310.09064 154.28334 309.46564Q155.01772 308.825 156.25209 308.825Q157.48647 308.825 158.20522 309.5125Q158.92397 310.2 158.92397 311.21564Q158.92397 311.73126 158.70522 312.23126Q158.50209 312.71564 158.00209 313.27814Q157.51772 313.825 156.39272 314.77814Q155.43959 315.575 155.15834 315.8719Q154.89272 316.15314 154.72084 316.4344L158.93959 316.4344Z" fill-rule="nonzero"/><path fill="#000000" d="M169.75684 309.98126L169.75684 308.96564L175.31934 308.96564L175.31934 309.79376Q174.50684 310.66876 173.69434 312.1219Q172.89746 313.5594 172.45996 315.09064Q172.13184 316.16876 172.05371 317.45L170.95996 317.45Q170.97559 316.4344 171.35059 314.9969Q171.74121 313.5594 172.44434 312.23126Q173.16309 310.90314 173.97559 309.98126L169.75684 309.98126ZM177.28809 317.45L177.28809 316.2469L178.49121 316.2469L178.49121 317.45L177.28809 317.45ZM179.69434 315.2L180.80371 315.10626Q180.92871 315.91876 181.36621 316.325Q181.81934 316.73126 182.45996 316.73126Q183.20996 316.73126 183.74121 316.15314Q184.27246 315.575 184.27246 314.6375Q184.27246 313.73126 183.75684 313.21564Q183.25684 312.6844 182.42871 312.6844Q181.92871 312.6844 181.50684 312.91876Q181.10059 313.15314 180.86621 313.5125L179.88184 313.3875L180.70996 308.98126L184.99121 308.98126L184.99121 309.98126L181.55371 309.98126L181.10059 312.29376Q181.86621 311.7469 182.70996 311.7469Q183.83496 311.7469 184.60059 312.52814Q185.38184 313.3094 185.38184 314.54376Q185.38184 315.7 184.70996 316.5594Q183.88184 317.59064 182.45996 317.59064Q181.28809 317.59064 180.53809 316.9344Q179.80371 316.27814 179.69434 315.2ZM191.02246 317.45L191.02246 316.66876Q190.42871 317.59064 189.28809 317.59064Q188.53809 317.59064 187.91309 317.1844Q187.28809 316.7625 186.94434 316.02814Q186.60059 315.29376 186.60059 314.34064Q186.60059 313.41876 186.91309 312.65314Q187.22559 311.8875 187.85059 311.4969Q188.47559 311.09064 189.24121 311.09064Q189.80371 311.09064 190.24121 311.325Q190.67871 311.5594 190.95996 311.9344L190.95996 308.85626L192.00684 308.85626L192.00684 317.45L191.02246 317.45ZM187.69434 314.34064Q187.69434 315.54376 188.19434 316.1375Q188.69434 316.71564 189.38184 316.71564Q190.06934 316.71564 190.55371 316.15314Q191.03809 315.59064 191.03809 314.4344Q191.03809 313.15314 190.53809 312.5594Q190.05371 311.96564 189.33496 311.96564Q188.63184 311.96564 188.16309 312.54376Q187.69434 313.10626 187.69434 314.34064ZM193.56934 314.8719L193.56934 313.8094L196.81934 313.8094L196.81934 314.8719L193.56934 314.8719ZM201.66309 317.45L200.61621 317.45L200.61621 310.73126Q200.22559 311.09064 199.60059 311.46564Q198.99121 311.825 198.50684 311.9969L198.50684 310.98126Q199.38184 310.5594 200.03809 309.98126Q200.70996 309.3875 200.99121 308.825L201.66309 308.825L201.66309 317.45Z" fill-rule="nonzero"/><path fill="#000000" d="M210.55846 309.98126L210.55846 308.96564L216.12096 308.96564L216.12096 309.79376Q215.30846 310.66876 214.49596 312.1219Q213.69908 313.5594 213.26158 315.09064Q212.93346 316.16876 212.85533 317.45L211.76158 317.45Q211.7772 316.4344 212.1522 314.9969Q212.54283 313.5594 213.24596 312.23126Q213.9647 310.90314 214.7772 309.98126L210.55846 309.98126ZM218.0897 317.45L218.0897 316.2469L219.29283 316.2469L219.29283 317.45L218.0897 317.45ZM220.49596 315.2L221.60533 315.10626Q221.73033 315.91876 222.16783 316.325Q222.62096 316.73126 223.26158 316.73126Q224.01158 316.73126 224.54283 316.15314Q225.07408 315.575 225.07408 314.6375Q225.07408 313.73126 224.55846 313.21564Q224.05846 312.6844 223.23033 312.6844Q222.73033 312.6844 222.30846 312.91876Q221.9022 313.15314 221.66783 313.5125L220.68346 313.3875L221.51158 308.98126L225.79283 308.98126L225.79283 309.98126L222.35533 309.98126L221.9022 312.29376Q222.66783 311.7469 223.51158 311.7469Q224.63658 311.7469 225.4022 312.52814Q226.18346 313.3094 226.18346 314.54376Q226.18346 315.7 225.51158 316.5594Q224.68346 317.59064 223.26158 317.59064Q222.0897 317.59064 221.3397 316.9344Q220.60533 316.27814 220.49596 315.2ZM231.82408 317.45L231.82408 316.66876Q231.23033 317.59064 230.0897 317.59064Q229.3397 317.59064 228.7147 317.1844Q228.0897 316.7625 227.74596 316.02814Q227.4022 315.29376 227.4022 314.34064Q227.4022 313.41876 227.7147 312.65314Q228.0272 311.8875 228.6522 311.4969Q229.2772 311.09064 230.04283 311.09064Q230.60533 311.09064 231.04283 311.325Q231.48033 311.5594 231.76158 311.9344L231.76158 308.85626L232.80846 308.85626L232.80846 317.45L231.82408 317.45ZM228.49596 314.34064Q228.49596 315.54376 228.99596 316.1375Q229.49596 316.71564 230.18346 316.71564Q230.87096 316.71564 231.35533 316.15314Q231.8397 315.59064 231.8397 314.4344Q231.8397 313.15314 231.3397 312.5594Q230.85533 311.96564 230.13658 311.96564Q229.43346 311.96564 228.9647 312.54376Q228.49596 313.10626 228.49596 314.34064ZM234.37096 314.8719L234.37096 313.8094L237.62096 313.8094L237.62096 314.8719L234.37096 314.8719ZM244.04283 316.4344L244.04283 317.45L238.35533 317.45Q238.35533 317.075 238.48033 316.71564Q238.69908 316.1375 239.16783 315.575Q239.6522 315.0125 240.55846 314.27814Q241.9647 313.1219 242.44908 312.45Q242.94908 311.77814 242.94908 311.1844Q242.94908 310.5594 242.49596 310.1375Q242.04283 309.7 241.32408 309.7Q240.55846 309.7 240.10533 310.15314Q239.6522 310.60626 239.63658 311.41876L238.55846 311.3094Q238.66783 310.09064 239.38658 309.46564Q240.12096 308.825 241.35533 308.825Q242.5897 308.825 243.30846 309.5125Q244.0272 310.2 244.0272 311.21564Q244.0272 311.73126 243.80846 312.23126Q243.60533 312.71564 243.10533 313.27814Q242.62096 313.825 241.49596 314.77814Q240.54283 315.575 240.26158 315.8719Q239.99596 316.15314 239.82408 316.4344L244.04283 316.4344Z" fill-rule="nonzero"/><path fill="#000000" d="M255.2507 317.45L255.2507 308.85626L261.45383 308.85626L261.45383 309.8719L256.39133 309.8719L256.39133 312.4969L261.14133 312.4969L261.14133 313.5125L256.39133 313.5125L256.39133 316.4344L261.65695 316.4344L261.65695 317.45L255.2507 317.45ZM267.2507 314.075L267.2507 313.075L270.8757 313.0594L270.8757 316.2469Q270.04758 316.91876 269.15695 317.2625Q268.26633 317.59064 267.32883 317.59064Q266.0632 317.59064 265.01633 317.0594Q263.98508 316.5125 263.45383 315.4969Q262.9382 314.46564 262.9382 313.2Q262.9382 311.9344 263.45383 310.85626Q263.98508 309.7625 264.96945 309.2469Q265.95383 308.71564 267.23508 308.71564Q268.17258 308.71564 268.92258 309.0125Q269.67258 309.3094 270.09445 309.85626Q270.53195 310.3875 270.7507 311.2625L269.73508 311.54376Q269.53195 310.8875 269.23508 310.5125Q268.95383 310.1375 268.42258 309.91876Q267.89133 309.6844 267.2507 309.6844Q266.46945 309.6844 265.89133 309.91876Q265.32883 310.15314 264.96945 310.54376Q264.6257 310.9344 264.4382 311.40314Q264.11008 312.2 264.11008 313.1219Q264.11008 314.27814 264.5007 315.0594Q264.90695 315.825 265.65695 316.2Q266.40695 316.575 267.26633 316.575Q268.0007 316.575 268.70383 316.29376Q269.40695 315.9969 269.76633 315.6844L269.76633 314.075L267.2507 314.075ZM271.67258 314.8719L271.67258 313.8094L274.92258 313.8094L274.92258 314.8719L271.67258 314.8719ZM279.76633 317.45L278.71945 317.45L278.71945 310.73126Q278.32883 311.09064 277.70383 311.46564Q277.09445 311.825 276.61008 311.9969L276.61008 310.98126Q277.48508 310.5594 278.14133 309.98126Q278.8132 309.3875 279.09445 308.825L279.76633 308.825L279.76633 317.45Z" fill-rule="nonzero"/><path fill="#000000" d="M296.0523 317.45L296.0523 308.85626L302.25543 308.85626L302.25543 309.8719L297.19293 309.8719L297.19293 312.4969L301.94293 312.4969L301.94293 313.5125L297.19293 313.5125L297.19293 316.4344L302.45856 316.4344L302.45856 317.45L296.0523 317.45ZM308.0523 314.075L308.0523 313.075L311.6773 313.0594L311.6773 316.2469Q310.84918 316.91876 309.95856 317.2625Q309.06793 317.59064 308.13043 317.59064Q306.8648 317.59064 305.81793 317.0594Q304.78668 316.5125 304.25543 315.4969Q303.7398 314.46564 303.7398 313.2Q303.7398 311.9344 304.25543 310.85626Q304.78668 309.7625 305.77106 309.2469Q306.75543 308.71564 308.03668 308.71564Q308.97418 308.71564 309.72418 309.0125Q310.47418 309.3094 310.89606 309.85626Q311.33356 310.3875 311.5523 311.2625L310.53668 311.54376Q310.33356 310.8875 310.03668 310.5125Q309.75543 310.1375 309.22418 309.91876Q308.69293 309.6844 308.0523 309.6844Q307.27106 309.6844 306.69293 309.91876Q306.13043 310.15314 305.77106 310.54376Q305.4273 310.9344 305.2398 311.40314Q304.91168 312.2 304.91168 313.1219Q304.91168 314.27814 305.3023 315.0594Q305.70856 315.825 306.45856 316.2Q307.20856 316.575 308.06793 316.575Q308.8023 316.575 309.50543 316.29376Q310.20856 315.9969 310.56793 315.6844L310.56793 314.075L308.0523 314.075ZM312.47418 314.8719L312.47418 313.8094L315.72418 313.8094L315.72418 314.8719L312.47418 314.8719ZM322.14606 316.4344L322.14606 317.45L316.45856 317.45Q316.45856 317.075 316.58356 316.71564Q316.8023 316.1375 317.27106 315.575Q317.75543 315.0125 318.66168 314.27814Q320.06793 313.1219 320.5523 312.45Q321.0523 311.77814 321.0523 311.1844Q321.0523 310.5594 320.59918 310.1375Q320.14606 309.7 319.4273 309.7Q318.66168 309.7 318.20856 310.15314Q317.75543 310.60626 317.7398 311.41876L316.66168 311.3094Q316.77106 310.09064 317.4898 309.46564Q318.22418 308.825 319.45856 308.825Q320.69293 308.825 321.41168 309.5125Q322.13043 310.2 322.13043 311.21564Q322.13043 311.73126 321.91168 312.23126Q321.70856 312.71564 321.20856 313.27814Q320.72418 313.825 319.59918 314.77814Q318.64606 315.575 318.3648 315.8719Q318.09918 316.15314 317.9273 316.4344L322.14606 316.4344Z" fill-rule="nonzero"/><path fill="#000000" d="M333.35394 317.45L333.35394 308.85626L339.55707 308.85626L339.55707 309.8719L334.49457 309.8719L334.49457 312.4969L339.24457 312.4969L339.24457 313.5125L334.49457 313.5125L334.49457 316.4344L339.7602 316.4344L339.7602 317.45L333.35394 317.45ZM345.35394 314.075L345.35394 313.075L348.97894 313.0594L348.97894 316.2469Q348.15082 316.91876 347.2602 317.2625Q346.36957 317.59064 345.43207 317.59064Q344.16644 317.59064 343.11957 317.0594Q342.08832 316.5125 341.55707 315.4969Q341.04144 314.46564 341.04144 313.2Q341.04144 311.9344 341.55707 310.85626Q342.08832 309.7625 343.0727 309.2469Q344.05707 308.71564 345.33832 308.71564Q346.27582 308.71564 347.02582 309.0125Q347.77582 309.3094 348.1977 309.85626Q348.6352 310.3875 348.85394 311.2625L347.83832 311.54376Q347.6352 310.8875 347.33832 310.5125Q347.05707 310.1375 346.52582 309.91876Q345.99457 309.6844 345.35394 309.6844Q344.5727 309.6844 343.99457 309.91876Q343.43207 310.15314 343.0727 310.54376Q342.72894 310.9344 342.54144 311.40314Q342.21332 312.2 342.21332 313.1219Q342.21332 314.27814 342.60394 315.0594Q343.0102 315.825 343.7602 316.2Q344.5102 316.575 345.36957 316.575Q346.10394 316.575 346.80707 316.29376Q347.5102 315.9969 347.86957 315.6844L347.86957 314.075L345.35394 314.075ZM354.22894 317.45L354.22894 316.66876Q353.6352 317.59064 352.49457 317.59064Q351.74457 317.59064 351.11957 317.1844Q350.49457 316.7625 350.15082 316.02814Q349.80707 315.29376 349.80707 314.34064Q349.80707 313.41876 350.11957 312.65314Q350.43207 311.8875 351.05707 311.4969Q351.68207 311.09064 352.4477 311.09064Q353.0102 311.09064 353.4477 311.325Q353.8852 311.5594 354.16644 311.9344L354.16644 308.85626L355.21332 308.85626L355.21332 317.45L354.22894 317.45ZM350.90082 314.34064Q350.90082 315.54376 351.40082 316.1375Q351.90082 316.71564 352.58832 316.71564Q353.27582 316.71564 353.7602 316.15314Q354.24457 315.59064 354.24457 314.4344Q354.24457 313.15314 353.74457 312.5594Q353.2602 311.96564 352.54144 311.96564Q351.83832 311.96564 351.36957 312.54376Q350.90082 313.10626 350.90082 314.34064ZM356.77582 314.8719L356.77582 313.8094L360.02582 313.8094L360.02582 314.8719L356.77582 314.8719ZM364.86957 317.45L363.8227 317.45L363.8227 310.73126Q363.43207 311.09064 362.80707 311.46564Q362.1977 311.825 361.71332 311.9969L361.71332 310.98126Q362.58832 310.5594 363.24457 309.98126Q363.91644 309.3875 364.1977 308.825L364.86957 308.825L364.86957 317.45Z" fill-rule="nonzero"/><path fill="#000000" d="M374.15555 317.45L374.15555 308.85626L380.35867 308.85626L380.35867 309.8719L375.29617 309.8719L375.29617 312.4969L380.04617 312.4969L380.04617 313.5125L375.29617 313.5125L375.29617 316.4344L380.5618 316.4344L380.5618 317.45L374.15555 317.45ZM386.15555 314.075L386.15555 313.075L389.78055 313.0594L389.78055 316.2469Q388.95242 316.91876 388.0618 317.2625Q387.17117 317.59064 386.23367 317.59064Q384.96805 317.59064 383.92117 317.0594Q382.88992 316.5125 382.35867 315.4969Q381.84305 314.46564 381.84305 313.2Q381.84305 311.9344 382.35867 310.85626Q382.88992 309.7625 383.8743 309.2469Q384.85867 308.71564 386.13992 308.71564Q387.07742 308.71564 387.82742 309.0125Q388.57742 309.3094 388.9993 309.85626Q389.4368 310.3875 389.65555 311.2625L388.63992 311.54376Q388.4368 310.8875 388.13992 310.5125Q387.85867 310.1375 387.32742 309.91876Q386.79617 309.6844 386.15555 309.6844Q385.3743 309.6844 384.79617 309.91876Q384.23367 310.15314 383.8743 310.54376Q383.53055 310.9344 383.34305 311.40314Q383.01492 312.2 383.01492 313.1219Q383.01492 314.27814 383.40555 315.0594Q383.8118 315.825 384.5618 316.2Q385.3118 316.575 386.17117 316.575Q386.90555 316.575 387.60867 316.29376Q388.3118 315.9969 388.67117 315.6844L388.67117 314.075L386.15555 314.075ZM395.03055 317.45L395.03055 316.66876Q394.4368 317.59064 393.29617 317.59064Q392.54617 317.59064 391.92117 317.1844Q391.29617 316.7625 390.95242 316.02814Q390.60867 315.29376 390.60867 314.34064Q390.60867 313.41876 390.92117 312.65314Q391.23367 311.8875 391.85867 311.4969Q392.48367 311.09064 393.2493 311.09064Q393.8118 311.09064 394.2493 311.325Q394.6868 311.5594 394.96805 311.9344L394.96805 308.85626L396.01492 308.85626L396.01492 317.45L395.03055 317.45ZM391.70242 314.34064Q391.70242 315.54376 392.20242 316.1375Q392.70242 316.71564 393.38992 316.71564Q394.07742 316.71564 394.5618 316.15314Q395.04617 315.59064 395.04617 314.4344Q395.04617 313.15314 394.54617 312.5594Q394.0618 311.96564 393.34305 311.96564Q392.63992 311.96564 392.17117 312.54376Q391.70242 313.10626 391.70242 314.34064ZM397.57742 314.8719L397.57742 313.8094L400.82742 313.8094L400.82742 314.8719L397.57742 314.8719ZM407.2493 316.4344L407.2493 317.45L401.5618 317.45Q401.5618 317.075 401.6868 316.71564Q401.90555 316.1375 402.3743 315.575Q402.85867 315.0125 403.76492 314.27814Q405.17117 313.1219 405.65555 312.45Q406.15555 311.77814 406.15555 311.1844Q406.15555 310.5594 405.70242 310.1375Q405.2493 309.7 404.53055 309.7Q403.76492 309.7 403.3118 310.15314Q402.85867 310.60626 402.84305 311.41876L401.76492 311.3094Q401.8743 310.09064 402.59305 309.46564Q403.32742 308.825 404.5618 308.825Q405.79617 308.825 406.51492 309.5125Q407.23367 310.2 407.23367 311.21564Q407.23367 311.73126 407.01492 312.23126Q406.8118 312.71564 406.3118 313.27814Q405.82742 313.825 404.70242 314.77814Q403.7493 315.575 403.46805 315.8719Q403.20242 316.15314 403.03055 316.4344L407.2493 316.4344Z" fill-rule="nonzero"/><path fill="#000000" d="M418.06656 309.98126L418.06656 308.96564L423.62906 308.96564L423.62906 309.79376Q422.81656 310.66876 422.00406 312.1219Q421.20718 313.5594 420.76968 315.09064Q420.44156 316.16876 420.36343 317.45L419.26968 317.45Q419.2853 316.4344 419.6603 314.9969Q420.05093 313.5594 420.75406 312.23126Q421.4728 310.90314 422.2853 309.98126L418.06656 309.98126ZM425.5978 317.45L425.5978 316.2469L426.80093 316.2469L426.80093 317.45L425.5978 317.45ZM428.00406 313.21564Q428.00406 311.6844 428.31656 310.7625Q428.62906 309.825 429.23843 309.325Q429.86343 308.825 430.80093 308.825Q431.48843 308.825 432.00406 309.10626Q432.5353 309.3875 432.87906 309.91876Q433.2228 310.4344 433.4103 311.1844Q433.5978 311.9344 433.5978 313.21564Q433.5978 314.73126 433.2853 315.65314Q432.98843 316.575 432.36343 317.09064Q431.75406 317.59064 430.80093 317.59064Q429.56656 317.59064 428.8478 316.7Q428.00406 315.6375 428.00406 313.21564ZM429.08218 313.21564Q429.08218 315.325 429.58218 316.02814Q430.08218 316.73126 430.80093 316.73126Q431.5353 316.73126 432.01968 316.02814Q432.51968 315.325 432.51968 313.21564Q432.51968 311.09064 432.01968 310.40314Q431.5353 309.7 430.7853 309.7Q430.06656 309.7 429.62906 310.3094Q429.08218 311.09064 429.08218 313.21564ZM434.87906 314.8719L434.87906 313.8094L438.12906 313.8094L438.12906 314.8719L434.87906 314.8719ZM442.9728 317.45L441.92593 317.45L441.92593 310.73126Q441.5353 311.09064 440.9103 311.46564Q440.30093 311.825 439.81656 311.9969L439.81656 310.98126Q440.69156 310.5594 441.3478 309.98126Q442.01968 309.3875 442.30093 308.825L442.9728 308.825L442.9728 317.45Z" fill-rule="nonzero"/><path fill="#000000" d="M458.86816 309.98126L458.86816 308.96564L464.43066 308.96564L464.43066 309.79376Q463.61816 310.66876 462.80566 312.1219Q462.0088 313.5594 461.5713 315.09064Q461.24316 316.16876 461.16504 317.45L460.0713 317.45Q460.0869 316.4344 460.4619 314.9969Q460.85254 313.5594 461.55566 312.23126Q462.2744 310.90314 463.0869 309.98126L458.86816 309.98126ZM466.3994 317.45L466.3994 316.2469L467.60254 316.2469L467.60254 317.45L466.3994 317.45ZM468.80566 313.21564Q468.80566 311.6844 469.11816 310.7625Q469.43066 309.825 470.04004 309.325Q470.66504 308.825 471.60254 308.825Q472.29004 308.825 472.80566 309.10626Q473.3369 309.3875 473.68066 309.91876Q474.0244 310.4344 474.2119 311.1844Q474.3994 311.9344 474.3994 313.21564Q474.3994 314.73126 474.0869 315.65314Q473.79004 316.575 473.16504 317.09064Q472.55566 317.59064 471.60254 317.59064Q470.36816 317.59064 469.6494 316.7Q468.80566 315.6375 468.80566 313.21564ZM469.8838 313.21564Q469.8838 315.325 470.3838 316.02814Q470.8838 316.73126 471.60254 316.73126Q472.3369 316.73126 472.8213 316.02814Q473.3213 315.325 473.3213 313.21564Q473.3213 311.09064 472.8213 310.40314Q472.3369 309.7 471.5869 309.7Q470.86816 309.7 470.43066 310.3094Q469.8838 311.09064 469.8838 313.21564ZM475.68066 314.8719L475.68066 313.8094L478.93066 313.8094L478.93066 314.8719L475.68066 314.8719ZM485.35254 316.4344L485.35254 317.45L479.66504 317.45Q479.66504 317.075 479.79004 316.71564Q480.0088 316.1375 480.47754 315.575Q480.9619 315.0125 481.86816 314.27814Q483.2744 313.1219 483.7588 312.45Q484.2588 311.77814 484.2588 311.1844Q484.2588 310.5594 483.80566 310.1375Q483.35254 309.7 482.6338 309.7Q481.86816 309.7 481.41504 310.15314Q480.9619 310.60626 480.9463 311.41876L479.86816 311.3094Q479.97754 310.09064 480.6963 309.46564Q481.43066 308.825 482.66504 308.825Q483.8994 308.825 484.61816 309.5125Q485.3369 310.2 485.3369 311.21564Q485.3369 311.73126 485.11816 312.23126Q484.91504 312.71564 484.41504 313.27814Q483.93066 313.825 482.80566 314.77814Q481.85254 315.575 481.5713 315.8719Q481.30566 316.15314 481.1338 316.4344L485.35254 316.4344Z" fill-rule="nonzero"/><path fill="#000000" d="M501.2323 312.79376Q500.57605 312.54376 500.24792 312.10626Q499.93542 311.65314 499.93542 311.04376Q499.93542 310.10626 500.6073 309.46564Q501.2948 308.825 502.40417 308.825Q503.52917 308.825 504.21667 309.48126Q504.90417 310.1375 504.90417 311.075Q504.90417 311.66876 504.59167 312.10626Q504.27917 312.54376 503.63855 312.79376Q504.43542 313.04376 504.84167 313.6219Q505.24792 314.2 505.24792 314.9969Q505.24792 316.09064 504.46667 316.84064Q503.70105 317.59064 502.4198 317.59064Q501.15417 317.59064 500.37292 316.84064Q499.59167 316.09064 499.59167 314.96564Q499.59167 314.1219 500.01355 313.5594Q500.45105 312.9969 501.2323 312.79376ZM501.01355 310.9969Q501.01355 311.60626 501.40417 311.9969Q501.81042 312.3875 502.43542 312.3875Q503.0448 312.3875 503.43542 312.0125Q503.82605 311.6219 503.82605 311.0594Q503.82605 310.48126 503.4198 310.09064Q503.01355 309.6844 502.4198 309.6844Q501.81042 309.6844 501.40417 310.075Q501.01355 310.46564 501.01355 310.9969ZM500.68542 314.96564Q500.68542 315.41876 500.88855 315.84064Q501.1073 316.2625 501.52917 316.4969Q501.95105 316.73126 502.43542 316.73126Q503.18542 316.73126 503.6698 316.2469Q504.1698 315.7625 504.1698 315.0125Q504.1698 314.2469 503.6698 313.7469Q503.1698 313.2469 502.40417 313.2469Q501.65417 313.2469 501.1698 313.7469Q500.68542 314.23126 500.68542 314.96564ZM507.20105 317.45L507.20105 316.2469L508.40417 316.2469L508.40417 317.45L507.20105 317.45ZM509.6073 313.21564Q509.6073 311.6844 509.9198 310.7625Q510.2323 309.825 510.84167 309.325Q511.46667 308.825 512.4042 308.825Q513.0917 308.825 513.6073 309.10626Q514.13855 309.3875 514.4823 309.91876Q514.82605 310.4344 515.01355 311.1844Q515.20105 311.9344 515.20105 313.21564Q515.20105 314.73126 514.88855 315.65314Q514.5917 316.575 513.9667 317.09064Q513.3573 317.59064 512.4042 317.59064Q511.1698 317.59064 510.45105 316.7Q509.6073 315.6375 509.6073 313.21564ZM510.68542 313.21564Q510.68542 315.325 511.18542 316.02814Q511.68542 316.73126 512.4042 316.73126Q513.13855 316.73126 513.6229 316.02814Q514.1229 315.325 514.1229 313.21564Q514.1229 311.09064 513.6229 310.40314Q513.13855 309.7 512.38855 309.7Q511.6698 309.7 511.2323 310.3094Q510.68542 311.09064 510.68542 313.21564ZM516.4823 314.8719L516.4823 313.8094L519.7323 313.8094L519.7323 314.8719L516.4823 314.8719ZM524.57605 317.45L523.5292 317.45L523.5292 310.73126Q523.13855 311.09064 522.51355 311.46564Q521.9042 311.825 521.4198 311.9969L521.4198 310.98126Q522.2948 310.5594 522.95105 309.98126Q523.6229 309.3875 523.9042 308.825L524.57605 308.825L524.57605 317.45Z" fill-rule="nonzero"/><path fill="#000000" d="M542.03394 312.79376Q541.3777 312.54376 541.04956 312.10626Q540.73706 311.65314 540.73706 311.04376Q540.73706 310.10626 541.40894 309.46564Q542.09644 308.825 543.2058 308.825Q544.3308 308.825 545.0183 309.48126Q545.7058 310.1375 545.7058 311.075Q545.7058 311.66876 545.3933 312.10626Q545.0808 312.54376 544.4402 312.79376Q545.23706 313.04376 545.6433 313.6219Q546.04956 314.2 546.04956 314.9969Q546.04956 316.09064 545.2683 316.84064Q544.5027 317.59064 543.22144 317.59064Q541.9558 317.59064 541.17456 316.84064Q540.3933 316.09064 540.3933 314.96564Q540.3933 314.1219 540.8152 313.5594Q541.2527 312.9969 542.03394 312.79376ZM541.8152 310.9969Q541.8152 311.60626 542.2058 311.9969Q542.61206 312.3875 543.23706 312.3875Q543.84644 312.3875 544.23706 312.0125Q544.6277 311.6219 544.6277 311.0594Q544.6277 310.48126 544.22144 310.09064Q543.8152 309.6844 543.22144 309.6844Q542.61206 309.6844 542.2058 310.075Q541.8152 310.46564 541.8152 310.9969ZM541.48706 314.96564Q541.48706 315.41876 541.6902 315.84064Q541.90894 316.2625 542.3308 316.4969Q542.7527 316.73126 543.23706 316.73126Q543.98706 316.73126 544.47144 316.2469Q544.97144 315.7625 544.97144 315.0125Q544.97144 314.2469 544.47144 313.7469Q543.97144 313.2469 543.2058 313.2469Q542.4558 313.2469 541.97144 313.7469Q541.48706 314.23126 541.48706 314.96564ZM548.0027 317.45L548.0027 316.2469L549.2058 316.2469L549.2058 317.45L548.0027 317.45ZM550.40894 313.21564Q550.40894 311.6844 550.72144 310.7625Q551.03394 309.825 551.6433 309.325Q552.2683 308.825 553.2058 308.825Q553.8933 308.825 554.40894 309.10626Q554.9402 309.3875 555.28394 309.91876Q555.6277 310.4344 555.8152 311.1844Q556.0027 311.9344 556.0027 313.21564Q556.0027 314.73126 555.6902 315.65314Q555.3933 316.575 554.7683 317.09064Q554.15894 317.59064 553.2058 317.59064Q551.97144 317.59064 551.2527 316.7Q550.40894 315.6375 550.40894 313.21564ZM551.48706 313.21564Q551.48706 315.325 551.98706 316.02814Q552.48706 316.73126 553.2058 316.73126Q553.9402 316.73126 554.42456 316.02814Q554.92456 315.325 554.92456 313.21564Q554.92456 311.09064 554.42456 310.40314Q553.9402 309.7 553.1902 309.7Q552.47144 309.7 552.03394 310.3094Q551.48706 311.09064 551.48706 313.21564ZM557.28394 314.8719L557.28394 313.8094L560.53394 313.8094L560.53394 314.8719L557.28394 314.8719ZM566.9558 316.4344L566.9558 317.45L561.2683 317.45Q561.2683 317.075 561.3933 316.71564Q561.61206 316.1375 562.0808 315.575Q562.5652 315.0125 563.47144 314.27814Q564.8777 313.1219 565.36206 312.45Q565.86206 311.77814 565.86206 311.1844Q565.86206 310.5594 565.40894 310.1375Q564.9558 309.7 564.23706 309.7Q563.47144 309.7 563.0183 310.15314Q562.5652 310.60626 562.54956 311.41876L561.47144 311.3094Q561.5808 310.09064 562.29956 309.46564Q563.03394 308.825 564.2683 308.825Q565.5027 308.825 566.22144 309.5125Q566.9402 310.2 566.9402 311.21564Q566.9402 311.73126 566.72144 312.23126Q566.5183 312.71564 566.0183 313.27814Q565.53394 313.825 564.40894 314.77814Q563.4558 315.575 563.17456 315.8719Q562.90894 316.15314 562.73706 316.4344L566.9558 316.4344Z" fill-rule="nonzero"/><path fill="#757575" d="M21.096874 37.55L21.096874 23.2375L26.4875 23.2375Q27.925 23.2375 28.675 23.3625Q29.721874 23.55 30.440624 24.05Q31.159374 24.534374 31.58125 25.425Q32.01875 26.315624 32.01875 27.378124Q32.01875 29.20625 30.846874 30.471874Q29.690624 31.721874 26.659374 31.721874L22.9875 31.721874L22.9875 37.55L21.096874 37.55ZM22.9875 30.034374L26.690624 30.034374Q28.51875 30.034374 29.284374 29.3625Q30.065624 28.675 30.065624 27.425Q30.065624 26.534374 29.6125 25.89375Q29.159374 25.253124 28.425 25.05Q27.940624 24.925 26.64375 24.925L22.9875 24.925L22.9875 30.034374ZM40.971874 34.20625L42.784374 34.440624Q42.3625 36.01875 41.190624 36.909374Q40.034374 37.784374 38.221874 37.784374Q35.95625 37.784374 34.6125 36.39375Q33.284374 34.9875 33.284374 32.45625Q33.284374 29.83125 34.628124 28.39375Q35.971874 26.940624 38.128124 26.940624Q40.20625 26.940624 41.51875 28.3625Q42.846874 29.76875 42.846874 32.346874Q42.846874 32.503124 42.83125 32.815624L35.096874 32.815624Q35.190624 34.51875 36.065624 35.425Q36.940624 36.33125 38.2375 36.33125Q39.20625 36.33125 39.878124 35.83125Q40.565624 35.315624 40.971874 34.20625ZM35.190624 31.3625L40.9875 31.3625Q40.878124 30.065624 40.33125 29.409374Q39.4875 28.39375 38.14375 28.39375Q36.940624 28.39375 36.1125 29.20625Q35.284374 30.003124 35.190624 31.3625ZM44.846874 37.55L44.846874 27.175L46.425 27.175L46.425 28.753124Q47.034374 27.64375 47.55 27.3Q48.065624 26.940624 48.675 26.940624Q49.565624 26.940624 50.4875 27.503124L49.878124 29.14375Q49.2375 28.753124 48.596874 28.753124Q48.01875 28.753124 47.55 29.1125Q47.096874 29.45625 46.89375 30.065624Q46.6125 31.003124 46.6125 32.1125L46.6125 37.55L44.846874 37.55ZM58.64375 33.753124L60.3625 33.971874Q60.08125 35.76875 58.909374 36.784374Q57.753124 37.784374 56.05 37.784374Q53.925 37.784374 52.628124 36.39375Q51.33125 35.003124 51.33125 32.409374Q51.33125 30.721874 51.878124 29.471874Q52.440624 28.20625 53.58125 27.58125Q54.721874 26.940624 56.065624 26.940624Q57.753124 26.940624 58.815624 27.8Q59.89375 28.659374 60.20625 30.221874L58.4875 30.4875Q58.253124 29.440624 57.628124 28.925Q57.003124 28.39375 56.128124 28.39375Q54.8 28.39375 53.971874 29.346874Q53.14375 30.3 53.14375 32.346874Q53.14375 34.440624 53.940624 35.39375Q54.7375 36.33125 56.034374 36.33125Q57.065624 36.33125 57.753124 35.70625Q58.45625 35.065624 58.64375 33.753124ZM68.97188 34.20625L70.78438 34.440624Q70.3625 36.01875 69.19063 36.909374Q68.03438 37.784374 66.22188 37.784374Q63.95625 37.784374 62.6125 36.39375Q61.284374 34.9875 61.284374 32.45625Q61.284374 29.83125 62.628124 28.39375Q63.971874 26.940624 66.12813 26.940624Q68.20625 26.940624 69.51875 28.3625Q70.84688 29.76875 70.84688 32.346874Q70.84688 32.503124 70.83125 32.815624L63.096874 32.815624Q63.190624 34.51875 64.06563 35.425Q64.94063 36.33125 66.2375 36.33125Q67.20625 36.33125 67.87813 35.83125Q68.56563 35.315624 68.97188 34.20625ZM63.190624 31.3625L68.9875 31.3625Q68.87813 30.065624 68.33125 29.409374Q67.4875 28.39375 66.14375 28.39375Q64.94063 28.39375 64.1125 29.20625Q63.284374 30.003124 63.190624 31.3625ZM72.8625 37.55L72.8625 27.175L74.45625 27.175L74.45625 28.659374Q75.59688 26.940624 77.75313 26.940624Q78.69063 26.940624 79.47188 27.284374Q80.26875 27.6125 80.65938 28.159374Q81.05 28.70625 81.20625 29.45625Q81.3 29.95625 81.3 31.175L81.3 37.55L79.53438 37.55L79.53438 31.2375Q79.53438 30.159374 79.33125 29.628124Q79.12813 29.096874 78.59688 28.784374Q78.08125 28.471874 77.37813 28.471874Q76.25313 28.471874 75.44063 29.190624Q74.62813 29.89375 74.62813 31.878124L74.62813 37.55L72.8625 37.55ZM86.70625 35.971874L86.95625 37.534374Q86.22188 37.690624 85.62813 37.690624Q84.675 37.690624 84.14375 37.39375Q83.62813 37.08125 83.40938 36.596874Q83.19063 36.096874 83.19063 34.51875L83.19063 28.55L81.90938 28.55L81.90938 27.175L83.19063 27.175L83.19063 24.6125L84.94063 23.55L84.94063 27.175L86.70625 27.175L86.70625 28.55L84.94063 28.55L84.94063 34.6125Q84.94063 35.3625 85.03438 35.58125Q85.12813 35.784374 85.33125 35.925Q85.55 36.05 85.94063 36.05Q86.22188 36.05 86.70625 35.971874ZM105.31563 32.534374L107.20625 33.003124Q106.6125 35.346874 105.06563 36.58125Q103.51875 37.8 101.26875 37.8Q98.95625 37.8 97.50313 36.8625Q96.06563 35.909374 95.3 34.128124Q94.55 32.33125 94.55 30.284374Q94.55 28.05 95.39375 26.39375Q96.25313 24.721874 97.83125 23.8625Q99.40938 22.9875 101.3 22.9875Q103.45625 22.9875 104.90938 24.08125Q106.37813 25.175 106.95625 27.159374L105.09688 27.596874Q104.59688 26.034374 103.64375 25.33125Q102.70625 24.6125 101.26875 24.6125Q99.6125 24.6125 98.50313 25.409374Q97.39375 26.190624 96.94063 27.534374Q96.50313 28.8625 96.50313 30.26875Q96.50313 32.096874 97.03438 33.471874Q97.56563 34.83125 98.69063 35.503124Q99.81563 36.175 101.1125 36.175Q102.70625 36.175 103.81563 35.253124Q104.925 34.33125 105.31563 32.534374ZM108.8625 37.55L108.8625 23.2375L110.62813 23.2375L110.62813 28.3625Q111.8625 26.940624 113.7375 26.940624Q114.87813 26.940624 115.72188 27.39375Q116.58125 27.846874 116.94063 28.659374Q117.31563 29.45625 117.31563 30.971874L117.31563 37.55L115.56563 37.55L115.56563 30.971874Q115.56563 29.659374 114.9875 29.065624Q114.40938 28.45625 113.37813 28.45625Q112.59688 28.45625 111.89375 28.8625Q111.20625 29.26875 110.90938 29.971874Q110.62813 30.659374 110.62813 31.878124L110.62813 37.55L108.8625 37.55ZM125.64375 36.26875Q124.65938 37.096874 123.75313 37.440624Q122.84688 37.784374 121.81563 37.784374Q120.1125 37.784374 119.19063 36.95625Q118.26875 36.1125 118.26875 34.815624Q118.26875 34.05 118.6125 33.425Q118.97188 32.8 119.53438 32.425Q120.09688 32.034374 120.8 31.83125Q121.31563 31.70625 122.3625 31.565624Q124.4875 31.315624 125.4875 30.971874Q125.50313 30.6125 125.50313 30.503124Q125.50313 29.440624 125.00313 28.9875Q124.33125 28.39375 123.00313 28.39375Q121.75313 28.39375 121.15938 28.83125Q120.58125 29.26875 120.3 30.378124L118.58125 30.14375Q118.81563 29.034374 119.34688 28.3625Q119.87813 27.675 120.89375 27.315624Q121.90938 26.940624 123.25313 26.940624Q124.58125 26.940624 125.40938 27.253124Q126.2375 27.565624 126.62813 28.05Q127.01875 28.51875 127.175 29.2375Q127.26875 29.690624 127.26875 30.8625L127.26875 33.20625Q127.26875 35.659374 127.37813 36.315624Q127.4875 36.95625 127.83125 37.55L125.9875 37.55Q125.72188 37.003124 125.64375 36.26875ZM125.4875 32.346874Q124.53438 32.7375 122.6125 33.003124Q121.53438 33.159374 121.08125 33.3625Q120.64375 33.55 120.39375 33.925Q120.14375 34.3 120.14375 34.76875Q120.14375 35.471874 120.675 35.940624Q121.20625 36.409374 122.2375 36.409374Q123.25313 36.409374 124.03438 35.971874Q124.83125 35.51875 125.20625 34.753124Q125.4875 34.14375 125.4875 32.9875L125.4875 32.346874ZM129.8625 37.55L129.8625 27.175L131.45625 27.175L131.45625 28.659374Q132.59688 26.940624 134.75313 26.940624Q135.69063 26.940624 136.47188 27.284374Q137.26875 27.6125 137.65938 28.159374Q138.05 28.70625 138.20625 29.45625Q138.3 29.95625 138.3 31.175L138.3 37.55L136.53438 37.55L136.53438 31.2375Q136.53438 30.159374 136.33125 29.628124Q136.12813 29.096874 135.59688 28.784374Q135.08125 28.471874 134.37813 28.471874Q133.25313 28.471874 132.44063 29.190624Q131.62813 29.89375 131.62813 31.878124L131.62813 37.55L129.8625 37.55ZM139.55 38.409374L141.25313 38.659374Q141.3625 39.45625 141.84688 39.815624Q142.50313 40.3 143.64375 40.3Q144.8625 40.3 145.51875 39.815624Q146.19063 39.33125 146.425 38.45625Q146.56563 37.909374 146.55 36.190624Q145.39375 37.55 143.675 37.55Q141.53438 37.55 140.3625 36.003124Q139.19063 34.45625 139.19063 32.3Q139.19063 30.815624 139.72188 29.565624Q140.26875 28.315624 141.28438 27.628124Q142.31563 26.940624 143.69063 26.940624Q145.51875 26.940624 146.72188 28.425L146.72188 27.175L148.33125 27.175L148.33125 36.14375Q148.33125 38.565624 147.83125 39.565624Q147.34688 40.58125 146.26875 41.159374Q145.20625 41.753124 143.64375 41.753124Q141.8 41.753124 140.64375 40.925Q139.50313 40.096874 139.55 38.409374ZM141.00313 32.175Q141.00313 34.221874 141.81563 35.159374Q142.62813 36.096874 143.84688 36.096874Q145.05 36.096874 145.8625 35.159374Q146.69063 34.221874 146.69063 32.2375Q146.69063 30.33125 145.84688 29.3625Q145.00313 28.39375 143.81563 28.39375Q142.64375 28.39375 141.81563 29.346874Q141.00313 30.3 141.00313 32.175ZM157.97188 34.20625L159.78438 34.440624Q159.3625 36.01875 158.19063 36.909374Q157.03438 37.784374 155.22188 37.784374Q152.95625 37.784374 151.6125 36.39375Q150.28438 34.9875 150.28438 32.45625Q150.28438 29.83125 151.62813 28.39375Q152.97188 26.940624 155.12813 26.940624Q157.20625 26.940624 158.51875 28.3625Q159.84688 29.76875 159.84688 32.346874Q159.84688 32.503124 159.83125 32.815624L152.09688 32.815624Q152.19063 34.51875 153.06563 35.425Q153.94063 36.33125 155.2375 36.33125Q156.20625 36.33125 156.87813 35.83125Q157.56563 35.315624 157.97188 34.20625ZM152.19063 31.3625L157.9875 31.3625Q157.87813 30.065624 157.33125 29.409374Q156.4875 28.39375 155.14375 28.39375Q153.94063 28.39375 153.1125 29.20625Q152.28438 30.003124 152.19063 31.3625ZM167.87813 25.253124L167.87813 23.2375L169.64375 23.2375L169.64375 25.253124L167.87813 25.253124ZM167.87813 37.55L167.87813 27.175L169.64375 27.175L169.64375 37.55L167.87813 37.55ZM171.8625 37.55L171.8625 27.175L173.45625 27.175L173.45625 28.659374Q174.59688 26.940624 176.75313 26.940624Q177.69063 26.940624 178.47188 27.284374Q179.26875 27.6125 179.65938 28.159374Q180.05 28.70625 180.20625 29.45625Q180.3 29.95625 180.3 31.175L180.3 37.55L178.53438 37.55L178.53438 31.2375Q178.53438 30.159374 178.33125 29.628124Q178.12813 29.096874 177.59688 28.784374Q177.08125 28.471874 176.37813 28.471874Q175.25313 28.471874 174.44063 29.190624Q173.62813 29.89375 173.62813 31.878124L173.62813 37.55L171.8625 37.55ZM188.03438 37.55L188.03438 23.2375L190.89375 23.2375L194.26875 33.3625Q194.7375 34.784374 194.95625 35.4875Q195.20625 34.70625 195.72188 33.190624L199.14375 23.2375L201.69063 23.2375L201.69063 37.55L199.87813 37.55L199.87813 25.565624L195.70625 37.55L194.00313 37.55L189.8625 25.3625L189.8625 37.55L188.03438 37.55ZM211.64375 36.26875Q210.65938 37.096874 209.75313 37.440624Q208.84688 37.784374 207.81563 37.784374Q206.1125 37.784374 205.19063 36.95625Q204.26875 36.1125 204.26875 34.815624Q204.26875 34.05 204.6125 33.425Q204.97188 32.8 205.53438 32.425Q206.09688 32.034374 206.8 31.83125Q207.31563 31.70625 208.3625 31.565624Q210.4875 31.315624 211.4875 30.971874Q211.50313 30.6125 211.50313 30.503124Q211.50313 29.440624 211.00313 28.9875Q210.33125 28.39375 209.00313 28.39375Q207.75313 28.39375 207.15938 28.83125Q206.58125 29.26875 206.3 30.378124L204.58125 30.14375Q204.81563 29.034374 205.34688 28.3625Q205.87813 27.675 206.89375 27.315624Q207.90938 26.940624 209.25313 26.940624Q210.58125 26.940624 211.40938 27.253124Q212.2375 27.565624 212.62813 28.05Q213.01875 28.51875 213.175 29.2375Q213.26875 29.690624 213.26875 30.8625L213.26875 33.20625Q213.26875 35.659374 213.37813 36.315624Q213.4875 36.95625 213.83125 37.55L211.9875 37.55Q211.72188 37.003124 211.64375 36.26875ZM211.4875 32.346874Q210.53438 32.7375 208.6125 33.003124Q207.53438 33.159374 207.08125 33.3625Q206.64375 33.55 206.39375 33.925Q206.14375 34.3 206.14375 34.76875Q206.14375 35.471874 206.675 35.940624Q207.20625 36.409374 208.2375 36.409374Q209.25313 36.409374 210.03438 35.971874Q210.83125 35.51875 211.20625 34.753124Q211.4875 34.14375 211.4875 32.9875L211.4875 32.346874ZM215.15938 34.45625L216.90938 34.175Q217.05 35.221874 217.72188 35.784374Q218.39375 36.33125 219.59688 36.33125Q220.8 36.33125 221.37813 35.846874Q221.97188 35.346874 221.97188 34.690624Q221.97188 34.096874 221.45625 33.753124Q221.09688 33.51875 219.65938 33.159374Q217.72188 32.659374 216.97188 32.315624Q216.2375 31.95625 215.84688 31.33125Q215.45625 30.690624 215.45625 29.925Q215.45625 29.2375 215.76875 28.64375Q216.09688 28.05 216.64375 27.659374Q217.05 27.3625 217.75313 27.159374Q218.47188 26.940624 219.28438 26.940624Q220.50313 26.940624 221.425 27.3Q222.34688 27.64375 222.78438 28.253124Q223.22188 28.846874 223.39375 29.846874L221.675 30.08125Q221.55 29.284374 220.9875 28.846874Q220.425 28.39375 219.40938 28.39375Q218.19063 28.39375 217.675 28.8Q217.15938 29.190624 217.15938 29.721874Q217.15938 30.065624 217.37813 30.346874Q217.58125 30.628124 218.05 30.815624Q218.31563 30.909374 219.59688 31.253124Q221.47188 31.753124 222.20625 32.08125Q222.94063 32.39375 223.3625 33.003124Q223.78438 33.596874 223.78438 34.503124Q223.78438 35.378124 223.26875 36.159374Q222.75313 36.940624 221.78438 37.3625Q220.81563 37.784374 219.59688 37.784374Q217.58125 37.784374 216.51875 36.940624Q215.45625 36.096874 215.15938 34.45625ZM225.15938 34.45625L226.90938 34.175Q227.05 35.221874 227.72188 35.784374Q228.39375 36.33125 229.59688 36.33125Q230.8 36.33125 231.37813 35.846874Q231.97188 35.346874 231.97188 34.690624Q231.97188 34.096874 231.45625 33.753124Q231.09688 33.51875 229.65938 33.159374Q227.72188 32.659374 226.97188 32.315624Q226.2375 31.95625 225.84688 31.33125Q225.45625 30.690624 225.45625 29.925Q225.45625 29.2375 225.76875 28.64375Q226.09688 28.05 226.64375 27.659374Q227.05 27.3625 227.75313 27.159374Q228.47188 26.940624 229.28438 26.940624Q230.50313 26.940624 231.425 27.3Q232.34688 27.64375 232.78438 28.253124Q233.22188 28.846874 233.39375 29.846874L231.675 30.08125Q231.55 29.284374 230.9875 28.846874Q230.425 28.39375 229.40938 28.39375Q228.19063 28.39375 227.675 28.8Q227.15938 29.190624 227.15938 29.721874Q227.15938 30.065624 227.37813 30.346874Q227.58125 30.628124 228.05 30.815624Q228.31563 30.909374 229.59688 31.253124Q231.47188 31.753124 232.20625 32.08125Q232.94063 32.39375 233.3625 33.003124Q233.78438 33.596874 233.78438 34.503124Q233.78438 35.378124 233.26875 36.159374Q232.75313 36.940624 231.78438 37.3625Q230.81563 37.784374 229.59688 37.784374Q227.58125 37.784374 226.51875 36.940624Q225.45625 36.096874 225.15938 34.45625ZM241.39375 33.76875L243.14375 33.534374Q243.45625 35.034374 244.175 35.690624Q244.90938 36.346874 245.95625 36.346874Q247.19063 36.346874 248.03438 35.4875Q248.89375 34.628124 248.89375 33.3625Q248.89375 32.14375 248.09688 31.3625Q247.31563 30.58125 246.09688 30.58125Q245.59688 30.58125 244.8625 30.76875L245.05 29.221874Q245.22188 29.253124 245.33125 29.253124Q246.45625 29.253124 247.34688 28.675Q248.25313 28.08125 248.25313 26.8625Q248.25313 25.89375 247.59688 25.253124Q246.94063 24.6125 245.90938 24.6125Q244.89375 24.6125 244.20625 25.26875Q243.51875 25.909374 243.33125 27.190624L241.56563 26.878124Q241.89375 25.1125 243.03438 24.14375Q244.175 23.175 245.87813 23.175Q247.05 23.175 248.03438 23.675Q249.01875 24.175 249.53438 25.05Q250.06563 25.925 250.06563 26.89375Q250.06563 27.815624 249.56563 28.58125Q249.06563 29.346874 248.09688 29.8Q249.3625 30.08125 250.06563 31.01875Q250.76875 31.940624 250.76875 33.315624Q250.76875 35.190624 249.39375 36.503124Q248.03438 37.8 245.94063 37.8Q244.05 37.8 242.8 36.675Q241.56563 35.55 241.39375 33.76875ZM252.37813 30.4875Q252.37813 27.95625 252.89375 26.409374Q253.425 24.846874 254.45625 24.01875Q255.4875 23.175 257.05 23.175Q258.20624 23.175 259.0656 23.64375Q259.9406 24.096874 260.5031 24.971874Q261.0656 25.846874 261.39374 27.1125Q261.72186 28.3625 261.72186 30.4875Q261.72186 33.003124 261.1906 34.55Q260.675 36.096874 259.64374 36.95625Q258.6281 37.8 257.05 37.8Q254.97188 37.8 253.8 36.315624Q252.37813 34.51875 252.37813 30.4875ZM254.19063 30.4875Q254.19063 34.01875 255.00313 35.190624Q255.83125 36.346874 257.05 36.346874Q258.2531 36.346874 259.08124 35.175Q259.90936 34.003124 259.90936 30.4875Q259.90936 26.95625 259.08124 25.8Q258.2531 24.628124 257.03436 24.628124Q255.81563 24.628124 255.09688 25.659374Q254.19063 26.95625 254.19063 30.4875Z" fill-rule="nonzero"/><path fill="#757575" d="M274.40936 22.471874Q275.26874 23.33125 275.26874 24.503124Q275.26874 25.753124 274.40936 26.6125Q273.55 27.471874 272.3 27.471874Q271.05 27.471874 270.1906 26.6125Q269.33124 25.753124 269.33124 24.503124Q269.33124 23.33125 270.1906 22.471874Q271.05 21.6125 272.3 21.6125Q273.55 21.6125 274.40936 22.471874ZM273.70624 25.909374Q274.33124 25.284374 274.33124 24.503124Q274.33124 23.721874 273.70624 23.096874Q273.08124 22.471874 272.3 22.471874Q271.51874 22.471874 270.89374 23.096874Q270.34686 23.64375 270.34686 24.503124Q270.34686 25.3625 270.89374 25.909374Q271.51874 26.534374 272.3 26.534374Q273.08124 26.534374 273.70624 25.909374ZM275.425 30.675Q275.425 27.39375 277.3 25.51875Q278.9406 23.878124 281.59686 23.878124Q284.2531 23.878124 285.7375 25.3625Q286.83124 26.45625 287.45624 28.01875L285.34686 28.01875Q284.8781 27.159374 284.2531 26.534374Q283.3156 25.596874 281.59686 25.596874Q279.8781 25.596874 278.78436 26.690624Q277.53436 27.940624 277.53436 30.675Q277.53436 33.33125 278.8625 34.659374Q279.95624 35.753124 281.7531 35.753124Q283.15936 35.753124 284.2531 34.659374Q285.03436 33.878124 285.425 32.628124L287.53436 32.628124Q286.9875 34.58125 285.7375 35.83125Q284.09686 37.471874 281.7531 37.471874Q279.01874 37.471874 277.53436 35.9875Q275.425 33.878124 275.425 30.675Z" fill-rule="nonzero"/></svg>