<svg version="1.1" viewBox="0.0 0.0 600.0 371.0" fill="none" stroke="none" stroke-linecap="square" stroke-miterlimit="10" width="600" height="371" xmlns:xlink="http://www.w3.org/1999/xlink" xmlns="http://www.w3.org/2000/svg"><path fill="#ffffff" d="M0 0L600.0 0L600.0 371.0L0 371.0L0 0Z" fill-rule="nonzero"/><path stroke="#333333" stroke-width="1.0" stroke-linecap="butt" d="M109.5 264.5L581.5 264.5" fill-rule="nonzero"/><path stroke="#cccccc" stroke-width="1.0" stroke-linecap="butt" d="M109.5 233.5L581.5 233.5" fill-rule="nonzero"/><path stroke="#cccccc" stroke-width="1.0" stroke-linecap="butt" d="M109.5 202.5L581.5 202.5" fill-rule="nonzero"/><path stroke="#cccccc" stroke-width="1.0" stroke-linecap="butt" d="M109.5 171.5L581.5 171.5" fill-rule="nonzero"/><path stroke="#cccccc" stroke-width="1.0" stroke-linecap="butt" d="M109.5 140.5L581.5 140.5" fill-rule="nonzero"/><path stroke="#cccccc" stroke-width="1.0" stroke-linecap="butt" d="M109.5 109.5L581.5 109.5" fill-rule="nonzero"/><clipPath id="id_0"><path d="M109.55 109.28333L581.45 109.28333L581.45 264.45L109.55 264.45L109.55 109.28333Z" clip-rule="nonzero"/></clipPath><path stroke="#000000" stroke-width="2.0" stroke-linecap="butt" stroke-opacity="0.0" clip-path="url(#id_0)" d="M307.0 264.0L233.0 264.0L233.0 172.0C233.0 170.89543 233.89543 170.0 235.0 170.0L305.0 170.0C306.10458 170.0 307.0 170.89543 307.0 172.0Z" fill-rule="nonzero"/><path fill="#4285f4" clip-path="url(#id_0)" d="M307.0 264.0L233.0 264.0L233.0 172.0C233.0 170.89543 233.89543 170.0 235.0 170.0L305.0 170.0C306.10458 170.0 307.0 170.89543 307.0 172.0Z" fill-rule="nonzero"/><path stroke="#000000" stroke-width="2.0" stroke-linecap="butt" stroke-opacity="0.0" clip-path="url(#id_0)" d="M383.0 264.0L309.0 264.0L309.0 165.0C309.0 163.89543 309.89542 163.0 311.0 163.0L381.0 163.0C382.10458 163.0 383.0 163.89543 383.0 165.0Z" fill-rule="nonzero"/><path fill="#ea4335" clip-path="url(#id_0)" d="M383.0 264.0L309.0 264.0L309.0 165.0C309.0 163.89543 309.89542 163.0 311.0 163.0L381.0 163.0C382.10458 163.0 383.0 163.89543 383.0 165.0Z" fill-rule="nonzero"/><path stroke="#000000" stroke-width="2.0" stroke-linecap="butt" stroke-opacity="0.0" clip-path="url(#id_0)" d="M459.0 264.0L385.0 264.0L385.0 117.0C385.0 115.89543 385.89542 115.0 387.0 115.0L457.0 115.0C458.10458 115.0 459.0 115.89543 459.0 117.0Z" fill-rule="nonzero"/><path fill="#fbbc04" clip-path="url(#id_0)" d="M459.0 264.0L385.0 264.0L385.0 117.0C385.0 115.89543 385.89542 115.0 387.0 115.0L457.0 115.0C458.10458 115.0 459.0 115.89543 459.0 117.0Z" fill-rule="nonzero"/><path stroke="#a2c3fa" stroke-width="1.0" stroke-linecap="butt" clip-path="url(#id_0)" d="M270.0 191.63838L270.0 147.39969" fill-rule="nonzero"/><path stroke="#a2c3fa" stroke-width="1.0" stroke-linecap="butt" clip-path="url(#id_0)" d="M264.0 191.63838L276.0 191.63838" fill-rule="nonzero"/><path stroke="#a2c3fa" stroke-width="1.0" stroke-linecap="butt" clip-path="url(#id_0)" d="M264.0 147.39969L276.0 147.39969" fill-rule="nonzero"/><path stroke="#f49c94" stroke-width="1.0" stroke-linecap="butt" clip-path="url(#id_0)" d="M346.0 184.50188L346.0 142.43318" fill-rule="nonzero"/><path stroke="#f49c94" stroke-width="1.0" stroke-linecap="butt" clip-path="url(#id_0)" d="M340.0 184.50188L352.0 184.50188" fill-rule="nonzero"/><path stroke="#f49c94" stroke-width="1.0" stroke-linecap="butt" clip-path="url(#id_0)" d="M340.0 142.43318L352.0 142.43318" fill-rule="nonzero"/><path stroke="#a27903" stroke-width="1.0" stroke-linecap="butt" clip-path="url(#id_0)" d="M422.0 118.00622L422.0 111.79451" fill-rule="nonzero"/><path stroke="#a27903" stroke-width="1.0" stroke-linecap="butt" clip-path="url(#id_0)" d="M416.0 118.00622L428.0 118.00622" fill-rule="nonzero"/><path stroke="#a27903" stroke-width="1.0" stroke-linecap="butt" clip-path="url(#id_0)" d="M416.0 111.79451L428.0 111.79451" fill-rule="nonzero"/><path fill="#000000" d="M172.04688 347.45L172.04688 333.1375L177.4375 333.1375Q178.875 333.1375 179.625 333.2625Q180.67188 333.45 181.39062 333.95Q182.10938 334.4344 182.53125 335.325Q182.96875 336.21564 182.96875 337.27814Q182.96875 339.10626 181.79688 340.3719Q180.64062 341.6219 177.60938 341.6219L173.9375 341.6219L173.9375 347.45L172.04688 347.45ZM173.9375 339.9344L177.64062 339.9344Q179.46875 339.9344 180.23438 339.2625Q181.01562 338.575 181.01562 337.325Q181.01562 336.4344 180.5625 335.79376Q180.10938 335.15314 179.375 334.95Q178.89062 334.825 177.59375 334.825L173.9375 334.825L173.9375 339.9344ZM184.82812 335.15314L184.82812 333.1375L186.59375 333.1375L186.59375 335.15314L184.82812 335.15314ZM184.82812 347.45L184.82812 337.075L186.59375 337.075L186.59375 347.45L184.82812 347.45ZM188.8125 347.45L188.8125 337.075L190.40625 337.075L190.40625 338.5594Q191.54688 336.84064 193.70312 336.84064Q194.64062 336.84064 195.42188 337.1844Q196.21875 337.5125 196.60938 338.0594Q197.0 338.60626 197.15625 339.35626Q197.25 339.85626 197.25 341.075L197.25 347.45L195.48438 347.45L195.48438 341.1375Q195.48438 340.0594 195.28125 339.52814Q195.07812 338.9969 194.54688 338.6844Q194.03125 338.3719 193.32812 338.3719Q192.20312 338.3719 191.39062 339.09064Q190.57812 339.79376 190.57812 341.77814L190.57812 347.45L188.8125 347.45ZM205.92188 344.10626L207.73438 344.34064Q207.3125 345.91876 206.14062 346.8094Q204.98438 347.6844 203.17188 347.6844Q200.90625 347.6844 199.5625 346.29376Q198.23438 344.8875 198.23438 342.35626Q198.23438 339.73126 199.57812 338.29376Q200.92188 336.84064 203.07812 336.84064Q205.15625 336.84064 206.46875 338.2625Q207.79688 339.66876 207.79688 342.2469Q207.79688 342.40314 207.78125 342.71564L200.04688 342.71564Q200.14062 344.41876 201.01562 345.325Q201.89062 346.23126 203.1875 346.23126Q204.15625 346.23126 204.82812 345.73126Q205.51562 345.21564 205.92188 344.10626ZM200.14062 341.2625L205.9375 341.2625Q205.82812 339.96564 205.28125 339.3094Q204.4375 338.29376 203.09375 338.29376Q201.89062 338.29376 201.0625 339.10626Q200.23438 339.90314 200.14062 341.2625ZM216.59375 346.16876Q215.60938 346.9969 214.70312 347.34064Q213.79688 347.6844 212.76562 347.6844Q211.0625 347.6844 210.14062 346.85626Q209.21875 346.0125 209.21875 344.71564Q209.21875 343.95 209.5625 343.325Q209.92188 342.7 210.48438 342.325Q211.04688 341.9344 211.75 341.73126Q212.26562 341.60626 213.3125 341.46564Q215.4375 341.21564 216.4375 340.8719Q216.45312 340.5125 216.45312 340.40314Q216.45312 339.34064 215.95312 338.8875Q215.28125 338.29376 213.95312 338.29376Q212.70312 338.29376 212.10938 338.73126Q211.53125 339.16876 211.25 340.27814L209.53125 340.04376Q209.76562 338.9344 210.29688 338.2625Q210.82812 337.575 211.84375 337.21564Q212.85938 336.84064 214.20312 336.84064Q215.53125 336.84064 216.35938 337.15314Q217.1875 337.46564 217.57812 337.95Q217.96875 338.41876 218.125 339.1375Q218.21875 339.59064 218.21875 340.7625L218.21875 343.10626Q218.21875 345.5594 218.32812 346.21564Q218.4375 346.85626 218.78125 347.45L216.9375 347.45Q216.67188 346.90314 216.59375 346.16876ZM216.4375 342.2469Q215.48438 342.6375 213.5625 342.90314Q212.48438 343.0594 212.03125 343.2625Q211.59375 343.45 211.34375 343.825Q211.09375 344.2 211.09375 344.66876Q211.09375 345.3719 211.625 345.84064Q212.15625 346.3094 213.1875 346.3094Q214.20312 346.3094 214.98438 345.8719Q215.78125 345.41876 216.15625 344.65314Q216.4375 344.04376 216.4375 342.8875L216.4375 342.2469ZM220.8125 351.41876L220.8125 337.075L222.42188 337.075L222.42188 338.41876Q222.98438 337.6375 223.6875 337.2469Q224.40625 336.84064 225.42188 336.84064Q226.75 336.84064 227.76562 337.52814Q228.78125 338.21564 229.29688 339.46564Q229.82812 340.7 229.82812 342.1844Q229.82812 343.77814 229.25 345.0594Q228.6875 346.325 227.59375 347.0125Q226.5 347.6844 225.29688 347.6844Q224.42188 347.6844 223.71875 347.3094Q223.03125 346.9344 222.57812 346.3719L222.57812 351.41876L220.8125 351.41876ZM222.40625 342.325Q222.40625 344.325 223.21875 345.27814Q224.03125 346.23126 225.1875 346.23126Q226.35938 346.23126 227.1875 345.2469Q228.03125 344.2625 228.03125 342.16876Q228.03125 340.2 227.20312 339.21564Q226.39062 338.21564 225.26562 338.21564Q224.14062 338.21564 223.26562 339.27814Q222.40625 340.325 222.40625 342.325ZM231.8125 351.41876L231.8125 337.075L233.42188 337.075L233.42188 338.41876Q233.98438 337.6375 234.6875 337.2469Q235.40625 336.84064 236.42188 336.84064Q237.75 336.84064 238.76562 337.52814Q239.78125 338.21564 240.29688 339.46564Q240.82812 340.7 240.82812 342.1844Q240.82812 343.77814 240.25 345.0594Q239.6875 346.325 238.59375 347.0125Q237.5 347.6844 236.29688 347.6844Q235.42188 347.6844 234.71875 347.3094Q234.03125 346.9344 233.57812 346.3719L233.57812 351.41876L231.8125 351.41876ZM233.40625 342.325Q233.40625 344.325 234.21875 345.27814Q235.03125 346.23126 236.1875 346.23126Q237.35938 346.23126 238.1875 345.2469Q239.03125 344.2625 239.03125 342.16876Q239.03125 340.2 238.20312 339.21564Q237.39062 338.21564 236.26562 338.21564Q235.14062 338.21564 234.26562 339.27814Q233.40625 340.325 233.40625 342.325ZM242.78125 347.45L242.78125 333.1375L244.53125 333.1375L244.53125 347.45L242.78125 347.45ZM253.92188 344.10626L255.73438 344.34064Q255.3125 345.91876 254.14062 346.8094Q252.98438 347.6844 251.17188 347.6844Q248.90625 347.6844 247.5625 346.29376Q246.23438 344.8875 246.23438 342.35626Q246.23438 339.73126 247.57812 338.29376Q248.92188 336.84064 251.07812 336.84064Q253.15625 336.84064 254.46875 338.2625Q255.79688 339.66876 255.79688 342.2469Q255.79688 342.40314 255.78125 342.71564L248.04688 342.71564Q248.14062 344.41876 249.01562 345.325Q249.89062 346.23126 251.1875 346.23126Q252.15625 346.23126 252.82812 345.73126Q253.51562 345.21564 253.92188 344.10626ZM248.14062 341.2625L253.9375 341.2625Q253.82812 339.96564 253.28125 339.3094Q252.4375 338.29376 251.09375 338.29376Q249.89062 338.29376 249.0625 339.10626Q248.23438 339.90314 248.14062 341.2625ZM479.40625 342.85626L481.1875 342.7Q481.3125 343.7625 481.76562 344.45Q482.23438 345.1375 483.20312 345.575Q484.1875 345.9969 485.42188 345.9969Q486.5 345.9969 487.32812 345.6844Q488.15625 345.35626 488.5625 344.79376Q488.96875 344.23126 488.96875 343.5594Q488.96875 342.8875 488.57812 342.3875Q488.1875 341.8875 487.29688 341.54376Q486.71875 341.3094 484.73438 340.84064Q482.76562 340.3719 481.98438 339.95Q480.95312 339.41876 480.45312 338.6219Q479.95312 337.825 479.95312 336.84064Q479.95312 335.7469 480.5625 334.8094Q481.17188 333.8719 482.35938 333.3875Q483.54688 332.8875 484.98438 332.8875Q486.57812 332.8875 487.79688 333.40314Q489.01562 333.91876 489.65625 334.91876Q490.3125 335.90314 490.35938 337.16876L488.54688 337.3094Q488.40625 335.95 487.5625 335.2625Q486.71875 334.5594 485.0625 334.5594Q483.34375 334.5594 482.54688 335.2Q481.76562 335.825 481.76562 336.7Q481.76562 337.48126 482.32812 337.98126Q482.875 338.48126 485.1875 338.9969Q487.5 339.5125 488.35938 339.90314Q489.60938 340.48126 490.20312 341.3719Q490.79688 342.2469 490.79688 343.40314Q490.79688 344.54376 490.14062 345.5594Q489.48438 346.575 488.25 347.1375Q487.03125 347.7 485.5 347.7Q483.5625 347.7 482.25 347.1375Q480.9375 346.5594 480.1875 345.41876Q479.4375 344.27814 479.40625 342.85626ZM492.82812 335.15314L492.82812 333.1375L494.59375 333.1375L494.59375 335.15314L492.82812 335.15314ZM492.82812 347.45L492.82812 337.075L494.59375 337.075L494.59375 347.45L492.82812 347.45ZM496.10938 344.35626L497.85938 344.075Q498.0 345.1219 498.67188 345.6844Q499.34375 346.23126 500.54688 346.23126Q501.75 346.23126 502.32812 345.7469Q502.92188 345.2469 502.92188 344.59064Q502.92188 343.9969 502.40625 343.65314Q502.04688 343.41876 500.60938 343.0594Q498.67188 342.5594 497.92188 342.21564Q497.1875 341.85626 496.79688 341.23126Q496.40625 340.59064 496.40625 339.825Q496.40625 339.1375 496.71875 338.54376Q497.04688 337.95 497.59375 337.5594Q498.0 337.2625 498.70312 337.0594Q499.42188 336.84064 500.23438 336.84064Q501.45312 336.84064 502.375 337.2Q503.29688 337.54376 503.73438 338.15314Q504.17188 338.7469 504.34375 339.7469L502.625 339.98126Q502.5 339.1844 501.9375 338.7469Q501.375 338.29376 500.35938 338.29376Q499.14062 338.29376 498.625 338.7Q498.10938 339.09064 498.10938 339.6219Q498.10938 339.96564 498.32812 340.2469Q498.53125 340.52814 499.0 340.71564Q499.26562 340.8094 500.54688 341.15314Q502.42188 341.65314 503.15625 341.98126Q503.89062 342.29376 504.3125 342.90314Q504.73438 343.4969 504.73438 344.40314Q504.73438 345.27814 504.21875 346.0594Q503.70312 346.84064 502.73438 347.2625Q501.76562 347.6844 500.54688 347.6844Q498.53125 347.6844 497.46875 346.84064Q496.40625 345.9969 496.10938 344.35626ZM513.59375 346.16876Q512.6094 346.9969 511.70312 347.34064Q510.79688 347.6844 509.76562 347.6844Q508.0625 347.6844 507.14062 346.85626Q506.21875 346.0125 506.21875 344.71564Q506.21875 343.95 506.5625 343.325Q506.92188 342.7 507.48438 342.325Q508.04688 341.9344 508.75 341.73126Q509.26562 341.60626 510.3125 341.46564Q512.4375 341.21564 513.4375 340.8719Q513.4531 340.5125 513.4531 340.40314Q513.4531 339.34064 512.9531 338.8875Q512.28125 338.29376 510.95312 338.29376Q509.70312 338.29376 509.10938 338.73126Q508.53125 339.16876 508.25 340.27814L506.53125 340.04376Q506.76562 338.9344 507.29688 338.2625Q507.82812 337.575 508.84375 337.21564Q509.85938 336.84064 511.20312 336.84064Q512.53125 336.84064 513.3594 337.15314Q514.1875 337.46564 514.5781 337.95Q514.96875 338.41876 515.125 339.1375Q515.21875 339.59064 515.21875 340.7625L515.21875 343.10626Q515.21875 345.5594 515.3281 346.21564Q515.4375 346.85626 515.78125 347.45L513.9375 347.45Q513.6719 346.90314 513.59375 346.16876ZM513.4375 342.2469Q512.4844 342.6375 510.5625 342.90314Q509.48438 343.0594 509.03125 343.2625Q508.59375 343.45 508.34375 343.825Q508.09375 344.2 508.09375 344.66876Q508.09375 345.3719 508.625 345.84064Q509.15625 346.3094 510.1875 346.3094Q511.20312 346.3094 511.98438 345.8719Q512.78125 345.41876 513.15625 344.65314Q513.4375 344.04376 513.4375 342.8875L513.4375 342.2469ZM517.78125 347.45L517.78125 333.1375L519.53125 333.1375L519.53125 347.45L517.78125 347.45Z" fill-rule="nonzero"/><path fill="#000000" d="M40.55001 281.39792L23.362513 274.80417L23.362513 272.35104L40.55001 265.3198L40.55001 267.91354L35.346886 269.91354L35.346886 277.10104L40.55001 278.99167L40.55001 281.39792ZM33.48751 276.4448L33.48751 270.61667L28.737513 272.41354Q26.565638 273.22604 25.175013 273.6323Q26.831263 273.96042 28.456263 274.55417L33.48751 276.4448ZM40.55001 262.83542L40.55001 264.78854L23.362513 264.78854L23.362513 262.67917L29.503138 262.67917Q27.815638 261.35104 27.815638 259.27292Q27.815638 258.1323 28.284388 257.10104Q28.753138 256.0698 29.596888 255.41354Q30.425013 254.7573 31.612513 254.3823Q32.784386 254.0073 34.14376 254.0073Q37.33126 254.0073 39.08126 255.58542Q40.83126 257.16354 40.83126 259.3823Q40.83126 261.58542 38.98751 262.83542L40.55001 262.83542ZM34.23751 262.86667Q36.471886 262.86667 37.471886 262.2573Q39.096886 261.2573 39.096886 259.55417Q39.096886 258.17917 37.89376 257.17917Q36.690636 256.16354 34.315636 256.16354Q31.878138 256.16354 30.721888 257.1323Q29.550013 258.08542 29.550013 259.46042Q29.550013 260.85104 30.753138 261.86667Q31.956263 262.86667 34.23751 262.86667ZM36.83126 251.6323L36.503136 249.53854Q37.753136 249.36667 38.42501 248.5698Q39.096886 247.7573 39.096886 246.3198Q39.096886 244.86667 38.503136 244.16354Q37.909386 243.46042 37.11251 243.46042Q36.39376 243.46042 35.98751 244.08542Q35.70626 244.5073 35.26876 246.24167Q34.690636 248.55417 34.26876 249.46042Q33.83126 250.35104 33.08126 250.8198Q32.315636 251.27292 31.409388 251.27292Q30.581263 251.27292 29.878138 250.89792Q29.159388 250.5073 28.690638 249.85104Q28.331263 249.36667 28.081263 248.52292Q27.815638 247.66354 27.815638 246.6948Q27.815638 245.22604 28.237513 244.11667Q28.659388 243.0073 29.393763 242.49167Q30.112513 241.96042 31.315638 241.7573L31.596888 243.8198Q30.628138 243.96042 30.096888 244.6323Q29.550013 245.30417 29.550013 246.53854Q29.550013 247.99167 30.034388 248.61667Q30.518763 249.24167 31.159388 249.24167Q31.565638 249.24167 31.893763 248.97604Q32.23751 248.72604 32.45626 248.16354Q32.58126 247.85104 33.003136 246.30417Q33.596886 244.0698 33.98751 243.1948Q34.36251 242.30417 35.096886 241.80417Q35.815636 241.28854 36.89376 241.28854Q37.940636 241.28854 38.878136 241.91354Q39.815636 242.52292 40.33126 243.67917Q40.83126 244.83542 40.83126 246.30417Q40.83126 248.72604 39.83126 250.0073Q38.815636 251.27292 36.83126 251.6323ZM34.33126 239.5698Q30.862513 239.5698 29.206263 237.64792Q27.815638 236.03854 27.815638 233.72604Q27.815638 231.16354 29.503138 229.53854Q31.190638 227.91354 34.14376 227.91354Q36.55001 227.91354 37.92501 228.6323Q39.30001 229.35104 40.065636 230.72604Q40.83126 232.10104 40.83126 233.72604Q40.83126 236.35104 39.159386 237.96042Q37.471886 239.5698 34.33126 239.5698ZM34.33126 237.39792Q36.721886 237.39792 37.909386 236.36667Q39.096886 235.3198 39.096886 233.72604Q39.096886 232.16354 37.909386 231.11667Q36.70626 230.0698 34.253136 230.0698Q31.940638 230.0698 30.753138 231.1323Q29.565638 232.17917 29.565638 233.72604Q29.565638 235.3198 30.753138 236.36667Q31.940638 237.39792 34.33126 237.39792ZM40.55001 225.80417L28.096888 225.80417L28.096888 223.91354L29.987513 223.91354Q28.659388 223.17917 28.237513 222.5698Q27.815638 221.9448 27.815638 221.21042Q27.815638 220.14792 28.503138 219.03854L30.456263 219.77292Q30.003138 220.53854 30.003138 221.3198Q30.003138 222.0073 30.425013 222.5698Q30.831263 223.11667 31.565638 223.35104Q32.690636 223.6948 34.034386 223.6948L40.55001 223.6948L40.55001 225.80417ZM45.315636 217.78854L28.096888 217.78854L28.096888 215.86667L29.721888 215.86667Q28.768763 215.17917 28.300013 214.33542Q27.815638 213.47604 27.815638 212.2573Q27.815638 210.66354 28.643763 209.4448Q29.456263 208.22604 30.956263 207.60104Q32.45626 206.97604 34.23751 206.97604Q36.14376 206.97604 37.67501 207.66354Q39.20626 208.35104 40.01876 209.66354Q40.83126 210.96042 40.83126 212.39792Q40.83126 213.46042 40.39376 214.30417Q39.940636 215.1323 39.253136 215.67917L45.315636 215.67917L45.315636 217.78854ZM34.39376 215.86667Q36.80001 215.86667 37.95626 214.89792Q39.096886 213.92917 39.096886 212.53854Q39.096886 211.1323 37.909386 210.1323Q36.721886 209.1323 34.221886 209.1323Q31.846888 209.1323 30.659388 210.11667Q29.471888 211.08542 29.471888 212.4448Q29.471888 213.80417 30.737513 214.83542Q31.987513 215.86667 34.39376 215.86667ZM38.659386 199.17917L40.51876 198.86667Q40.721886 199.7573 40.721886 200.46042Q40.721886 201.61667 40.36251 202.2573Q39.98751 202.8823 39.39376 203.14792Q38.80001 203.39792 36.909386 203.39792L29.737513 203.39792L29.737513 204.9448L28.096888 204.9448L28.096888 203.39792L25.018763 203.39792L23.753138 201.30417L28.096888 201.30417L28.096888 199.17917L29.737513 199.17917L29.737513 201.30417L37.01876 201.30417Q37.92501 201.30417 38.190636 201.1948Q38.440636 201.0698 38.596886 200.8198Q38.73751 200.5698 38.73751 200.10104Q38.73751 199.7573 38.659386 199.17917ZM25.800013 196.77292L23.362513 196.77292L23.362513 194.66354L25.800013 194.66354L25.800013 196.77292ZM40.55001 196.77292L28.096888 196.77292L28.096888 194.66354L40.55001 194.66354L40.55001 196.77292ZM34.33126 192.5698Q30.862513 192.5698 29.206263 190.64792Q27.815638 189.03854 27.815638 186.72604Q27.815638 184.16354 29.503138 182.53854Q31.190638 180.91354 34.14376 180.91354Q36.55001 180.91354 37.92501 181.6323Q39.30001 182.35104 40.065636 183.72604Q40.83126 185.10104 40.83126 186.72604Q40.83126 189.35104 39.159386 190.96042Q37.471886 192.5698 34.33126 192.5698ZM34.33126 190.39792Q36.721886 190.39792 37.909386 189.36667Q39.096886 188.3198 39.096886 186.72604Q39.096886 185.16354 37.909386 184.11667Q36.70626 183.0698 34.253136 183.0698Q31.940638 183.0698 30.753138 184.1323Q29.565638 185.17917 29.565638 186.72604Q29.565638 188.3198 30.753138 189.36667Q31.940638 190.39792 34.33126 190.39792ZM40.55001 178.78854L28.096888 178.78854L28.096888 176.8823L29.878138 176.8823Q27.815638 175.5073 27.815638 172.92917Q27.815638 171.80417 28.221888 170.86667Q28.628138 169.91354 29.284388 169.4448Q29.940638 168.97604 30.846888 168.78854Q31.425013 168.66354 32.89376 168.66354L40.55001 168.66354L40.55001 170.77292L32.971886 170.77292Q31.690638 170.77292 31.050013 171.02292Q30.409388 171.27292 30.034388 171.89792Q29.643763 172.52292 29.643763 173.36667Q29.643763 174.71042 30.503138 175.6948Q31.362513 176.67917 33.753136 176.67917L40.55001 176.67917L40.55001 178.78854ZM25.800013 157.77292L23.362513 157.77292L23.362513 155.66354L25.800013 155.66354L25.800013 157.77292ZM40.55001 157.77292L28.096888 157.77292L28.096888 155.66354L40.55001 155.66354L40.55001 157.77292ZM40.55001 152.78854L28.096888 152.78854L28.096888 150.8823L29.878138 150.8823Q27.815638 149.5073 27.815638 146.92917Q27.815638 145.80417 28.221888 144.86667Q28.628138 143.91354 29.284388 143.4448Q29.940638 142.97604 30.846888 142.78854Q31.425013 142.66354 32.89376 142.66354L40.55001 142.66354L40.55001 144.77292L32.971886 144.77292Q31.690638 144.77292 31.050013 145.02292Q30.409388 145.27292 30.034388 145.89792Q29.643763 146.52292 29.643763 147.36667Q29.643763 148.71042 30.503138 149.6948Q31.362513 150.67917 33.753136 150.67917L40.55001 150.67917L40.55001 152.78854ZM41.58126 132.16354L41.89376 130.11667Q42.83126 129.99167 43.26876 129.39792Q43.86251 128.61667 43.86251 127.25729Q43.86251 125.78854 43.26876 124.99167Q42.690636 124.19479 41.628136 123.91354Q40.98751 123.75729 38.92501 123.77292Q40.55001 125.14792 40.55001 127.21042Q40.55001 129.77292 38.70626 131.17917Q36.846886 132.58542 34.253136 132.58542Q32.471886 132.58542 30.971888 131.9448Q29.456263 131.30417 28.643763 130.08542Q27.815638 128.85104 27.815638 127.19479Q27.815638 124.99167 29.596888 123.56979L28.096888 123.56979L28.096888 121.61667L38.86251 121.61667Q41.76876 121.61667 42.971886 122.21042Q44.190636 122.80417 44.89376 124.08542Q45.596886 125.36667 45.596886 127.24167Q45.596886 129.47604 44.596886 130.85104Q43.596886 132.21042 41.58126 132.16354ZM34.096886 130.42917Q36.55001 130.42917 37.67501 129.46042Q38.80001 128.47604 38.80001 127.00729Q38.80001 125.55417 37.690636 124.56979Q36.565636 123.58542 34.17501 123.58542Q31.893763 123.58542 30.737513 124.60104Q29.565638 125.61667 29.565638 127.05417Q29.565638 128.46042 30.706263 129.4448Q31.846888 130.42917 34.096886 130.42917Z" fill-rule="nonzero"/><path fill="#000000" d="M97.05 264.21564Q97.05 262.6844 97.3625 261.7625Q97.675 260.825 98.28438 260.325Q98.90938 259.825 99.84688 259.825Q100.53438 259.825 101.05 260.10626Q101.58125 260.3875 101.925 260.91876Q102.26875 261.4344 102.45625 262.1844Q102.64375 262.9344 102.64375 264.21564Q102.64375 265.73126 102.33125 266.65314Q102.03438 267.575 101.40938 268.09064Q100.8 268.59064 99.84688 268.59064Q98.6125 268.59064 97.89375 267.7Q97.05 266.6375 97.05 264.21564ZM98.12813 264.21564Q98.12813 266.325 98.62813 267.02814Q99.12813 267.73126 99.84688 267.73126Q100.58125 267.73126 101.06563 267.02814Q101.56563 266.325 101.56563 264.21564Q101.56563 262.09064 101.06563 261.40314Q100.58125 260.7 99.83125 260.7Q99.1125 260.7 98.675 261.3094Q98.12813 262.09064 98.12813 264.21564Z" fill-rule="nonzero"/><path fill="#000000" d="M101.01875 237.41667L99.97188 237.41667L99.97188 230.69792Q99.58125 231.0573 98.95625 231.4323Q98.34688 231.79167 97.8625 231.96355L97.8625 230.94792Q98.7375 230.52605 99.39375 229.94792Q100.06563 229.35417 100.34688 228.79167L101.01875 228.79167L101.01875 237.41667Z" fill-rule="nonzero"/><path fill="#000000" d="M102.59688 205.3677L102.59688 206.38333L96.90938 206.38333Q96.90938 206.00833 97.03438 205.64896Q97.25313 205.07083 97.72188 204.50833Q98.20625 203.94583 99.1125 203.21146Q100.51875 202.0552 101.00313 201.38333Q101.50313 200.71146 101.50313 200.1177Q101.50313 199.4927 101.05 199.07083Q100.59688 198.63333 99.87813 198.63333Q99.1125 198.63333 98.65938 199.08646Q98.20625 199.53958 98.19063 200.35208L97.1125 200.2427Q97.22188 199.02396 97.94063 198.39896Q98.675 197.75833 99.90938 197.75833Q101.14375 197.75833 101.8625 198.44583Q102.58125 199.13333 102.58125 200.14896Q102.58125 200.66458 102.3625 201.16458Q102.15938 201.64896 101.65938 202.21146Q101.175 202.75833 100.05 203.71146Q99.09688 204.50833 98.81563 204.8052Q98.55 205.08646 98.37813 205.3677L102.59688 205.3677Z" fill-rule="nonzero"/><path fill="#000000" d="M97.05 173.08438L98.1125 172.94376Q98.28438 173.83438 98.72188 174.24063Q99.15938 174.63126 99.78438 174.63126Q100.53438 174.63126 101.05 174.11563Q101.56563 173.6 101.56563 172.83438Q101.56563 172.11563 101.08125 171.64688Q100.6125 171.1625 99.87813 171.1625Q99.58125 171.1625 99.12813 171.2875L99.25313 170.35Q99.3625 170.36563 99.425 170.36563Q100.09688 170.36563 100.62813 170.02188Q101.175 169.6625 101.175 168.92813Q101.175 168.35 100.78438 167.975Q100.39375 167.58438 99.76875 167.58438Q99.15938 167.58438 98.7375 167.975Q98.33125 168.36563 98.22188 169.13126L97.15938 168.94376Q97.34688 167.89688 98.03438 167.31876Q98.72188 166.725 99.7375 166.725Q100.44063 166.725 101.03438 167.0375Q101.62813 167.33438 101.94063 167.85Q102.25313 168.36563 102.25313 168.95938Q102.25313 169.50626 101.95625 169.975Q101.65938 170.42813 101.08125 170.69376Q101.83125 170.86563 102.25313 171.42813Q102.675 171.975 102.675 172.81876Q102.675 173.94376 101.84688 174.725Q101.03438 175.50626 99.78438 175.50626Q98.65938 175.50626 97.90938 174.83438Q97.15938 174.14688 97.05 173.08438Z" fill-rule="nonzero"/><path fill="#000000" d="M100.425 144.31667L100.425 142.25417L96.70625 142.25417L96.70625 141.28542L100.62813 135.72292L101.4875 135.72292L101.4875 141.28542L102.64375 141.28542L102.64375 142.25417L101.4875 142.25417L101.4875 144.31667L100.425 144.31667ZM100.425 141.28542L100.425 137.42604L97.7375 141.28542L100.425 141.28542Z" fill-rule="nonzero"/><path fill="#000000" d="M97.05 111.03333L98.15938 110.93958Q98.28438 111.75208 98.72188 112.15833Q99.175 112.56458 99.81563 112.56458Q100.56563 112.56458 101.09688 111.98646Q101.62813 111.40833 101.62813 110.47083Q101.62813 109.56458 101.1125 109.04896Q100.6125 108.51771 99.78438 108.51771Q99.28438 108.51771 98.8625 108.75208Q98.45625 108.98646 98.22188 109.34583L97.2375 109.22083L98.06563 104.81458L102.34688 104.81458L102.34688 105.81458L98.90938 105.81458L98.45625 108.12708Q99.22188 107.58021 100.06563 107.58021Q101.19063 107.58021 101.95625 108.36146Q102.7375 109.14271 102.7375 110.37708Q102.7375 111.53333 102.06563 112.39271Q101.2375 113.42396 99.81563 113.42396Q98.64375 113.42396 97.89375 112.76771Q97.15938 112.11146 97.05 111.03333Z" fill-rule="nonzero"/><path fill="#000000" d="M308.96875 293.45L314.46875 279.1375L316.51562 279.1375L322.375 293.45L320.21875 293.45L318.54688 289.10626L312.5625 289.10626L310.98438 293.45L308.96875 293.45ZM313.10938 287.575L317.95312 287.575L316.46875 283.60626Q315.78125 281.79376 315.45312 280.6375Q315.17188 282.0125 314.67188 283.3719L313.10938 287.575ZM326.20312 293.45L322.25 283.075L324.10938 283.075L326.34375 289.29376Q326.70312 290.29376 327.0 291.3719Q327.23438 290.5594 327.65625 289.40314L329.95312 283.075L331.76562 283.075L327.84375 293.45L326.20312 293.45ZM339.42188 290.10626L341.23438 290.34064Q340.8125 291.91876 339.64062 292.8094Q338.48438 293.6844 336.67188 293.6844Q334.40625 293.6844 333.0625 292.29376Q331.73438 290.8875 331.73438 288.35626Q331.73438 285.73126 333.07812 284.29376Q334.42188 282.84064 336.57812 282.84064Q338.65625 282.84064 339.96875 284.2625Q341.29688 285.66876 341.29688 288.2469Q341.29688 288.40314 341.28125 288.71564L333.54688 288.71564Q333.64062 290.41876 334.51562 291.325Q335.39062 292.23126 336.6875 292.23126Q337.65625 292.23126 338.32812 291.73126Q339.01562 291.21564 339.42188 290.10626ZM333.64062 287.2625L339.4375 287.2625Q339.32812 285.96564 338.78125 285.3094Q337.9375 284.29376 336.59375 284.29376Q335.39062 284.29376 334.5625 285.10626Q333.73438 285.90314 333.64062 287.2625ZM343.29688 293.45L343.29688 283.075L344.875 283.075L344.875 284.65314Q345.48438 283.54376 346.0 283.2Q346.51562 282.84064 347.125 282.84064Q348.01562 282.84064 348.9375 283.40314L348.32812 285.04376Q347.6875 284.65314 347.04688 284.65314Q346.46875 284.65314 346.0 285.0125Q345.54688 285.35626 345.34375 285.96564Q345.0625 286.90314 345.0625 288.0125L345.0625 293.45L343.29688 293.45ZM357.09375 292.16876Q356.10938 292.9969 355.20312 293.34064Q354.29688 293.6844 353.26562 293.6844Q351.5625 293.6844 350.64062 292.85626Q349.71875 292.0125 349.71875 290.71564Q349.71875 289.95 350.0625 289.325Q350.42188 288.7 350.98438 288.325Q351.54688 287.9344 352.25 287.73126Q352.76562 287.60626 353.8125 287.46564Q355.9375 287.21564 356.9375 286.8719Q356.95312 286.5125 356.95312 286.40314Q356.95312 285.34064 356.45312 284.8875Q355.78125 284.29376 354.45312 284.29376Q353.20312 284.29376 352.60938 284.73126Q352.03125 285.16876 351.75 286.27814L350.03125 286.04376Q350.26562 284.9344 350.79688 284.2625Q351.32812 283.575 352.34375 283.21564Q353.35938 282.84064 354.70312 282.84064Q356.03125 282.84064 356.85938 283.15314Q357.6875 283.46564 358.07812 283.95Q358.46875 284.41876 358.625 285.1375Q358.71875 285.59064 358.71875 286.7625L358.71875 289.10626Q358.71875 291.5594 358.82812 292.21564Q358.9375 292.85626 359.28125 293.45L357.4375 293.45Q357.17188 292.90314 357.09375 292.16876ZM356.9375 288.2469Q355.98438 288.6375 354.0625 288.90314Q352.98438 289.0594 352.53125 289.2625Q352.09375 289.45 351.84375 289.825Q351.59375 290.2 351.59375 290.66876Q351.59375 291.3719 352.125 291.84064Q352.65625 292.3094 353.6875 292.3094Q354.70312 292.3094 355.48438 291.8719Q356.28125 291.41876 356.65625 290.65314Q356.9375 290.04376 356.9375 288.8875L356.9375 288.2469ZM361.0 294.3094L362.70312 294.5594Q362.8125 295.35626 363.29688 295.71564Q363.95312 296.2 365.09375 296.2Q366.3125 296.2 366.96875 295.71564Q367.64062 295.23126 367.875 294.35626Q368.01562 293.8094 368.0 292.09064Q366.84375 293.45 365.125 293.45Q362.98438 293.45 361.8125 291.90314Q360.64062 290.35626 360.64062 288.2Q360.64062 286.71564 361.17188 285.46564Q361.71875 284.21564 362.73438 283.52814Q363.76562 282.84064 365.14062 282.84064Q366.96875 282.84064 368.17188 284.325L368.17188 283.075L369.78125 283.075L369.78125 292.04376Q369.78125 294.46564 369.28125 295.46564Q368.79688 296.48126 367.71875 297.0594Q366.65625 297.65314 365.09375 297.65314Q363.25 297.65314 362.09375 296.825Q360.95312 295.9969 361.0 294.3094ZM362.45312 288.075Q362.45312 290.1219 363.26562 291.0594Q364.07812 291.9969 365.29688 291.9969Q366.5 291.9969 367.3125 291.0594Q368.14062 290.1219 368.14062 288.1375Q368.14062 286.23126 367.29688 285.2625Q366.45312 284.29376 365.26562 284.29376Q364.09375 284.29376 363.26562 285.2469Q362.45312 286.2 362.45312 288.075ZM379.42188 290.10626L381.23438 290.34064Q380.8125 291.91876 379.64062 292.8094Q378.48438 293.6844 376.67188 293.6844Q374.40625 293.6844 373.0625 292.29376Q371.73438 290.8875 371.73438 288.35626Q371.73438 285.73126 373.07812 284.29376Q374.42188 282.84064 376.57812 282.84064Q378.65625 282.84064 379.96875 284.2625Q381.29688 285.66876 381.29688 288.2469Q381.29688 288.40314 381.28125 288.71564L373.54688 288.71564Q373.64062 290.41876 374.51562 291.325Q375.39062 292.23126 376.6875 292.23126Q377.65625 292.23126 378.32812 291.73126Q379.01562 291.21564 379.42188 290.10626ZM373.64062 287.2625L379.4375 287.2625Q379.32812 285.96564 378.78125 285.3094Q377.9375 284.29376 376.59375 284.29376Q375.39062 284.29376 374.5625 285.10626Q373.73438 285.90314 373.64062 287.2625Z" fill-rule="nonzero"/><path fill="#4285f4" d="M161.0 72.916664C161.0 72.36438 161.44771 71.916664 162.0 71.916664L172.0 71.916664C172.55229 71.916664 173.0 72.36438 173.0 72.916664L173.0 82.916664C173.0 83.46895 172.55229 83.916664 172.0 83.916664L162.0 83.916664C161.44771 83.916664 161.0 83.46895 161.0 82.916664Z" fill-rule="nonzero"/><path fill="#1a1a1a" d="M182.54688 84.916664L182.54688 70.604164L187.9375 70.604164Q189.375 70.604164 190.125 70.729164Q191.17188 70.916664 191.89062 71.416664Q192.60938 71.90104 193.03125 72.791664Q193.46875 73.68229 193.46875 74.74479Q193.46875 76.572914 192.29688 77.83854Q191.14062 79.08854 188.10938 79.08854L184.4375 79.08854L184.4375 84.916664L182.54688 84.916664ZM184.4375 77.40104L188.14062 77.40104Q189.96875 77.40104 190.73438 76.729164Q191.51562 76.041664 191.51562 74.791664Q191.51562 73.90104 191.0625 73.260414Q190.60938 72.61979 189.875 72.416664Q189.39062 72.291664 188.09375 72.291664L184.4375 72.291664L184.4375 77.40104ZM195.32812 72.61979L195.32812 70.604164L197.09375 70.604164L197.09375 72.61979L195.32812 72.61979ZM195.32812 84.916664L195.32812 74.541664L197.09375 74.541664L197.09375 84.916664L195.32812 84.916664ZM199.3125 84.916664L199.3125 74.541664L200.90625 74.541664L200.90625 76.02604Q202.04688 74.30729 204.20312 74.30729Q205.14062 74.30729 205.92188 74.65104Q206.71875 74.979164 207.10938 75.52604Q207.5 76.072914 207.65625 76.822914Q207.75 77.322914 207.75 78.541664L207.75 84.916664L205.98438 84.916664L205.98438 78.604164Q205.98438 77.52604 205.78125 76.99479Q205.57812 76.46354 205.04688 76.15104Q204.53125 75.83854 203.82812 75.83854Q202.70312 75.83854 201.89062 76.55729Q201.07812 77.260414 201.07812 79.24479L201.07812 84.916664L199.3125 84.916664ZM216.42188 81.572914L218.23438 81.80729Q217.8125 83.385414 216.64062 84.27604Q215.48438 85.15104 213.67188 85.15104Q211.40625 85.15104 210.0625 83.760414Q208.73438 82.354164 208.73438 79.822914Q208.73438 77.197914 210.07812 75.760414Q211.42188 74.30729 213.57812 74.30729Q215.65625 74.30729 216.96875 75.729164Q218.29688 77.135414 218.29688 79.71354Q218.29688 79.86979 218.28125 80.18229L210.54688 80.18229Q210.64062 81.885414 211.51562 82.791664Q212.39062 83.697914 213.6875 83.697914Q214.65625 83.697914 215.32812 83.197914Q216.01562 82.68229 216.42188 81.572914ZM210.64062 78.729164L216.4375 78.729164Q216.32812 77.43229 215.78125 76.77604Q214.9375 75.760414 213.59375 75.760414Q212.39062 75.760414 211.5625 76.572914Q210.73438 77.36979 210.64062 78.729164ZM227.09375 83.635414Q226.10938 84.46354 225.20312 84.80729Q224.29688 85.15104 223.26562 85.15104Q221.5625 85.15104 220.64062 84.322914Q219.71875 83.479164 219.71875 82.18229Q219.71875 81.416664 220.0625 80.791664Q220.42188 80.166664 220.98438 79.791664Q221.54688 79.40104 222.25 79.197914Q222.76562 79.072914 223.8125 78.93229Q225.9375 78.68229 226.9375 78.33854Q226.95312 77.979164 226.95312 77.86979Q226.95312 76.80729 226.45312 76.354164Q225.78125 75.760414 224.45312 75.760414Q223.20312 75.760414 222.60938 76.197914Q222.03125 76.635414 221.75 77.74479L220.03125 77.510414Q220.26562 76.40104 220.79688 75.729164Q221.32812 75.041664 222.34375 74.68229Q223.35938 74.30729 224.70312 74.30729Q226.03125 74.30729 226.85938 74.61979Q227.6875 74.93229 228.07812 75.416664Q228.46875 75.885414 228.625 76.604164Q228.71875 77.05729 228.71875 78.229164L228.71875 80.572914Q228.71875 83.02604 228.82812 83.68229Q228.9375 84.322914 229.28125 84.916664L227.4375 84.916664Q227.17188 84.36979 227.09375 83.635414ZM226.9375 79.71354Q225.98438 80.104164 224.0625 80.36979Q222.98438 80.52604 222.53125 80.729164Q222.09375 80.916664 221.84375 81.291664Q221.59375 81.666664 221.59375 82.135414Q221.59375 82.83854 222.125 83.30729Q222.65625 83.77604 223.6875 83.77604Q224.70312 83.77604 225.48438 83.33854Q226.28125 82.885414 226.65625 82.11979Q226.9375 81.510414 226.9375 80.354164L226.9375 79.71354ZM231.3125 88.885414L231.3125 74.541664L232.92188 74.541664L232.92188 75.885414Q233.48438 75.104164 234.1875 74.71354Q234.90625 74.30729 235.92188 74.30729Q237.25 74.30729 238.26562 74.99479Q239.28125 75.68229 239.79688 76.93229Q240.32812 78.166664 240.32812 79.65104Q240.32812 81.24479 239.75 82.52604Q239.1875 83.791664 238.09375 84.479164Q237.0 85.15104 235.79688 85.15104Q234.92188 85.15104 234.21875 84.77604Q233.53125 84.40104 233.07812 83.83854L233.07812 88.885414L231.3125 88.885414ZM232.90625 79.791664Q232.90625 81.791664 233.71875 82.74479Q234.53125 83.697914 235.6875 83.697914Q236.85938 83.697914 237.6875 82.71354Q238.53125 81.729164 238.53125 79.635414Q238.53125 77.666664 237.70312 76.68229Q236.89062 75.68229 235.76562 75.68229Q234.64062 75.68229 233.76562 76.74479Q232.90625 77.791664 232.90625 79.791664ZM242.3125 88.885414L242.3125 74.541664L243.92188 74.541664L243.92188 75.885414Q244.48438 75.104164 245.1875 74.71354Q245.90625 74.30729 246.92188 74.30729Q248.25 74.30729 249.26562 74.99479Q250.28125 75.68229 250.79688 76.93229Q251.32812 78.166664 251.32812 79.65104Q251.32812 81.24479 250.75 82.52604Q250.1875 83.791664 249.09375 84.479164Q248.0 85.15104 246.79688 85.15104Q245.92188 85.15104 245.21875 84.77604Q244.53125 84.40104 244.07812 83.83854L244.07812 88.885414L242.3125 88.885414ZM243.90625 79.791664Q243.90625 81.791664 244.71875 82.74479Q245.53125 83.697914 246.6875 83.697914Q247.85938 83.697914 248.6875 82.71354Q249.53125 81.729164 249.53125 79.635414Q249.53125 77.666664 248.70312 76.68229Q247.89062 75.68229 246.76562 75.68229Q245.64062 75.68229 244.76562 76.74479Q243.90625 77.791664 243.90625 79.791664ZM253.28125 84.916664L253.28125 70.604164L255.03125 70.604164L255.03125 84.916664L253.28125 84.916664ZM264.42188 81.572914L266.23438 81.80729Q265.8125 83.385414 264.64062 84.27604Q263.48438 85.15104 261.67188 85.15104Q259.40625 85.15104 258.0625 83.760414Q256.73438 82.354164 256.73438 79.822914Q256.73438 77.197914 258.07812 75.760414Q259.42188 74.30729 261.57812 74.30729Q263.65625 74.30729 264.96875 75.729164Q266.29688 77.135414 266.29688 79.71354Q266.29688 79.86979 266.28125 80.18229L258.54688 80.18229Q258.64062 81.885414 259.51562 82.791664Q260.39062 83.697914 261.6875 83.697914Q262.65625 83.697914 263.32812 83.197914Q264.01562 82.68229 264.42188 81.572914ZM258.64062 78.729164L264.4375 78.729164Q264.32812 77.43229 263.78125 76.77604Q262.9375 75.760414 261.59375 75.760414Q260.39062 75.760414 259.5625 76.572914Q258.73438 77.36979 258.64062 78.729164Z" fill-rule="nonzero"/><path fill="#ea4335" d="M283.0 72.916664C283.0 72.36438 283.44772 71.916664 284.0 71.916664L294.0 71.916664C294.55228 71.916664 295.0 72.36438 295.0 72.916664L295.0 82.916664C295.0 83.46895 294.55228 83.916664 294.0 83.916664L284.0 83.916664C283.44772 83.916664 283.0 83.46895 283.0 82.916664Z" fill-rule="nonzero"/><path fill="#1a1a1a" d="M303.90625 80.322914L305.6875 80.166664Q305.8125 81.229164 306.26562 81.916664Q306.73438 82.604164 307.70312 83.041664Q308.6875 83.46354 309.92188 83.46354Q311.0 83.46354 311.82812 83.15104Q312.65625 82.822914 313.0625 82.260414Q313.46875 81.697914 313.46875 81.02604Q313.46875 80.354164 313.07812 79.854164Q312.6875 79.354164 311.79688 79.010414Q311.21875 78.77604 309.23438 78.30729Q307.26562 77.83854 306.48438 77.416664Q305.45312 76.885414 304.95312 76.08854Q304.45312 75.291664 304.45312 74.30729Q304.45312 73.21354 305.0625 72.27604Q305.67188 71.33854 306.85938 70.854164Q308.04688 70.354164 309.48438 70.354164Q311.07812 70.354164 312.29688 70.86979Q313.51562 71.385414 314.15625 72.385414Q314.8125 73.36979 314.85938 74.635414L313.04688 74.77604Q312.90625 73.416664 312.0625 72.729164Q311.21875 72.02604 309.5625 72.02604Q307.84375 72.02604 307.04688 72.666664Q306.26562 73.291664 306.26562 74.166664Q306.26562 74.947914 306.82812 75.447914Q307.375 75.947914 309.6875 76.46354Q312.0 76.979164 312.85938 77.36979Q314.10938 77.947914 314.70312 78.83854Q315.29688 79.71354 315.29688 80.86979Q315.29688 82.010414 314.64062 83.02604Q313.98438 84.041664 312.75 84.604164Q311.53125 85.166664 310.0 85.166664Q308.0625 85.166664 306.75 84.604164Q305.4375 84.02604 304.6875 82.885414Q303.9375 81.74479 303.90625 80.322914ZM317.32812 72.61979L317.32812 70.604164L319.09375 70.604164L319.09375 72.61979L317.32812 72.61979ZM317.32812 84.916664L317.32812 74.541664L319.09375 74.541664L319.09375 84.916664L317.32812 84.916664ZM320.60938 81.822914L322.35938 81.541664Q322.5 82.58854 323.17188 83.15104Q323.84375 83.697914 325.04688 83.697914Q326.25 83.697914 326.82812 83.21354Q327.42188 82.71354 327.42188 82.05729Q327.42188 81.46354 326.90625 81.11979Q326.54688 80.885414 325.10938 80.52604Q323.17188 80.02604 322.42188 79.68229Q321.6875 79.322914 321.29688 78.697914Q320.90625 78.05729 320.90625 77.291664Q320.90625 76.604164 321.21875 76.010414Q321.54688 75.416664 322.09375 75.02604Q322.5 74.729164 323.20312 74.52604Q323.92188 74.30729 324.73438 74.30729Q325.95312 74.30729 326.875 74.666664Q327.79688 75.010414 328.23438 75.61979Q328.67188 76.21354 328.84375 77.21354L327.125 77.447914Q327.0 76.65104 326.4375 76.21354Q325.875 75.760414 324.85938 75.760414Q323.64062 75.760414 323.125 76.166664Q322.60938 76.55729 322.60938 77.08854Q322.60938 77.43229 322.82812 77.71354Q323.03125 77.99479 323.5 78.18229Q323.76562 78.27604 325.04688 78.61979Q326.92188 79.11979 327.65625 79.447914Q328.39062 79.760414 328.8125 80.36979Q329.23438 80.96354 329.23438 81.86979Q329.23438 82.74479 328.71875 83.52604Q328.20312 84.30729 327.23438 84.729164Q326.26562 85.15104 325.04688 85.15104Q323.03125 85.15104 321.96875 84.30729Q320.90625 83.46354 320.60938 81.822914ZM338.09375 83.635414Q337.10938 84.46354 336.20312 84.80729Q335.29688 85.15104 334.26562 85.15104Q332.5625 85.15104 331.64062 84.322914Q330.71875 83.479164 330.71875 82.18229Q330.71875 81.416664 331.0625 80.791664Q331.42188 80.166664 331.98438 79.791664Q332.54688 79.40104 333.25 79.197914Q333.76562 79.072914 334.8125 78.93229Q336.9375 78.68229 337.9375 78.33854Q337.95312 77.979164 337.95312 77.86979Q337.95312 76.80729 337.45312 76.354164Q336.78125 75.760414 335.45312 75.760414Q334.20312 75.760414 333.60938 76.197914Q333.03125 76.635414 332.75 77.74479L331.03125 77.510414Q331.26562 76.40104 331.79688 75.729164Q332.32812 75.041664 333.34375 74.68229Q334.35938 74.30729 335.70312 74.30729Q337.03125 74.30729 337.85938 74.61979Q338.6875 74.93229 339.07812 75.416664Q339.46875 75.885414 339.625 76.604164Q339.71875 77.05729 339.71875 78.229164L339.71875 80.572914Q339.71875 83.02604 339.82812 83.68229Q339.9375 84.322914 340.28125 84.916664L338.4375 84.916664Q338.17188 84.36979 338.09375 83.635414ZM337.9375 79.71354Q336.98438 80.104164 335.0625 80.36979Q333.98438 80.52604 333.53125 80.729164Q333.09375 80.916664 332.84375 81.291664Q332.59375 81.666664 332.59375 82.135414Q332.59375 82.83854 333.125 83.30729Q333.65625 83.77604 334.6875 83.77604Q335.70312 83.77604 336.48438 83.33854Q337.28125 82.885414 337.65625 82.11979Q337.9375 81.510414 337.9375 80.354164L337.9375 79.71354ZM342.28125 84.916664L342.28125 70.604164L344.03125 70.604164L344.03125 84.916664L342.28125 84.916664Z" fill-rule="nonzero"/><path fill="#fbbc04" d="M361.0 72.916664C361.0 72.36438 361.44772 71.916664 362.0 71.916664L372.0 71.916664C372.55228 71.916664 373.0 72.36438 373.0 72.916664L373.0 82.916664C373.0 83.46895 372.55228 83.916664 372.0 83.916664L362.0 83.916664C361.44772 83.916664 361.0 83.46895 361.0 82.916664Z" fill-rule="nonzero"/><path fill="#1a1a1a" d="M392.76562 79.90104L394.65625 80.36979Q394.0625 82.71354 392.51562 83.947914Q390.96875 85.166664 388.71875 85.166664Q386.40625 85.166664 384.95312 84.229164Q383.51562 83.27604 382.75 81.49479Q382.0 79.697914 382.0 77.65104Q382.0 75.416664 382.84375 73.760414Q383.70312 72.08854 385.28125 71.229164Q386.85938 70.354164 388.75 70.354164Q390.90625 70.354164 392.35938 71.447914Q393.82812 72.541664 394.40625 74.52604L392.54688 74.96354Q392.04688 73.40104 391.09375 72.697914Q390.15625 71.979164 388.71875 71.979164Q387.0625 71.979164 385.95312 72.77604Q384.84375 73.55729 384.39062 74.90104Q383.95312 76.229164 383.95312 77.635414Q383.95312 79.46354 384.48438 80.83854Q385.01562 82.197914 386.14062 82.86979Q387.26562 83.541664 388.5625 83.541664Q390.15625 83.541664 391.26562 82.61979Q392.375 81.697914 392.76562 79.90104ZM395.67188 79.729164Q395.67188 76.854164 397.26562 75.46354Q398.60938 74.30729 400.53125 74.30729Q402.67188 74.30729 404.01562 75.71354Q405.375 77.11979 405.375 79.58854Q405.375 81.58854 404.78125 82.74479Q404.1875 83.885414 403.03125 84.52604Q401.89062 85.15104 400.53125 85.15104Q398.34375 85.15104 397.0 83.760414Q395.67188 82.354164 395.67188 79.729164ZM397.46875 79.729164Q397.46875 81.729164 398.32812 82.71354Q399.20312 83.697914 400.53125 83.697914Q401.84375 83.697914 402.70312 82.71354Q403.57812 81.71354 403.57812 79.666664Q403.57812 77.74479 402.70312 76.760414Q401.82812 75.760414 400.53125 75.760414Q399.20312 75.760414 398.32812 76.760414Q397.46875 77.74479 397.46875 79.729164ZM411.15625 83.33854L411.40625 84.90104Q410.67188 85.05729 410.07812 85.05729Q409.125 85.05729 408.59375 84.760414Q408.07812 84.447914 407.85938 83.96354Q407.64062 83.46354 407.64062 81.885414L407.64062 75.916664L406.35938 75.916664L406.35938 74.541664L407.64062 74.541664L407.64062 71.979164L409.39062 70.916664L409.39062 74.541664L411.15625 74.541664L411.15625 75.916664L409.39062 75.916664L409.39062 81.979164Q409.39062 82.729164 409.48438 82.947914Q409.57812 83.15104 409.78125 83.291664Q410.0 83.416664 410.39062 83.416664Q410.67188 83.416664 411.15625 83.33854ZM417.15625 83.33854L417.40625 84.90104Q416.67188 85.05729 416.07812 85.05729Q415.125 85.05729 414.59375 84.760414Q414.07812 84.447914 413.85938 83.96354Q413.64062 83.46354 413.64062 81.885414L413.64062 75.916664L412.35938 75.916664L412.35938 74.541664L413.64062 74.541664L413.64062 71.979164L415.39062 70.916664L415.39062 74.541664L417.15625 74.541664L417.15625 75.916664L415.39062 75.916664L415.39062 81.979164Q415.39062 82.729164 415.48438 82.947914Q415.57812 83.15104 415.78125 83.291664Q416.0 83.416664 416.39062 83.416664Q416.67188 83.416664 417.15625 83.33854ZM418.67188 79.729164Q418.67188 76.854164 420.26562 75.46354Q421.60938 74.30729 423.53125 74.30729Q425.67188 74.30729 427.01562 75.71354Q428.375 77.11979 428.375 79.58854Q428.375 81.58854 427.78125 82.74479Q427.1875 83.885414 426.03125 84.52604Q424.89062 85.15104 423.53125 85.15104Q421.34375 85.15104 420.0 83.760414Q418.67188 82.354164 418.67188 79.729164ZM420.46875 79.729164Q420.46875 81.729164 421.32812 82.71354Q422.20312 83.697914 423.53125 83.697914Q424.84375 83.697914 425.70312 82.71354Q426.57812 81.71354 426.57812 79.666664Q426.57812 77.74479 425.70312 76.760414Q424.82812 75.760414 423.53125 75.760414Q422.20312 75.760414 421.32812 76.760414Q420.46875 77.74479 420.46875 79.729164ZM430.3125 84.916664L430.3125 74.541664L431.90625 74.541664L431.90625 76.02604Q433.04688 74.30729 435.20312 74.30729Q436.14062 74.30729 436.92188 74.65104Q437.71875 74.979164 438.10938 75.52604Q438.5 76.072914 438.65625 76.822914Q438.75 77.322914 438.75 78.541664L438.75 84.916664L436.98438 84.916664L436.98438 78.604164Q436.98438 77.52604 436.78125 76.99479Q436.57812 76.46354 436.04688 76.15104Q435.53125 75.83854 434.82812 75.83854Q433.70312 75.83854 432.89062 76.55729Q432.07812 77.260414 432.07812 79.24479L432.07812 84.916664L430.3125 84.916664Z" fill-rule="nonzero"/><path fill="#757575" d="M20.8625 46.55L20.8625 25.08125L28.971874 25.08125Q31.096874 25.08125 32.2375 25.284374Q33.815624 25.55 34.878124 26.284374Q35.95625 27.01875 36.596874 28.3625Q37.253124 29.690624 37.253124 31.284374Q37.253124 34.01875 35.503124 35.925Q33.76875 37.815624 29.221874 37.815624L23.70625 37.815624L23.70625 46.55L20.8625 46.55ZM23.70625 35.284374L29.253124 35.284374Q32.01875 35.284374 33.175 34.26875Q34.33125 33.2375 34.33125 31.378124Q34.33125 30.01875 33.64375 29.065624Q32.971874 28.1125 31.846874 27.8Q31.128124 27.6125 29.20625 27.6125L23.70625 27.6125L23.70625 35.284374ZM40.55 28.1125L40.55 25.08125L43.175 25.08125L43.175 28.1125L40.55 28.1125ZM40.55 46.55L40.55 30.9875L43.175 30.9875L43.175 46.55L40.55 46.55ZM47.534374 46.55L47.534374 30.9875L49.89375 30.9875L49.89375 33.20625Q51.6125 30.64375 54.846874 30.64375Q56.253124 30.64375 57.425 31.159374Q58.6125 31.659374 59.190624 32.4875Q59.784374 33.3 60.01875 34.425Q60.175 35.159374 60.175 36.9875L60.175 46.55L57.534374 46.55L57.534374 37.08125Q57.534374 35.471874 57.221874 34.675Q56.925 33.878124 56.128124 33.409374Q55.346874 32.925 54.3 32.925Q52.6125 32.925 51.378124 34.003124Q50.159374 35.065624 50.159374 38.05L50.159374 46.55L47.534374 46.55ZM75.175 41.534374L77.90938 41.878124Q77.25313 44.26875 75.50313 45.596874Q73.76875 46.909374 71.06563 46.909374Q67.64375 46.909374 65.64375 44.8Q63.64375 42.690624 63.64375 38.909374Q63.64375 34.971874 65.65938 32.815624Q67.69063 30.64375 70.90938 30.64375Q74.03438 30.64375 76.00313 32.76875Q77.9875 34.89375 77.9875 38.7375Q77.9875 38.971874 77.97188 39.440624L66.37813 39.440624Q66.51875 42.003124 67.81563 43.378124Q69.12813 44.7375 71.08125 44.7375Q72.51875 44.7375 73.55 43.971874Q74.58125 43.20625 75.175 41.534374ZM66.51875 37.284374L75.20625 37.284374Q75.03438 35.315624 74.20625 34.33125Q72.95625 32.815624 70.94063 32.815624Q69.12813 32.815624 67.89375 34.034374Q66.65938 35.2375 66.51875 37.284374ZM90.675 44.628124Q89.22188 45.878124 87.8625 46.39375Q86.50313 46.909374 84.95625 46.909374Q82.39375 46.909374 81.00313 45.659374Q79.62813 44.39375 79.62813 42.440624Q79.62813 41.3 80.14375 40.3625Q80.675 39.409374 81.51875 38.846874Q82.3625 38.26875 83.40938 37.9875Q84.19063 37.76875 85.75313 37.58125Q88.95625 37.20625 90.45625 36.675Q90.47188 36.128124 90.47188 35.9875Q90.47188 34.378124 89.72188 33.721874Q88.72188 32.83125 86.72188 32.83125Q84.8625 32.83125 83.97188 33.4875Q83.09688 34.128124 82.65938 35.784374L80.08125 35.425Q80.44063 33.76875 81.2375 32.753124Q82.05 31.7375 83.56563 31.190624Q85.09688 30.64375 87.1125 30.64375Q89.09688 30.64375 90.33125 31.1125Q91.58125 31.58125 92.15938 32.3Q92.75313 33.003124 92.9875 34.08125Q93.12813 34.753124 93.12813 36.51875L93.12813 40.034374Q93.12813 43.70625 93.28438 44.690624Q93.45625 45.659374 93.95625 46.55L91.20625 46.55Q90.8 45.721874 90.675 44.628124ZM90.45625 38.7375Q89.01875 39.33125 86.15938 39.7375Q84.53438 39.971874 83.84688 40.26875Q83.175 40.565624 82.8 41.128124Q82.44063 41.690624 82.44063 42.378124Q82.44063 43.425 83.2375 44.128124Q84.05 44.83125 85.58125 44.83125Q87.1125 44.83125 88.28438 44.175Q89.47188 43.503124 90.03438 42.346874Q90.45625 41.45625 90.45625 39.70625L90.45625 38.7375ZM96.53438 52.51875L96.53438 30.9875L98.925 30.9875L98.925 33.01875Q99.78438 31.83125 100.84688 31.2375Q101.925 30.64375 103.44063 30.64375Q105.44063 30.64375 106.95625 31.675Q108.4875 32.690624 109.25313 34.565624Q110.03438 36.425 110.03438 38.659374Q110.03438 41.034374 109.175 42.95625Q108.31563 44.8625 106.675 45.89375Q105.05 46.909374 103.25313 46.909374Q101.94063 46.909374 100.87813 46.346874Q99.83125 45.784374 99.15938 44.940624L99.15938 52.51875L96.53438 52.51875ZM98.90938 38.8625Q98.90938 41.8625 100.12813 43.3Q101.34688 44.7375 103.08125 44.7375Q104.83125 44.7375 106.08125 43.253124Q107.33125 41.753124 107.33125 38.64375Q107.33125 35.659374 106.1125 34.190624Q104.89375 32.70625 103.19063 32.70625Q101.50313 32.70625 100.20625 34.284374Q98.90938 35.8625 98.90938 38.8625ZM113.53438 52.51875L113.53438 30.9875L115.925 30.9875L115.925 33.01875Q116.78438 31.83125 117.84688 31.2375Q118.925 30.64375 120.44063 30.64375Q122.44063 30.64375 123.95625 31.675Q125.4875 32.690624 126.25313 34.565624Q127.03438 36.425 127.03438 38.659374Q127.03438 41.034374 126.175 42.95625Q125.31563 44.8625 123.675 45.89375Q122.05 46.909374 120.25313 46.909374Q118.94063 46.909374 117.87813 46.346874Q116.83125 45.784374 116.15938 44.940624L116.15938 52.51875L113.53438 52.51875ZM115.90938 38.8625Q115.90938 41.8625 117.12813 43.3Q118.34688 44.7375 120.08125 44.7375Q121.83125 44.7375 123.08125 43.253124Q124.33125 41.753124 124.33125 38.64375Q124.33125 35.659374 123.1125 34.190624Q121.89375 32.70625 120.19063 32.70625Q118.50313 32.70625 117.20625 34.284374Q115.90938 35.8625 115.90938 38.8625ZM130.47188 46.55L130.47188 25.08125L133.1125 25.08125L133.1125 46.55L130.47188 46.55ZM148.175 41.534374L150.90938 41.878124Q150.25313 44.26875 148.50313 45.596874Q146.76875 46.909374 144.06563 46.909374Q140.64375 46.909374 138.64375 44.8Q136.64375 42.690624 136.64375 38.909374Q136.64375 34.971874 138.65938 32.815624Q140.69063 30.64375 143.90938 30.64375Q147.03438 30.64375 149.00313 32.76875Q150.9875 34.89375 150.9875 38.7375Q150.9875 38.971874 150.97188 39.440624L139.37813 39.440624Q139.51875 42.003124 140.81563 43.378124Q142.12813 44.7375 144.08125 44.7375Q145.51875 44.7375 146.55 43.971874Q147.58125 43.20625 148.175 41.534374ZM139.51875 37.284374L148.20625 37.284374Q148.03438 35.315624 147.20625 34.33125Q145.95625 32.815624 143.94063 32.815624Q142.12813 32.815624 140.89375 34.034374Q139.65938 35.2375 139.51875 37.284374ZM154.22188 46.55L154.22188 43.55L157.22188 43.55L157.22188 46.55Q157.22188 48.20625 156.62813 49.221874Q156.05 50.2375 154.76875 50.8L154.03438 49.675Q154.87813 49.3 155.26875 48.58125Q155.65938 47.878124 155.70625 46.55L154.22188 46.55ZM168.89375 39.64375L171.58125 39.409374Q171.76875 41.034374 172.45625 42.065624Q173.15938 43.096874 174.62813 43.7375Q176.09688 44.3625 177.925 44.3625Q179.55 44.3625 180.78438 43.878124Q182.03438 43.39375 182.64375 42.565624Q183.25313 41.721874 183.25313 40.721874Q183.25313 39.70625 182.65938 38.95625Q182.08125 38.20625 180.7375 37.690624Q179.8625 37.346874 176.90938 36.64375Q173.95625 35.925 172.76875 35.3Q171.22188 34.4875 170.47188 33.3Q169.72188 32.1125 169.72188 30.628124Q169.72188 29.003124 170.64375 27.596874Q171.56563 26.175 173.33125 25.440624Q175.1125 24.70625 177.28438 24.70625Q179.65938 24.70625 181.4875 25.4875Q183.31563 26.253124 184.28438 27.753124Q185.26875 29.2375 185.34688 31.128124L182.62813 31.33125Q182.40938 29.3 181.12813 28.253124Q179.8625 27.20625 177.39375 27.20625Q174.81563 27.20625 173.62813 28.159374Q172.45625 29.096874 172.45625 30.440624Q172.45625 31.596874 173.3 32.346874Q174.1125 33.08125 177.56563 33.878124Q181.03438 34.659374 182.33125 35.2375Q184.20625 36.1125 185.09688 37.440624Q185.9875 38.753124 185.9875 40.4875Q185.9875 42.20625 185.00313 43.721874Q184.03438 45.2375 182.19063 46.08125Q180.34688 46.909374 178.05 46.909374Q175.14375 46.909374 173.15938 46.065624Q171.19063 45.221874 170.06563 43.51875Q168.95625 41.8 168.89375 39.64375ZM189.55 28.1125L189.55 25.08125L192.175 25.08125L192.175 28.1125L189.55 28.1125ZM189.55 46.55L189.55 30.9875L192.175 30.9875L192.175 46.55L189.55 46.55ZM195.47188 41.909374L198.08125 41.503124Q198.3 43.065624 199.3 43.909374Q200.3 44.7375 202.1125 44.7375Q203.925 44.7375 204.8 44.003124Q205.69063 43.253124 205.69063 42.253124Q205.69063 41.3625 204.90938 40.846874Q204.3625 40.503124 202.20625 39.95625Q199.31563 39.221874 198.19063 38.690624Q197.06563 38.159374 196.4875 37.221874Q195.90938 36.26875 195.90938 35.128124Q195.90938 34.08125 196.37813 33.20625Q196.8625 32.315624 197.69063 31.721874Q198.3 31.26875 199.3625 30.95625Q200.425 30.64375 201.64375 30.64375Q203.47188 30.64375 204.84688 31.175Q206.2375 31.690624 206.89375 32.596874Q207.56563 33.503124 207.8 35.003124L205.22188 35.3625Q205.05 34.159374 204.20625 33.4875Q203.3625 32.815624 201.83125 32.815624Q200.01875 32.815624 199.2375 33.409374Q198.45625 34.003124 198.45625 34.815624Q198.45625 35.33125 198.78438 35.7375Q199.1125 36.159374 199.8 36.440624Q200.19063 36.58125 202.12813 37.1125Q204.925 37.8625 206.01875 38.346874Q207.12813 38.815624 207.75313 39.721874Q208.39375 40.628124 208.39375 41.971874Q208.39375 43.3 207.62813 44.471874Q206.8625 45.628124 205.40938 46.26875Q203.95625 46.909374 202.12813 46.909374Q199.09688 46.909374 197.50313 45.64375Q195.90938 44.378124 195.47188 41.909374ZM221.675 44.628124Q220.22188 45.878124 218.8625 46.39375Q217.50313 46.909374 215.95625 46.909374Q213.39375 46.909374 212.00313 45.659374Q210.62813 44.39375 210.62813 42.440624Q210.62813 41.3 211.14375 40.3625Q211.675 39.409374 212.51875 38.846874Q213.3625 38.26875 214.40938 37.9875Q215.19063 37.76875 216.75313 37.58125Q219.95625 37.20625 221.45625 36.675Q221.47188 36.128124 221.47188 35.9875Q221.47188 34.378124 220.72188 33.721874Q219.72188 32.83125 217.72188 32.83125Q215.8625 32.83125 214.97188 33.4875Q214.09688 34.128124 213.65938 35.784374L211.08125 35.425Q211.44063 33.76875 212.2375 32.753124Q213.05 31.7375 214.56563 31.190624Q216.09688 30.64375 218.1125 30.64375Q220.09688 30.64375 221.33125 31.1125Q222.58125 31.58125 223.15938 32.3Q223.75313 33.003124 223.9875 34.08125Q224.12813 34.753124 224.12813 36.51875L224.12813 40.034374Q224.12813 43.70625 224.28438 44.690624Q224.45625 45.659374 224.95625 46.55L222.20625 46.55Q221.8 45.721874 221.675 44.628124ZM221.45625 38.7375Q220.01875 39.33125 217.15938 39.7375Q215.53438 39.971874 214.84688 40.26875Q214.175 40.565624 213.8 41.128124Q213.44063 41.690624 213.44063 42.378124Q213.44063 43.425 214.2375 44.128124Q215.05 44.83125 216.58125 44.83125Q218.1125 44.83125 219.28438 44.175Q220.47188 43.503124 221.03438 42.346874Q221.45625 41.45625 221.45625 39.70625L221.45625 38.7375ZM227.47188 46.55L227.47188 25.08125L230.1125 25.08125L230.1125 46.55L227.47188 46.55ZM252.675 44.628124Q251.22188 45.878124 249.8625 46.39375Q248.50313 46.909374 246.95625 46.909374Q244.39375 46.909374 243.00313 45.659374Q241.62813 44.39375 241.62813 42.440624Q241.62813 41.3 242.14375 40.3625Q242.675 39.409374 243.51875 38.846874Q244.3625 38.26875 245.40938 37.9875Q246.19063 37.76875 247.75313 37.58125Q250.95625 37.20625 252.45625 36.675Q252.47188 36.128124 252.47188 35.9875Q252.47188 34.378124 251.72188 33.721874Q250.72188 32.83125 248.72188 32.83125Q246.8625 32.83125 245.97188 33.4875Q245.09688 34.128124 244.65938 35.784374L242.08125 35.425Q242.44063 33.76875 243.2375 32.753124Q244.05 31.7375 245.56563 31.190624Q247.09688 30.64375 249.1125 30.64375Q251.09688 30.64375 252.33125 31.1125Q253.58125 31.58125 254.15938 32.3Q254.75313 33.003124 254.9875 34.08125Q255.12813 34.753124 255.12813 36.51875L255.12813 40.034374Q255.12813 43.70625 255.28438 44.690624Q255.45625 45.659374 255.95625 46.55L253.20625 46.55Q252.8 45.721874 252.675 44.628124ZM252.45625 38.7375Q251.01875 39.33125 248.15938 39.7375Q246.53438 39.971874 245.84688 40.26875Q245.175 40.565624 244.8 41.128124Q244.44063 41.690624 244.44063 42.378124Q244.44063 43.425 245.2375 44.128124Q246.05 44.83125 247.58125 44.83125Q249.1125 44.83125 250.28438 44.175Q251.47188 43.503124 252.03438 42.346874Q252.45625 41.45625 252.45625 39.70625L252.45625 38.7375ZM258.53436 46.55L258.53436 30.9875L260.89374 30.9875L260.89374 33.20625Q262.6125 30.64375 265.84686 30.64375Q267.2531 30.64375 268.425 31.159374Q269.6125 31.659374 270.1906 32.4875Q270.78436 33.3 271.01874 34.425Q271.175 35.159374 271.175 36.9875L271.175 46.55L268.53436 46.55L268.53436 37.08125Q268.53436 35.471874 268.22186 34.675Q267.925 33.878124 267.1281 33.409374Q266.34686 32.925 265.3 32.925Q263.6125 32.925 262.3781 34.003124Q261.15936 35.065624 261.15936 38.05L261.15936 46.55L258.53436 46.55ZM285.6281 46.55L285.6281 44.58125Q284.14374 46.909374 281.26874 46.909374Q279.40936 46.909374 277.84686 45.878124Q276.28436 44.846874 275.425 43.01875Q274.58124 41.175 274.58124 38.784374Q274.58124 36.45625 275.34686 34.565624Q276.1281 32.659374 277.675 31.659374Q279.2375 30.64375 281.15936 30.64375Q282.5656 30.64375 283.65936 31.2375Q284.7531 31.83125 285.4406 32.784374L285.4406 25.08125L288.0656 25.08125L288.0656 46.55L285.6281 46.55ZM277.28436 38.784374Q277.28436 41.76875 278.53436 43.253124Q279.8 44.7375 281.51874 44.7375Q283.2531 44.7375 284.45624 43.33125Q285.65936 41.909374 285.65936 39.003124Q285.65936 35.815624 284.425 34.33125Q283.20624 32.83125 281.40936 32.83125Q279.64374 32.83125 278.45624 34.26875Q277.28436 35.690624 277.28436 38.784374ZM316.1906 39.01875L319.03436 39.7375Q318.1281 43.2375 315.8 45.08125Q313.4875 46.909374 310.14374 46.909374Q306.65936 46.909374 304.4875 45.503124Q302.3156 44.08125 301.175 41.409374Q300.05 38.721874 300.05 35.64375Q300.05 32.3 301.33124 29.8Q302.6125 27.3 304.97186 26.003124Q307.34686 24.70625 310.175 24.70625Q313.40936 24.70625 315.59686 26.346874Q317.8 27.9875 318.65936 30.95625L315.8625 31.628124Q315.1125 29.284374 313.6906 28.221874Q312.26874 27.14375 310.1281 27.14375Q307.64374 27.14375 305.97186 28.33125Q304.3156 29.51875 303.64374 31.51875Q302.97186 33.51875 302.97186 35.64375Q302.97186 38.378124 303.76874 40.425Q304.5656 42.45625 306.2531 43.471874Q307.9406 44.4875 309.90936 44.4875Q312.28436 44.4875 313.9406 43.1125Q315.59686 41.7375 316.1906 39.01875ZM321.55 38.76875Q321.55 34.45625 323.95624 32.3625Q325.95624 30.64375 328.84686 30.64375Q332.05 30.64375 334.08124 32.753124Q336.1281 34.846874 336.1281 38.55Q336.1281 41.55 335.22186 43.284374Q334.3156 45.003124 332.59686 45.95625Q330.8781 46.909374 328.84686 46.909374Q325.58124 46.909374 323.5656 44.815624Q321.55 42.70625 321.55 38.76875ZM324.2531 38.76875Q324.2531 41.753124 325.55 43.253124Q326.8625 44.7375 328.84686 44.7375Q330.8 44.7375 332.09686 43.2375Q333.40936 41.7375 333.40936 38.690624Q333.40936 35.8 332.09686 34.315624Q330.78436 32.83125 328.84686 32.83125Q326.8625 32.83125 325.55 34.315624Q324.2531 35.784374 324.2531 38.76875ZM344.28436 44.190624L344.65936 46.51875Q343.55 46.753124 342.675 46.753124Q341.2375 46.753124 340.4406 46.3Q339.65936 45.846874 339.33124 45.1125Q339.01874 44.3625 339.01874 41.9875L339.01874 33.05L337.08124 33.05L337.08124 30.9875L339.01874 30.9875L339.01874 27.14375L341.6281 25.565624L341.6281 30.9875L344.28436 30.9875L344.28436 33.05L341.6281 33.05L341.6281 42.14375Q341.6281 43.26875 341.76874 43.596874Q341.90936 43.909374 342.22186 44.1125Q342.53436 44.3 343.1281 44.3Q343.5656 44.3 344.28436 44.190624ZM352.28436 44.190624L352.65936 46.51875Q351.55 46.753124 350.675 46.753124Q349.2375 46.753124 348.4406 46.3Q347.65936 45.846874 347.33124 45.1125Q347.01874 44.3625 347.01874 41.9875L347.01874 33.05L345.08124 33.05L345.08124 30.9875L347.01874 30.9875L347.01874 27.14375L349.6281 25.565624L349.6281 30.9875L352.28436 30.9875L352.28436 33.05L349.6281 33.05L349.6281 42.14375Q349.6281 43.26875 349.76874 43.596874Q349.90936 43.909374 350.22186 44.1125Q350.53436 44.3 351.1281 44.3Q351.5656 44.3 352.28436 44.190624ZM353.55 38.76875Q353.55 34.45625 355.95624 32.3625Q357.95624 30.64375 360.84686 30.64375Q364.05 30.64375 366.08124 32.753124Q368.1281 34.846874 368.1281 38.55Q368.1281 41.55 367.22186 43.284374Q366.3156 45.003124 364.59686 45.95625Q362.8781 46.909374 360.84686 46.909374Q357.58124 46.909374 355.5656 44.815624Q353.55 42.70625 353.55 38.76875ZM356.2531 38.76875Q356.2531 41.753124 357.55 43.253124Q358.8625 44.7375 360.84686 44.7375Q362.8 44.7375 364.09686 43.2375Q365.40936 41.7375 365.40936 38.690624Q365.40936 35.8 364.09686 34.315624Q362.78436 32.83125 360.84686 32.83125Q358.8625 32.83125 357.55 34.315624Q356.2531 35.784374 356.2531 38.76875ZM370.53436 46.55L370.53436 30.9875L372.89374 30.9875L372.89374 33.20625Q374.6125 30.64375 377.84686 30.64375Q379.2531 30.64375 380.425 31.159374Q381.6125 31.659374 382.1906 32.4875Q382.78436 33.3 383.01874 34.425Q383.175 35.159374 383.175 36.9875L383.175 46.55L380.53436 46.55L380.53436 37.08125Q380.53436 35.471874 380.22186 34.675Q379.925 33.878124 379.1281 33.409374Q378.34686 32.925 377.3 32.925Q375.6125 32.925 374.3781 34.003124Q373.15936 35.065624 373.15936 38.05L373.15936 46.55L370.53436 46.55ZM393.5031 46.55L401.7531 25.08125L404.8156 25.08125L413.59686 46.55L410.3625 46.55L407.8625 40.05L398.8781 40.05L396.51874 46.55L393.5031 46.55ZM399.70624 37.7375L406.9875 37.7375L404.7375 31.784374Q403.72186 29.08125 403.22186 27.33125Q402.8156 29.39375 402.0656 31.425L399.70624 37.7375ZM416.95624 46.55L414.51874 46.55L414.51874 25.08125L417.14374 25.08125L417.14374 32.7375Q418.8156 30.64375 421.40936 30.64375Q422.84686 30.64375 424.1281 31.221874Q425.40936 31.8 426.2375 32.846874Q427.0656 33.89375 427.53436 35.378124Q428.0031 36.846874 428.0031 38.534374Q428.0031 42.534374 426.01874 44.721874Q424.05 46.909374 421.28436 46.909374Q418.53436 46.909374 416.95624 44.596874L416.95624 46.55ZM416.925 38.659374Q416.925 41.45625 417.6906 42.690624Q418.9406 44.7375 421.0656 44.7375Q422.78436 44.7375 424.05 43.2375Q425.3156 41.7375 425.3156 38.753124Q425.3156 35.70625 424.09686 34.26875Q422.89374 32.815624 421.175 32.815624Q419.45624 32.815624 418.1906 34.315624Q416.925 35.815624 416.925 38.659374ZM430.47186 41.909374L433.08124 41.503124Q433.3 43.065624 434.3 43.909374Q435.3 44.7375 437.1125 44.7375Q438.925 44.7375 439.8 44.003124Q440.6906 43.253124 440.6906 42.253124Q440.6906 41.3625 439.90936 40.846874Q439.3625 40.503124 437.20624 39.95625Q434.3156 39.221874 433.1906 38.690624Q432.0656 38.159374 431.4875 37.221874Q430.90936 36.26875 430.90936 35.128124Q430.90936 34.08125 431.3781 33.20625Q431.8625 32.315624 432.6906 31.721874Q433.3 31.26875 434.3625 30.95625Q435.425 30.64375 436.64374 30.64375Q438.47186 30.64375 439.84686 31.175Q441.2375 31.690624 441.89374 32.596874Q442.5656 33.503124 442.8 35.003124L440.22186 35.3625Q440.05 34.159374 439.20624 33.4875Q438.3625 32.815624 436.83124 32.815624Q435.01874 32.815624 434.2375 33.409374Q433.45624 34.003124 433.45624 34.815624Q433.45624 35.33125 433.78436 35.7375Q434.1125 36.159374 434.8 36.440624Q435.1906 36.58125 437.1281 37.1125Q439.925 37.8625 441.01874 38.346874Q442.1281 38.815624 442.7531 39.721874Q443.39374 40.628124 443.39374 41.971874Q443.39374 43.3 442.6281 44.471874Q441.8625 45.628124 440.40936 46.26875Q438.95624 46.909374 437.1281 46.909374Q434.09686 46.909374 432.5031 45.64375Q430.90936 44.378124 430.47186 41.909374ZM445.55 38.76875Q445.55 34.45625 447.95624 32.3625Q449.95624 30.64375 452.84686 30.64375Q456.05 30.64375 458.08124 32.753124Q460.1281 34.846874 460.1281 38.55Q460.1281 41.55 459.22186 43.284374Q458.3156 45.003124 456.59686 45.95625Q454.8781 46.909374 452.84686 46.909374Q449.58124 46.909374 447.5656 44.815624Q445.55 42.70625 445.55 38.76875ZM448.2531 38.76875Q448.2531 41.753124 449.55 43.253124Q450.8625 44.7375 452.84686 44.7375Q454.8 44.7375 456.09686 43.2375Q457.40936 41.7375 457.40936 38.690624Q457.40936 35.8 456.09686 34.315624Q454.78436 32.83125 452.84686 32.83125Q450.8625 32.83125 449.55 34.315624Q448.2531 35.784374 448.2531 38.76875ZM462.5031 46.55L462.5031 30.9875L464.8781 30.9875L464.8781 33.346874Q465.78436 31.690624 466.55 31.175Q467.3156 30.64375 468.2375 30.64375Q469.58124 30.64375 470.95624 31.4875L470.05 33.940624Q469.08124 33.3625 468.1125 33.3625Q467.2375 33.3625 466.55 33.89375Q465.8625 34.409374 465.58124 35.33125Q465.1281 36.7375 465.1281 38.409374L465.1281 46.55L462.5031 46.55ZM472.53436 52.51875L472.53436 30.9875L474.925 30.9875L474.925 33.01875Q475.78436 31.83125 476.84686 31.2375Q477.925 30.64375 479.4406 30.64375Q481.4406 30.64375 482.95624 31.675Q484.4875 32.690624 485.2531 34.565624Q486.03436 36.425 486.03436 38.659374Q486.03436 41.034374 485.175 42.95625Q484.3156 44.8625 482.675 45.89375Q481.05 46.909374 479.2531 46.909374Q477.9406 46.909374 476.8781 46.346874Q475.83124 45.784374 475.15936 44.940624L475.15936 52.51875L472.53436 52.51875ZM474.90936 38.8625Q474.90936 41.8625 476.1281 43.3Q477.34686 44.7375 479.08124 44.7375Q480.83124 44.7375 482.08124 43.253124Q483.33124 41.753124 483.33124 38.64375Q483.33124 35.659374 482.1125 34.190624Q480.89374 32.70625 479.1906 32.70625Q477.5031 32.70625 476.20624 34.284374Q474.90936 35.8625 474.90936 38.8625ZM495.28436 44.190624L495.65936 46.51875Q494.55 46.753124 493.675 46.753124Q492.2375 46.753124 491.4406 46.3Q490.65936 45.846874 490.33124 45.1125Q490.01874 44.3625 490.01874 41.9875L490.01874 33.05L488.08124 33.05L488.08124 30.9875L490.01874 30.9875L490.01874 27.14375L492.6281 25.565624L492.6281 30.9875L495.28436 30.9875L495.28436 33.05L492.6281 33.05L492.6281 42.14375Q492.6281 43.26875 492.76874 43.596874Q492.90936 43.909374 493.22186 44.1125Q493.53436 44.3 494.1281 44.3Q494.5656 44.3 495.28436 44.190624ZM497.55 28.1125L497.55 25.08125L500.175 25.08125L500.175 28.1125L497.55 28.1125ZM497.55 46.55L497.55 30.9875L500.175 30.9875L500.175 46.55L497.55 46.55ZM503.55 38.76875Q503.55 34.45625 505.95624 32.3625Q507.95624 30.64375 510.84686 30.64375Q514.05 30.64375 516.08124 32.753124Q518.1281 34.846874 518.1281 38.55Q518.1281 41.55 517.22186 43.284374Q516.3156 45.003124 514.59686 45.95625Q512.8781 46.909374 510.84686 46.909374Q507.58124 46.909374 505.5656 44.815624Q503.55 42.70625 503.55 38.76875ZM506.2531 38.76875Q506.2531 41.753124 507.55 43.253124Q508.8625 44.7375 510.84686 44.7375Q512.8 44.7375 514.09686 43.2375Q515.40936 41.7375 515.40936 38.690624Q515.40936 35.8 514.09686 34.315624Q512.78436 32.83125 510.84686 32.83125Q508.8625 32.83125 507.55 34.315624Q506.2531 35.784374 506.2531 38.76875ZM520.53436 46.55L520.53436 30.9875L522.89374 30.9875L522.89374 33.20625Q524.6125 30.64375 527.84686 30.64375Q529.2531 30.64375 530.425 31.159374Q531.6125 31.659374 532.1906 32.4875Q532.78436 33.3 533.01874 34.425Q533.175 35.159374 533.175 36.9875L533.175 46.55L530.53436 46.55L530.53436 37.08125Q530.53436 35.471874 530.22186 34.675Q529.925 33.878124 529.1281 33.409374Q528.34686 32.925 527.3 32.925Q525.6125 32.925 524.3781 34.003124Q523.15936 35.065624 523.15936 38.05L523.15936 46.55L520.53436 46.55Z" fill-rule="nonzero"/></svg>